<svg width="100" height="101" fill="none" xmlns="http://www.w3.org/2000/svg"><g clip-path="url(#clip0)" fill-rule="evenodd" clip-rule="evenodd" fill="#44C8F5"><path d="M19.064 0h34.972c.514.094 1.033.166 1.542.281 6.59 1.488 10.654 5.572 12.092 12.125 1.634 7.443 3.104 14.922 4.608 22.395.324 1.613.836 3.193.817 4.875-.037 3.215-.01 6.43-.011 9.645-.001.203-.019.404-.029.641-.223.01-.406.025-.59.025-2.951.002-5.902-.01-8.854.008-.768.006-1.551.025-2.299.176-4.435.895-7.487 3.521-9.212 7.652-1.525 3.654-2.862 7.387-4.41 11.031a18.968 18.968 0 00-1.541 7.557c.005 2.5.001 5 .001 7.5v.705H19.254c-.012.25-.027.453-.028.654-.003 1.016.001 2.031-.002 3.045-.009 2.518-1.441 3.967-3.947 3.977-2.481.01-4.963.01-7.444.004-2.513-.004-3.968-1.443-3.989-3.943-.012-1.43-.014-2.859.006-4.287.005-.375-.102-.602-.428-.818-1.56-1.035-2.613-2.46-3.138-4.266-.109-.375-.19-.76-.284-1.139V38.245c.151-.6.323-1.193.449-1.797.632-3.047 1.254-6.096 1.879-9.145 1.027-5.016 2.082-10.025 3.07-15.047C6.535 6.476 9.965 2.727 15.46.817 16.615.414 17.859.266 19.064 0zm17.769 38.465v-.004c7.913 0 15.826-.002 23.74 0 2.911 0 4.595-2.102 4.004-4.97a4039.03 4039.03 0 01-2.967-14.567c-.493-2.439-1.819-3.545-4.313-3.545-13.778-.002-27.557-.002-41.334-.002-2.28.002-3.691 1.197-4.124 3.432-.841 4.348-1.708 8.691-2.55 13.041-.18.938-.454 1.893-.416 2.83.09 2.225 1.86 3.783 4.105 3.785h23.855zm-.279-26.943c3.156 0 6.313.016 9.469-.014.606-.006 1.248-.1 1.809-.318 1.613-.63 2.443-2.4 2.102-4.293-.329-1.824-1.69-3.027-3.586-3.035-6.539-.023-13.077-.027-19.615.01-.645.004-1.348.227-1.921.537-1.479.797-2.069 2.646-1.564 4.545.409 1.535 1.754 2.551 3.5 2.563 3.268.02 6.538.007 9.806.005zm-23.107 53.87c-3.095.022-5.77 2.702-5.763 5.77.007 3.104 2.757 5.787 5.901 5.762 3.012-.025 5.65-2.764 5.627-5.842-.022-3.064-2.706-5.715-5.765-5.69z"/><path d="M88.448 92.315H61.565c-.013.236-.032.455-.034.672-.01 1.184.038 2.371-.035 3.553-.126 2.053-1.537 3.383-3.605 3.436-1.39.033-2.783.035-4.174.004-2.264-.05-3.706-1.537-3.724-3.803-.009-1.129.007-2.256-.018-3.385-.004-.176-.171-.344-.242-.525a1.142 1.142 0 01-.1-.412c-.001-5.453-.018-10.904.021-16.357.013-1.814.441-3.572 1.129-5.26 1.537-3.77 3.078-7.543 4.608-11.318 1.261-3.11 4.067-5.066 7.442-5.076a4582.53 4582.53 0 0120.644-.008c1.484.002 2.979-.059 4.449.098 2.82.3 4.936 1.79 6.025 4.396 1.845 4.416 3.553 8.891 5.271 13.357a8.293 8.293 0 01.423 4.438c-.048.275-.028.563-.028.846-.001 3.572-.003 7.145.005 10.717.001.3-.16.68.3.852.064.023.061.275.061.422 0 2.387.014 4.775-.011 7.162-.025 2.42-1.42 3.818-3.825 3.855-1.316.02-2.633.023-3.948-.004-2.29-.045-3.738-1.539-3.751-3.834-.006-1.258 0-2.514 0-3.826zM74.981 73.076v.006c5.659 0 11.318-.027 16.977.025 1.039.01 1.915-1.168 1.496-2.174a191.095 191.095 0 01-3.529-9.14c-.467-1.304-1.987-2.23-3.206-2.214-4.153.057-8.309.021-12.464.023-3.778 0-7.557-.002-11.336.014-1.341.006-2.229.652-2.71 1.895l-3.593 9.3c-.518 1.341.116 2.265 1.559 2.265h16.806zm21.146 11.516c-.006-2.313-1.512-3.824-3.801-3.816-2.36.008-3.888 1.537-3.876 3.88.012 2.292 1.571 3.806 3.91 3.794 2.285-.014 3.773-1.536 3.767-3.858zm-34.603.012c-.008-2.332-1.524-3.836-3.86-3.832-2.311.004-3.847 1.56-3.828 3.871.019 2.29 1.549 3.81 3.84 3.811 2.321.001 3.857-1.534 3.848-3.85z"/></g><defs><clipPath id="clip0"><path fill="#fff" d="M0 0h100v100.002H0z"/></clipPath></defs></svg>