<svg width="36" height="37" fill="none" xmlns="http://www.w3.org/2000/svg"><path d="M34.86 18.5A16.93 16.93 0 101 18.48a16.93 16.93 0 0033.86.02v0z" stroke="#27AAE1"/><path fill-rule="evenodd" clip-rule="evenodd" d="M12.61 6.89h.26a1.93 1.93 0 011 .68c.422.531.76 1.125 1 1.76a7.31 7.31 0 01.52 2c.015.183.015.367 0 .55a.74.74 0 01-.26.49 4.158 4.158 0 01-1.09.82c-.34.2-.7.38-1 .57-.11.064-.217.134-.32.21a1.28 1.28 0 00-.55 1.3c.036.484.147.96.33 1.41a26.27 26.27 0 004.15 6.69 11.86 11.86 0 002.46 2.22c.33.22.39.21.68-.06a9.283 9.283 0 011.78-1.35 2.56 2.56 0 011.75-.3c.236.056.461.147.67.27.38.188.72.45 1 .77.4.43.79.88 1.17 1.34.288.337.49.738.59 1.17v.3a1.64 1.64 0 01-.42.84 5.31 5.31 0 01-2.69 1.57 6.669 6.669 0 01-.78.12h-.84l-.62-.08a7.777 7.777 0 01-2.08-.72 15.07 15.07 0 01-4.29-3.14 23.52 23.52 0 01-4.66-6.73 17.38 17.38 0 01-1.72-6.24v-1.37a5.06 5.06 0 01.27-1.48 6.82 6.82 0 011.2-2.11 3.83 3.83 0 012.1-1.54l.39.04z" fill="#27AAE1"/></svg>