<svg xmlns="http://www.w3.org/2000/svg" width="30" height="30" fill="#fff"><path d="M18.56 7.78a5 5 0 011.64.3 2.94 2.94 0 011.67 1.67 5 5 0 01.3 1.64l.05 3.56-.05 3.55a5 5 0 01-.3 1.64 2.94 2.94 0 01-1.67 1.67 5 5 0 01-1.64.3h-7.1a5 5 0 01-1.63-.2 2.94 2.94 0 01-1.67-1.67 4.71 4.71 0 01-.3-1.64l-.06-3.55.06-3.56a4.71 4.71 0 01.3-1.64 2.94 2.94 0 011.67-1.67 5 5 0 011.64-.3l7.1-.1zm-7.18-1.5a6.93 6.93 0 00-2.14.41 4.48 4.48 0 00-1.56 1 4.36 4.36 0 00-1 1.56 6.33 6.33 0 00-.41 2.14v7.25a6.33 6.33 0 00.41 2.14 4.36 4.36 0 001 1.56 4.48 4.48 0 001.56 1 6.65 6.65 0 002.14.41h7.26a6.59 6.59 0 002.14-.41 4.55 4.55 0 002.58-2.58 6.87 6.87 0 00.41-2.14v-7.25a6.87 6.87 0 00-.41-2.14 4.55 4.55 0 00-2.58-2.58 6.87 6.87 0 00-2.14-.41l-7.26.04zm3.62 4.2a4.53 4.53 0 00-3.216 7.729 4.53 4.53 0 007.737-3.2 4.53 4.53 0 00-4.52-4.53zm0 7.46a2.94 2.94 0 01-2.075-5.022A2.94 2.94 0 0117.94 15 2.93 2.93 0 0115 17.91v.02zm5.76-7.64a1.06 1.06 0 01-1.786.831A1.06 1.06 0 0119.7 9.29a1.05 1.05 0 011.06 1z"/></svg>