<svg xmlns="http://www.w3.org/2000/svg" width="30" height="30" fill="none"><path fill-rule="evenodd" d="M14.76 21.81h1.35a1.2 1.2 0 00.62-.27 1 1 0 00.19-.6s0-1.8.8-2.08 1.9 1.76 3 2.53a2.15 2.15 0 001.51.46h3s1.6-.1.84-1.34a10.45 10.45 0 00-2.25-2.6c-1.9-1.77-1.65-1.48.64-4.53 1.4-1.85 2-3 1.77-3.47s-1.2-.34-1.2-.34h-3.4a.8.8 0 00-.44.08.88.88 0 00-.3.37c-.354.913-.775 1.8-1.26 2.65-1.52 2.58-2.12 2.7-2.37 2.55-.58-.37-.43-1.5-.43-2.3 0-2.5.37-3.54-.74-3.8a5.77 5.77 0 00-1.59-.16 7.53 7.53 0 00-2.83.29c-.38.2-.68.62-.5.64a1.58 1.58 0 011 .5 3.41 3.41 0 01.33 1.55s.2 2.93-.47 3.3c-.46.25-1.1-.26-2.44-2.6a19.366 19.366 0 01-1.2-2.52 1.07 1.07 0 00-.28-.38 1.42 1.42 0 00-.53-.21H4.36a1.15 1.15 0 00-.67.23c-.16.2 0 .57 0 .57s2.53 5.93 5.4 8.92a7.77 7.77 0 005.62 2.56h.05z" fill="#fff"/></svg>