<svg width="100" height="101" fill="none" xmlns="http://www.w3.org/2000/svg"><g clip-path="url(#clip0)" fill-rule="evenodd" clip-rule="evenodd" fill="#44C8F5"><path d="M68.303.002c.535.176 1.095.297 1.601.533a5.15 5.15 0 012.863 5.742 5.223 5.223 0 01-4.966 4.145c-.369.01-.738 0-1.18 0v.629c0 7.283-.004 14.566.013 21.85.001.311.13.664.306.922 9.258 13.49 17.558 27.545 24.761 42.236 2.046 4.172 3.871 8.453 5.845 12.66.455.971.329 1.91.136 2.857-1.02 4.984-5.199 8.402-10.304 8.404-18.742.01-37.485.006-56.227.006h-.509c.574-.779 1.135-1.482 1.632-2.229 2.117-3.182 3.099-6.699 3.097-10.514-.007-13.574-.002-27.146.01-40.719 0-.264.084-.566.229-.785 2.602-3.984 5.222-7.957 7.822-11.94.163-.25.273-.585.274-.88.015-7.283.012-14.568.012-21.852v-.645c-.876 0-1.689.014-2.499-.002a5.208 5.208 0 01-4.797-3.377c-1.131-3.025.701-6.299 3.882-6.939.098-.02.191-.068.286-.104 9.237.002 18.475.002 27.713.002zM37.749 54.16h.819c8.686 0 17.371.004 26.057-.01.411 0 .628.12.824.488 2.086 3.916 4.193 7.82 6.294 11.73 3.756 6.987 7.506 13.978 11.267 20.964.933 1.73 2.787 2.336 4.37 1.457 1.58-.877 2.05-2.713 1.132-4.422-1.285-2.393-2.568-4.785-3.854-7.178L72.587 54.722c-.083-.154-.242-.424-.199-.465.326-.309.01-.516-.102-.72-3.172-5.872-6.357-11.737-9.521-17.612a2.53 2.53 0 01-.284-1.154c-.017-7.852-.014-15.703-.015-23.553v-.744H47.891v.619c.001 7.922.005 15.844-.008 23.766 0 .336-.088.709-.246 1.004-2.711 5.031-5.44 10.053-8.163 15.078-.563 1.04-1.117 2.085-1.725 3.22z"/><path d="M2.002 21.748c.052-.295.092-.594.155-.885.565-2.588 2.624-4.195 5.405-4.199 6.359-.004 12.719-.002 19.078.004 1.35 0 2.703-.033 4.047.061 2.452.176 4.432 2.178 4.672 4.63.244 2.464-1.341 4.821-3.703 5.505-.15.045-.3.092-.44.133v24.055c0 12.025.003 24.051-.001 36.076-.001 4.943-2.102 8.756-6.368 11.232-7.513 4.361-17.248-.408-18.477-8.998-.12-.84-.159-1.697-.159-2.547-.009-13.785-.004-27.568-.003-41.352 0-5.95-.004-11.902-.005-17.852v-.455c-.806-.46-1.627-.816-2.313-1.348-1.082-.84-1.649-2.018-1.799-3.387-.017-.156-.06-.309-.091-.46.002-.07.002-.142.002-.213zm10.46 28.184v.605c0 7.354-.002 14.707-.003 22.061 0 3.197-.014 6.395.006 9.592.013 2.225 2.028 3.723 4.074 3.063 1.392-.447 2.18-1.635 2.18-3.297.002-10.426.002-20.854.002-31.279v-.764h8.286c.013-.186.026-.289.026-.393-.001-7.3-.007-14.6.006-21.9.001-.467-.165-.549-.585-.547-5.188.012-10.373.006-15.56.008-.188 0-.378.016-.571.023v22.828h2.138z"/></g><defs><clipPath id="clip0"><path fill="#fff" d="M0 0h100v100.003H0z"/></clipPath></defs></svg>