<svg width="36" height="37" fill="none" xmlns="http://www.w3.org/2000/svg"><g clip-path="url(#clip0)"><path d="M20.5 20.84l8-8a3.381 3.381 0 00-3.38-3.39h-14.4a3.39 3.39 0 00-3.39 3.39l8 8a3.7 3.7 0 005.17 0z" fill="#27AAE1"/><path d="M17.93 23.03a4.69 4.69 0 01-3.36-1.39L7.33 14.4v9.63a3.38 3.38 0 003.39 3.38h14.42a3.38 3.38 0 003.36-3.38V14.4l-7.23 7.24a4.71 4.71 0 01-3.34 1.39z" fill="#27AAE1"/><path d="M34.86 18.4A16.93 16.93 0 101 18.4a16.93 16.93 0 0033.86 0z" stroke="#27AAE1"/></g><defs><clipPath id="clip0"><path fill="#fff" transform="translate(0 .47)" d="M0 0h36v36H0z"/></clipPath></defs></svg>