<svg width="100" height="100" fill="none" xmlns="http://www.w3.org/2000/svg"><path fill-rule="evenodd" clip-rule="evenodd" d="M50.837.001c1.078.252 2.196.398 3.229.773 5.142 1.867 8.339 5.52 9.225 10.9.892 5.424-.945 9.982-5.314 13.35-1.477 1.141-3.238 1.912-4.877 2.84-9.66 5.461-19.322 10.918-28.984 16.377-.141.078-.287.148-.464.24-1.49-1.916-2.968-3.818-4.481-5.768.202-.137.374-.256.55-.371 2.594-1.689 3.806-4.57 3.195-7.602-.625-3.1-2.866-5.395-5.907-5.889-3.022-.49-5.495.59-7.29 3.031-1.834 2.494-1.85 5.203-.369 7.844.78 1.393 1.83 2.641 2.82 3.904a16017.956 16017.956 0 0028.259 35.998c1.785 2.264 3.046 4.72 3.452 7.586.069.488.11.98.172 1.541.169-.09.309-.152.438-.232 9.138-5.77 18.28-11.53 27.406-17.318 2.306-1.46 3.615-3.539 3.519-6.346-.052-1.514-.654-2.832-1.601-4.002-.606-.75-1.216-1.498-1.88-2.314.544-.109.999-.205 1.455-.293 1.897-.375 3.691-1.04 5.396-1.943.376-.197.583-.182.851.176 2.35 3.131 3.536 6.615 3.002 10.531-.588 4.311-2.724 7.738-6.413 10.076-12.99 8.23-26.002 16.424-39.014 24.621-9.074 5.717-20.528.07-22.318-9.666-1.045-5.689 1.445-11.801 6.283-14.941.045-.029.098-.047.208-.102l4.459 5.723c-.175.12-.316.223-.464.314-2.737 1.721-3.99 4.793-3.229 7.924.797 3.28 3.262 5.47 6.548 5.701 3.142.221 5.587-1.045 7.098-3.813 1.504-2.758 1.327-5.525-.591-8.033-3.211-4.199-6.496-8.34-9.761-12.498A18624.232 18624.232 0 004.799 42.043c-1.894-2.402-3.198-5.053-3.651-8.098-.04-.266-.099-.527-.148-.79v-2.636c.033-.082.085-.162.096-.246.661-5.129 3.341-8.855 7.904-11.205C19.676 13.572 30.371 8.113 41.062 2.646 42.654 1.833 44.193.89 45.963.484 46.743.304 47.53.16 48.315 0l2.522.001zM30.369 32.476c.245-.129.389-.203.531-.283 2.402-1.359 4.804-2.719 7.205-4.08 4.898-2.775 9.795-5.553 14.692-8.326 1.349-.764 2.374-1.822 2.964-3.268 1.043-2.561.328-5.684-1.717-7.555-2.04-1.867-5.012-2.225-7.612-.895-7.404 3.785-14.804 7.576-22.205 11.367-.188.096-.372.2-.605.326 4.421 3.1 6.69 7.276 6.747 12.714z" fill="#44C8F5"/><path fill-rule="evenodd" clip-rule="evenodd" d="M99.798 9.003l-.44 1.742c-.96 3.811-2.3 7.47-4.29 10.877a4.259 4.259 0 01-1.937 1.771 24.144 24.144 0 01-5.666 1.838.605.605 0 00-.264.107c1.805.568 3.667.625 5.606.57-.078.201-.119.357-.195.492-1.459 2.617-2.916 5.236-4.397 7.84-.132.234-.397.428-.645.555-2.272 1.168-4.708 1.78-7.229 2.092-.391.05-.781.092-1.177.191 1.995.9 4.071 1.293 6.289 1.063-.018.064-.02.137-.055.184-2.415 3.186-5.115 6.074-8.593 8.133-2.042 1.207-4.224 2-6.617 2.107-.455.021-.921.037-1.366-.037-.534-.088-.84.098-1.105.547-1.843 3.115-3.717 6.211-5.544 9.336-.298.508-.628.82-1.201.982-1.508.43-2.998.92-4.66 1.439 4.855-9.334 10.278-18.123 17.018-26.061-.037-.045-.074-.09-.11-.137-1.274.996-2.573 1.963-3.815 2.998a98.467 98.467 0 00-3.745 3.301c-1.21 1.115-2.376 2.275-3.62 3.473-.096-.193-.188-.357-.263-.531-1.868-4.318-1.452-8.52.663-12.629 1.32-2.564 3.126-4.762 5.168-6.777.047-.045.11-.074.228-.148-.009 2.135.565 4.035 1.701 5.756.062-.002.124-.004.184-.008 0-.846-.044-1.695.009-2.539a18.32 18.32 0 011.425-6.051c.098-.229.232-.469.417-.625 2.609-2.197 5.372-4.17 8.39-5.775.108-.059.226-.1.414-.184-.299 1.82-.16 3.537.552 5.361.13-.545.218-.938.317-1.326.449-1.74.987-3.45 1.958-4.979a3.387 3.387 0 011.064-1.057 28.507 28.507 0 0111.486-3.898c1.339-.154 2.696-.146 4.046-.213l-.001.22zM53.117 40.725l3.468 4.481L34.602 58.09l-3.327-4.563c7.291-4.275 14.549-8.53 21.842-12.802zM41.548 67.258c-1.104-1.518-2.179-2.992-3.305-4.537l15.003-8.793c-.13.293-.19.453-.268.604a1997.924 1997.924 0 01-4.229 8.246c-.111.217-.274.449-.476.57-2.137 1.27-4.285 2.52-6.431 3.777-.076.045-.163.074-.294.133z" fill="#44C8F5"/></svg>