<svg xmlns="http://www.w3.org/2000/svg" xmlns:xlink="http://www.w3.org/1999/xlink" width="365" height="124" fill="none"><g clip-path="url(#A)"><g fill="#005a98"><use xlink:href="#B"/><use xlink:href="#C"/><use xlink:href="#D"/><use xlink:href="#E"/><path d="M298.828 48.7V3.5h-9.82l-6.58 20.4V3.5h-9.82v45.2h10.3l6.1-20.56V48.7h9.82z"/><use xlink:href="#F"/><path d="M354.348 3.5l-6.58 20.4V3.5h-9.82v45.2h10.3l6.1-20.56V48.7h9.82V3.5h-9.82z"/><use xlink:href="#G"/><use xlink:href="#H"/><use xlink:href="#I"/><use xlink:href="#J"/><use xlink:href="#K"/><path d="M346.148 93.4V73h-9.82v45.18h10.3l6.1-20.55v20.55h9.82V73h-9.82l-6.58 20.38z"/><use xlink:href="#L" fill-rule="evenodd"/></g><use xlink:href="#M" fill-rule="evenodd" fill="#44c7f4"/><use xlink:href="#N" fill="#00b2b9"/><use xlink:href="#O" fill="#1189ca"/><g fill="#005a98"><use xlink:href="#B"/><use xlink:href="#C"/><use xlink:href="#D"/><use xlink:href="#E"/><path d="M298.828 48.7V3.5h-9.82l-6.58 20.4V3.5h-9.82v45.2h10.3l6.1-20.56V48.7h9.82z"/><use xlink:href="#F"/><path d="M354.348 3.5l-6.58 20.4V3.5h-9.82v45.2h10.3l6.1-20.56V48.7h9.82V3.5h-9.82z"/><use xlink:href="#G"/><use xlink:href="#H"/><use xlink:href="#I"/><use xlink:href="#J"/><use xlink:href="#K"/><path d="M346.148 93.4V73h-9.82v45.18h10.3l6.1-20.55v20.55h9.82V73h-9.82l-6.58 20.38z"/><use xlink:href="#L" fill-rule="evenodd"/></g><use xlink:href="#M" fill-rule="evenodd" fill="#44c7f4"/><use xlink:href="#N" fill="#00b2b9"/><use xlink:href="#O" fill="#1189ca"/></g><defs><path id="B" d="M148.498 30.51h3.15a15.5 15.5 0 006.24-1.06 5.999 5.999 0 003.27-3 16.22 16.22 0 00.9-6.3v-3.97a30.336 30.336 0 00-.47-6.26 7.456 7.456 0 00-1.75-3.45 8.246 8.246 0 00-3.88-2.17 27.4 27.4 0 00-7.38-.76h-11.82V48.7h11.74V30.5zm0-19.24c1.52 0 2.53.23 3 .7s.73 1.46.73 3v3.73a5.8 5.8 0 01-.63 3.3 2.73 2.73 0 01-2.25.8h-.86l.01-11.53z"/><path id="C" d="M187.278 48.39a10.77 10.77 0 004.484-3.487 10.766 10.766 0 002.086-5.283c.214-1.887.32-5.1.32-9.64v-7.72c.055-3.26-.055-6.52-.33-9.77a10.86 10.86 0 00-6.74-8.71 17 17 0 00-6.51-1.19 16.75 16.75 0 00-6.7 1.26 10.77 10.77 0 00-4.478 3.489 10.767 10.767 0 00-2.082 5.28c-.22 1.9-.32 5.1-.32 9.64v7.72c-.054 3.26.056 6.52.33 9.77a10.82 10.82 0 002.179 5.277 10.818 10.818 0 004.56 3.433 17 17 0 006.51 1.19 16.5 16.5 0 006.69-1.26zm-8.2-7.3a20.172 20.172 0 01-.33-4.85V15.15c0-2.33.17-3.73.5-4.2a1.57 1.57 0 011.4-.71 1.39 1.39 0 011.44.87 14.16 14.16 0 01.35 4v20.8a21.71 21.71 0 01-.34 5 1.42 1.42 0 01-.57.813 1.43 1.43 0 01-.961.247 1.39 1.39 0 01-1.49-.88z"/><path id="D" d="M225.968 56.48h8.1V39.22h-2.4V3.5h-26v1.37a148.92 148.92 0 01-1.24 19.82 79.074 79.074 0 01-3.1 14.6h-2.4v17.2h8.1V48.7h19l-.06 7.78zm-6-17.26h-6.28a130.24 130.24 0 002.76-26.45v-.33h3.5l.03 26.78z"/><path id="E" d="M266.338 48.7V3.54h-11.74v16.15h-3.52V3.54h-11.75V48.7h11.75V29.73h3.52V48.7h11.74z"/><path id="F" d="M322.448 3.5c-1.2 1.14-1.83 3.33-1.9 6.6l-.22 8.8c-.08 2.4-1.22 3.63-3.44 3.68l-.05-19.08h-11.76v45.2h11.77l.05-19.13c.492-.02.982.065 1.44.247a3.53 3.53 0 011.217.808 3.54 3.54 0 01.785 1.231c.173.46.247.952.22 1.444v8.82c0 3.25.63 5.45 1.9 6.58h10.85c-1.06-1.453-1.58-3.9-1.56-7.3l.05-7.2c.04-4.773-2.6-7.48-7.92-8.12 5.333-.667 7.973-3.333 7.92-8l-.05-7.75c0-3.44.52-5.7 1.56-6.8l-10.86-.01z"/><path id="G" d="M161.448 75.96a8.28 8.28 0 00-3.88-2.17 27.81 27.81 0 00-7.38-.76h-11.82v45.16h11.75v-18.18h3.15c2.13.08 4.256-.28 6.24-1.06a6.09 6.09 0 003.27-3 16.26 16.26 0 00.9-6.3V85.7a30.406 30.406 0 00-.47-6.26 7.46 7.46 0 00-1.76-3.48zm-7.6 12.22a5.99 5.99 0 01-.62 3.31 2.73 2.73 0 01-2.25.79h-.86V80.76c1.52 0 2.53.23 3 .7s.72 1.47.72 3l.01 3.72z"/><path id="H" d="M200.508 76.83a10.673 10.673 0 00-4.65-3.56 17.2 17.2 0 00-6.51-1.18 16.76 16.76 0 00-6.7 1.25 10.81 10.81 0 00-4.478 3.491 10.8 10.8 0 00-2.092 5.279c-.207 1.893-.313 5.107-.32 9.64v7.73a92.96 92.96 0 00.34 9.76 10.66 10.66 0 002.09 5.16 10.862 10.862 0 004.64 3.56 17.042 17.042 0 006.52 1.18 16.58 16.58 0 006.7-1.26 10.767 10.767 0 004.484-3.487 10.77 10.77 0 002.086-5.283c.213-1.88.32-5.1.32-9.63v-7.73a92.693 92.693 0 00-.34-9.76 10.652 10.652 0 00-2.08-5.16zm-9.32 28.56c.083 1.69-.03 3.386-.34 5.05a1.42 1.42 0 01-.569.813c-.28.195-.62.282-.96.247a1.4 1.4 0 01-1.49-.92 20.376 20.376 0 01-.32-4.85v-21.1c0-2.32.16-3.73.48-4.2a1.62 1.62 0 011.46-.74 1.38 1.38 0 011.44.88c.308 1.3.426 2.657.35 4l-.05 20.8z"/><path id="I" d="M237.978 74.1a18.89 18.89 0 00-15.32-.71 11.039 11.039 0 00-4.6 3.56 10.29 10.29 0 00-2 4.7 57.73 57.73 0 00-.33 7.32v13.2a34.234 34.234 0 001.08 9.94 9.1 9.1 0 004.44 5.17 17.24 17.24 0 008.5 1.87 15 15 0 008.36-2.21 10.173 10.173 0 004.38-5.14c.65-2 1-5.27 1-9.94v-1.76h-11.75v5.68a16.467 16.467 0 01-.4 4.72 2 2 0 01-1.735 1.005 1.99 1.99 0 01-1.002-.27 1.996 1.996 0 01-.733-.735 14.61 14.61 0 01-.39-4.29v-21a15.74 15.74 0 01.39-4.46c.155-.345.42-.63.752-.8a1.73 1.73 0 011.088-.19 1.62 1.62 0 01.965.162c.297.152.54.392.695.688a14.17 14.17 0 01.37 4.27v7.84h11.72v-4.3a30.287 30.287 0 00-1.06-9.32 9.698 9.698 0 00-4.4-5z"/><path id="J" d="M278.308 74.1a18.91 18.91 0 00-15.33-.71 11.17 11.17 0 00-4.6 3.56 10.29 10.29 0 00-2 4.7c-.26 2.43-.37 4.876-.33 7.32v13.2a34.161 34.161 0 001.08 9.94 9.1 9.1 0 004.44 5.17 17.219 17.219 0 008.5 1.87c2.94.098 5.844-.67 8.35-2.2a10.14 10.14 0 004.38-5.14c.66-2 1-5.27 1-9.94v-1.76h-11.75v5.68a16.464 16.464 0 01-.4 4.72 1.65 1.65 0 01-.688.785c-.31.18-.667.256-1.022.215a1.67 1.67 0 01-1.049-.203 1.654 1.654 0 01-.71-.797 15.03 15.03 0 01-.4-4.3v-21a15.74 15.74 0 01.39-4.46c.155-.345.42-.63.752-.8a1.73 1.73 0 011.088-.19 1.61 1.61 0 011.66.85 14.17 14.17 0 01.37 4.27v7.84h11.75v-4.3a30.287 30.287 0 00-1.06-9.32 9.68 9.68 0 00-4.44-5z"/><path id="K" d="M306.538 93.4V73h-9.82v45.18h10.3l6.1-20.55v20.55h9.82V73h-9.82l-6.58 20.38z"/><path id="L" d="M30.608.3A30.07 30.07 0 002.479 18.409a30.07 30.07 0 006.022 32.908 30.07 30.07 0 0032.719 6.974A30.07 30.07 0 0060.138 30.7C60.298 14.2 46.918.43 30.608.3zm-3.6 48.24a2.75 2.75 0 01-1.87 1.83 3.82 3.82 0 01-.48.14l-.52.1-.45.07a13.4 13.4 0 01-1.66.2h-1.05a19.31 19.31 0 01-8.53-2.18 17.4 17.4 0 01-2.23-1.41 3 3 0 01-1.22-1.62 2.73 2.73 0 01-.11-1.15 3.44 3.44 0 011.616-3.111 3.44 3.44 0 013.504-.079c.7.34 1.4.77 2.1 1.1a10.9 10.9 0 006.43 1.07h1.1a3.74 3.74 0 012.46.78 3.52 3.52 0 01.91 4.25zm0-15.26a2.75 2.75 0 01-1.87 1.83 3.82 3.82 0 01-.48.14l-.52.1-.45.08a15.6 15.6 0 01-1.66.19h-1.05a19.44 19.44 0 01-8.53-2.18 17.4 17.4 0 01-2.23-1.41 3 3 0 01-1.22-1.62 2.73 2.73 0 01-.11-1.15 3.45 3.45 0 011.621-3.102 3.45 3.45 0 013.499-.088c.7.34 1.4.77 2.1 1.12a10.82 10.82 0 006.43 1.06h1.1a3.79 3.79 0 012.46.78 3.52 3.52 0 01.91 4.25zm0-13.5a2.73 2.73 0 01-1.87 1.83 3.81 3.81 0 01-.48.15l-.52.1-.45.08a15.6 15.6 0 01-1.66.19h-1.05a19.29 19.29 0 01-8.53-2.17c-.776-.42-1.52-.895-2.23-1.42a3 3 0 01-1.22-1.62 2.68 2.68 0 01-.11-1.14 3.45 3.45 0 011.617-3.109 3.45 3.45 0 013.503-.091c.7.35 1.4.77 2.1 1.12a10.82 10.82 0 006.43 1.06h1.1a3.79 3.79 0 012.46.78 3.52 3.52 0 01.91 4.25zm24.64 26.26a3.45 3.45 0 01-1.617 3.109 3.45 3.45 0 01-3.503.09c-.72-.35-1.4-.77-2.12-1.12a10.8 10.8 0 00-6.42-1.06h-1.1a3.7 3.7 0 01-2.45-.79 3.49 3.49 0 01-.89-4.24 2.68 2.68 0 011.9-1.83c.16-.062.323-.112.5-.15l.52-.1.45-.08c.546-.098 1.097-.16 1.65-.2.093.005.187.005.28 0h.76a19.3 19.3 0 018.52 2.15 18.01 18.01 0 012.24 1.42 3 3 0 011.22 1.62 2.68 2.68 0 01.07 1.16zm0-15.26a3.45 3.45 0 01-1.617 3.11 3.45 3.45 0 01-3.503.09c-.72-.35-1.4-.77-2.12-1.12a10.8 10.8 0 00-6.42-1.06h-1.1a3.75 3.75 0 01-2.45-.78 3.49 3.49 0 01-.89-4.24 2.69 2.69 0 011.9-1.84c.16 0 .3-.1.5-.15l.96-.17a15.44 15.44 0 011.65-.19h1.04a19.31 19.31 0 018.52 2.16c.783.4 1.532.882 2.24 1.4a3 3 0 011.22 1.62 2.68 2.68 0 01.08 1.16zm0-13.5a3.45 3.45 0 01-1.621 3.102 3.45 3.45 0 01-3.499.088c-.72-.35-1.4-.77-2.12-1.1a10.73 10.73 0 00-6.42-1.07h-1.1a3.69 3.69 0 01-2.45-.78 3.49 3.49 0 01-.89-4.24 2.71 2.71 0 011.9-1.84c.16-.06.324-.105.5-.14.17 0 .34-.06.52-.1l.45-.1a15.44 15.44 0 011.65-.19h1.04a19.45 19.45 0 018.52 2.16 16.84 16.84 0 012.24 1.41 3 3 0 011.22 1.62 2.73 2.73 0 01.07 1.17z"/><path id="M" d="M30.148 63.81A30 30 0 002.389 82.216a30 30 0 00-1.781 17.31 30 30 0 008.128 15.386 29.998 29.998 0 0015.302 8.286 30 30 0 0030.851-12.553 30.017 30.017 0 005.17-16.616 29.93 29.93 0 00-2.187-11.54 29.91 29.91 0 00-16.205-16.373 29.91 29.91 0 00-11.518-2.306zm-18.27 24.68a3.35 3.35 0 01-.14-.48c0-.17-.06-.35-.1-.52s-.06-.3-.08-.45a13.217 13.217 0 01-.2-1.66 2.43 2.43 0 010-.27v-.77a19.38 19.38 0 012.16-8.51c.41-.782.882-1.53 1.4-2.24a3 3 0 011.62-1.22 2.73 2.73 0 011.15-.11 3.44 3.44 0 013.111 1.616 3.44 3.44 0 01.079 3.504c-.34.7-.77 1.4-1.1 2.1a10.76 10.76 0 00-1.07 6.43v1.1a3.72 3.72 0 01-.78 2.46 3.52 3.52 0 01-4.24.89 2.75 2.75 0 01-1.83-1.87zm10.68 13.66v.77a19.187 19.187 0 01-2.15 8.5 18.08 18.08 0 01-1.42 2.24 3.006 3.006 0 01-1.62 1.22 2.7 2.7 0 01-1.14.1 3.45 3.45 0 01-1.775-.384 3.374 3.374 0 01-1.334-1.233 3.45 3.45 0 01-.091-3.503c.35-.72.77-1.4 1.12-2.1a10.84 10.84 0 001.06-6.43v-1.1a3.7 3.7 0 01.79-2.45 3.49 3.49 0 014.23-.89 2.71 2.71 0 011.83 1.86c0 .16.1.32.15.5s.05.34.1.52.05.3.08.45a15.46 15.46 0 01.19 1.65 2.61 2.61 0 00-.01.28zm12.9 2.3a17.13 17.13 0 01-3.58 9.3 3.4 3.4 0 01-4.34.82 3.45 3.45 0 01-1.81-4.15 10.41 10.41 0 01.86-1.82 10.69 10.69 0 00.13-11.41c-1.87-3.28-3.56-6.6-3.82-10.47a19.77 19.77 0 013.18-12.87 3.62 3.62 0 013.39-1.62 3.4 3.4 0 012.978 1.708 3.4 3.4 0 01-.028 3.432c-3.14 5.2-3 10.3.16 15.38a18.56 18.56 0 012.88 11.69zm1.2-16a3.35 3.35 0 01-.14-.48c0-.17-.06-.35-.1-.52s0-.3-.08-.45a18.156 18.156 0 01-.2-1.66V84.3a19.24 19.24 0 012.16-8.51c.4-.782.882-1.532 1.4-2.24a3 3 0 011.62-1.22 2.73 2.73 0 011.15-.11 3.45 3.45 0 013.102 1.621 3.45 3.45 0 01.088 3.499c-.35.7-.77 1.4-1.1 2.1a10.76 10.76 0 00-1.07 6.43v1.1a3.78 3.78 0 01-.78 2.46 3.52 3.52 0 01-4.24.89 2.73 2.73 0 01-1.82-1.83v-.04zm10.67 13.66v.77a19.53 19.53 0 01-2.15 8.51 18.07 18.07 0 01-1.42 2.24 3.006 3.006 0 01-1.62 1.22c-.372.113-.763.15-1.15.1a3.45 3.45 0 01-1.772-.388 3.439 3.439 0 01-1.33-1.234 3.45 3.45 0 01-.088-3.498c.35-.72.77-1.4 1.12-2.1a10.84 10.84 0 001.06-6.43v-1.1a3.75 3.75 0 01.78-2.45 3.5 3.5 0 014.24-.89 2.71 2.71 0 011.83 1.86c.05.16.1.32.15.5s.05.34.1.52.05.3.08.45c.093.546.156 1.097.2 1.65 0 .14-.01.22-.01.32v-.04z"/><path id="N" d="M94.728 63.28c-16.5-.16-30.28 13.2-30.4 29.53a30.07 30.07 0 0018.107 28.128 30.084 30.084 0 0017.367 1.99 30.07 30.07 0 0015.54-8.007 30.08 30.08 0 008.46-15.297 30.07 30.07 0 00-1.479-17.418 30.06 30.06 0 00-10.917-13.652 30.07 30.07 0 00-16.667-5.273zm2.6 13.25a2.71 2.71 0 011.86-1.83 3.5 3.5 0 01.49-.14l.52-.1.45-.08a17.9 17.9 0 011.65-.2h1.04a19.45 19.45 0 018.52 2.16 17.51 17.51 0 012.24 1.41 2.997 2.997 0 011.22 1.62 2.73 2.73 0 01.1 1.15 3.435 3.435 0 01-.382 1.777 3.44 3.44 0 01-2.975 1.854 3.442 3.442 0 01-1.763-.44c-.7-.34-1.4-.77-2.1-1.12a10.9 10.9 0 00-6.43-1.06h-1.1a3.75 3.75 0 01-2.45-.78 3.49 3.49 0 01-.89-4.23zm-24.64 2.5a3.45 3.45 0 011.617-3.109 3.45 3.45 0 013.503-.091c.7.35 1.4.77 2.1 1.12a10.82 10.82 0 006.43 1.06h1.1a3.79 3.79 0 012.46.78 3.5 3.5 0 01.88 4.24 2.69 2.69 0 01-1.86 1.83l-.48.15-.52.1-.45.08c-.55.092-1.104.156-1.66.2h-1.05a19.31 19.31 0 01-8.51-2.16c-.78-.415-1.53-.886-2.24-1.4a3 3 0 01-1.22-1.62 2.7 2.7 0 01-.1-1.15zm18.1 30.67c-.13.438-.368.835-.693 1.155a2.68 2.68 0 01-1.167.675l-.48.17-.52.08c-.15 0-.3.06-.45.1-.55.092-1.104.156-1.66.2h-1.05a19.31 19.31 0 01-8.51-2.16 18.29 18.29 0 01-2.24-1.41 3 3 0 01-1.22-1.62 2.73 2.73 0 01-.1-1.15 3.45 3.45 0 011.621-3.102 3.46 3.46 0 011.737-.521 3.445 3.445 0 011.76.433c.7.35 1.4.77 2.1 1.1a10.757 10.757 0 006.43 1.07h1.1a3.787 3.787 0 012.46.78 3.493 3.493 0 011.163 1.954 3.5 3.5 0 01-.283 2.256zm24.66-2.5a3.45 3.45 0 01-.388 1.771 3.437 3.437 0 01-1.233 1.33 3.44 3.44 0 01-1.737.521 3.45 3.45 0 01-1.762-.432c-.7-.35-1.4-.77-2.1-1.12a10.815 10.815 0 00-6.43-1.06h-1.1a3.75 3.75 0 01-2.45-.78 3.49 3.49 0 01-.89-4.24 2.71 2.71 0 011.86-1.83c.16 0 .3-.1.5-.15l.52-.1.45-.08a14.75 14.75 0 011.65-.19h1.04c2.967.056 5.882.792 8.52 2.15a18.72 18.72 0 012.24 1.42 2.997 2.997 0 011.22 1.62 2.71 2.71 0 01.1 1.16zm-.38-13.3a3.42 3.42 0 01-4.44 1.57 25.152 25.152 0 01-2.24-1.15 10.56 10.56 0 00-9.51-.29c-1.54.67-3 1.63-4.46 2.37a20.17 20.17 0 01-18.6-.23c-1.62-.8-3.08-1.82-3-4a3.89 3.89 0 012-3.44c1.26-.7 2.4-.3 3.57.4 4.6 2.72 9.28 2.94 13.9.2 3.86-2.3 7.87-3.8 12.44-3.46a18.238 18.238 0 019.37 3.38 3.56 3.56 0 01.95 4.67h.02z"/><path id="O" d="M94.268 60a30.058 30.058 0 0016.7-4.99 30 30 0 0011.103-13.424 30.001 30.001 0 001.772-17.33 30 30 0 00-8.158-15.393A30.004 30.004 0 00100.35.598a30 30 0 00-17.342 1.65 30 30 0 00-18.61 27.663 29.91 29.91 0 008.686 21.255A29.91 29.91 0 0094.268 60zm9.84-49c1.3-2.2 3.22-2.92 5.2-2 2.18 1 2.8 2.93 1.53 5a14.116 14.116 0 00-2.1 8.56 14.551 14.551 0 002.43 6.7 18.051 18.051 0 012.77 7.467 18.07 18.07 0 01-.711 7.933 24.727 24.727 0 01-2.7 5.37 3.28 3.28 0 01-4 1.16 3.81 3.81 0 01-1.831-1.41 3.814 3.814 0 01-.68-2.21c.4-.86.73-1.76 1.2-2.58a10.83 10.83 0 001.666-5.883c-.02-2.08-.64-4.1-1.786-5.847a22.44 22.44 0 01-3.68-12.28 20.35 20.35 0 012.71-10.01V11zm-13.13-.7a3.59 3.59 0 013.38-1.62 3.4 3.4 0 013.016 1.685 3.4 3.4 0 01-.016 3.455c-3.14 5.18-3 10.3.16 15.37a18.6 18.6 0 012.87 11.7 17.1 17.1 0 01-3.57 9.31 3.38 3.38 0 01-4.34.81 3.43 3.43 0 01-1.81-4.14 9.55 9.55 0 01.86-1.83 10.67 10.67 0 00.13-11.4c-1.87-3.3-3.56-6.6-3.82-10.47a19.76 19.76 0 013.14-12.91v.04zm-13-.06A3.6 3.6 0 0182.568 9a3.25 3.25 0 012.11 2.129 3.25 3.25 0 01-.53 2.951 12.78 12.78 0 00-1.65 10.62 41.322 41.322 0 002.85 6 18 18 0 01-1.22 19 3.51 3.51 0 01-3.101 1.721 3.51 3.51 0 01-3.019-1.861 5.52 5.52 0 01-.27-2.88 4.3 4.3 0 01.77-1.71 10.73 10.73 0 00.1-11.41c-1.4-2.55-3-5-3.43-8-.24-1.5-.38-3-.5-4 .2-4.4 1.03-8.12 3.33-11.36l-.03.04z"/><clipPath id="A"><path fill="#fff" d="M0 0h364.168v123.81H0z"/></clipPath></defs></svg>