<svg width="365" height="124" fill="none" xmlns="http://www.w3.org/2000/svg"><g clip-path="url(#clip0)" fill="#fff"><path d="M148.498 30.509h3.15a15.5 15.5 0 006.24-1.06 5.996 5.996 0 003.27-3 16.22 16.22 0 00.9-6.3v-3.97a30.334 30.334 0 00-.47-6.26 7.457 7.457 0 00-1.75-3.45 8.246 8.246 0 00-3.88-2.17 27.4 27.4 0 00-7.38-.76h-11.82v45.16h11.74v-18.19zm0-19.24c1.52 0 2.53.23 3 .7.47.47.73 1.46.73 3v3.73a5.801 5.801 0 01-.63 3.3 2.73 2.73 0 01-2.25.8h-.86l.01-11.53zm38.78 37.12a10.771 10.771 0 006.57-8.77c.214-1.887.32-5.1.32-9.64v-7.72a96.533 96.533 0 00-.33-9.77 10.862 10.862 0 00-6.74-8.71 17 17 0 00-6.51-1.19 16.752 16.752 0 00-6.7 1.26 10.77 10.77 0 00-6.56 8.77c-.22 1.89-.32 5.1-.32 9.64v7.72c-.054 3.26.056 6.52.33 9.77a10.818 10.818 0 006.74 8.71 17 17 0 006.51 1.19c2.294.05 4.572-.38 6.69-1.26zm-8.21-7.31a20.173 20.173 0 01-.33-4.85v-21.08c0-2.33.17-3.73.5-4.2a1.571 1.571 0 011.4-.71 1.392 1.392 0 011.44.87 14.16 14.16 0 01.35 4v20.79a21.712 21.712 0 01-.34 5 1.426 1.426 0 01-1.53 1.06 1.388 1.388 0 01-1.49-.88zm46.9 15.401h8.11V39.22h-2.39V3.51h-26v1.37a148.92 148.92 0 01-1.24 19.82 78.567 78.567 0 01-3.11 14.61h-2.4v17.21h8.09V48.7h19l-.06 7.78zm-6-17.26h-6.28a130.24 130.24 0 002.76-26.45v-.33h3.49l.03 26.78zm46.37 9.48V3.54h-11.74v16.15h-3.52V3.54h-11.75V48.7h11.75V29.73h3.52V48.7h11.74zm32.49 0V3.51h-9.82l-6.58 20.39V3.51h-9.82V48.7h10.29l6.11-20.56V48.7h9.82zm23.62-45.19c-1.19 1.14-1.83 3.33-1.9 6.59l-.22 8.81c-.08 2.4-1.22 3.63-3.44 3.68l-.05-19.08h-11.76V48.7h11.77l.05-19.13a3.526 3.526 0 012.656 1.055 3.538 3.538 0 011.004 2.675v8.82c0 3.25.63 5.45 1.9 6.58h10.85c-1.06-1.454-1.58-3.89-1.56-7.31l.05-7.19c.04-4.774-2.6-7.48-7.92-8.12 5.333-.667 7.973-3.334 7.92-8l-.05-7.75c0-3.44.52-5.71 1.56-6.81l-10.86-.01zm31.9 0l-6.58 20.39V3.51h-9.82V48.7h10.29l6.11-20.56V48.7h9.82V3.51h-9.82zm-192.9 72.45a8.278 8.278 0 00-3.88-2.17 27.81 27.81 0 00-7.38-.76h-11.82v45.159h11.75v-18.18h3.15c2.131.081 4.256-.28 6.24-1.06a6.088 6.088 0 003.27-3 16.259 16.259 0 00.9-6.3V85.7a30.404 30.404 0 00-.47-6.26 7.462 7.462 0 00-1.76-3.48zm-7.61 12.22a5.99 5.99 0 01-.62 3.31 2.728 2.728 0 01-2.25.79h-.86V80.76c1.52 0 2.53.23 3 .7.47.47.72 1.47.72 3l.01 3.72zm46.67-11.35a10.676 10.676 0 00-4.65-3.56 17.198 17.198 0 00-6.51-1.18 16.76 16.76 0 00-6.7 1.25 10.81 10.81 0 00-6.57 8.77c-.207 1.893-.313 5.106-.32 9.64v7.73a92.96 92.96 0 00.34 9.759 10.658 10.658 0 002.09 5.16 10.795 10.795 0 004.64 3.56 17.046 17.046 0 006.52 1.18c2.293.05 4.572-.379 6.69-1.26a10.767 10.767 0 006.57-8.77c.213-1.88.32-5.09.32-9.63v-7.73a92.694 92.694 0 00-.34-9.76 10.654 10.654 0 00-2.08-5.16zm-9.32 28.559a21.806 21.806 0 01-.34 5.05 1.425 1.425 0 01-1.53 1.06 1.398 1.398 0 01-1.49-.92 20.376 20.376 0 01-.32-4.85v-21.09c0-2.32.16-3.73.48-4.2a1.62 1.62 0 011.46-.74 1.378 1.378 0 011.44.88c.308 1.31.426 2.657.35 4l-.05 20.81zm46.79-31.299a18.89 18.89 0 00-15.32-.71 11.137 11.137 0 00-4.61 3.56 10.289 10.289 0 00-2 4.7 57.732 57.732 0 00-.33 7.32v13.2a34.234 34.234 0 001.08 9.94 9.102 9.102 0 004.44 5.17 17.238 17.238 0 008.5 1.87c2.943.1 5.851-.669 8.36-2.21a10.173 10.173 0 004.38-5.14c.65-2 1-5.27 1-9.94v-1.76h-11.75v5.68a16.467 16.467 0 01-.4 4.72 2 2 0 01-3.47 0 14.61 14.61 0 01-.39-4.29v-21c-.083-1.498.048-3 .39-4.46a1.726 1.726 0 011.84-1 1.62 1.62 0 011.66.85 14.17 14.17 0 01.37 4.27v7.84h11.72v-4.29a30.286 30.286 0 00-1.06-9.32 9.676 9.676 0 00-4.41-5zm40.33 0a18.91 18.91 0 00-15.33-.71 11.168 11.168 0 00-4.6 3.56 10.289 10.289 0 00-2 4.7 59.657 59.657 0 00-.33 7.32v13.2a34.196 34.196 0 001.08 9.94 9.102 9.102 0 004.44 5.17 17.233 17.233 0 008.51 1.87c2.94.098 5.844-.67 8.35-2.21a10.138 10.138 0 004.38-5.14c.66-2 1-5.27 1-9.94v-1.76h-11.75v5.68a16.464 16.464 0 01-.4 4.72 1.649 1.649 0 01-1.71 1 1.669 1.669 0 01-1.76-1 14.607 14.607 0 01-.39-4.29v-21c-.083-1.498.048-3 .39-4.46a1.726 1.726 0 011.84-1 1.612 1.612 0 011.66.85 14.17 14.17 0 01.37 4.27v7.84h11.75v-4.29a30.287 30.287 0 00-1.06-9.32 9.68 9.68 0 00-4.44-5zm28.23 19.3V73.01h-9.82v45.18h10.29l6.11-20.55v20.55h9.82V73.01h-9.82l-6.58 20.38zm39.61 0V73.01h-9.82v45.18h10.29l6.11-20.55v20.55h9.82V73.01h-9.82l-6.58 20.38z"/><path fill-rule="evenodd" clip-rule="evenodd" d="M30.608.3a30.07 30.07 0 1029.53 30.4C60.298 14.2 46.918.43 30.608.3zm-3.6 48.24a2.749 2.749 0 01-1.87 1.83 3.777 3.777 0 01-.48.14l-.52.1-.45.07a13.4 13.4 0 01-1.66.2h-1.05a19.309 19.309 0 01-8.53-2.18 17.402 17.402 0 01-2.23-1.41 3 3 0 01-1.22-1.62 2.73 2.73 0 01-.11-1.15 3.44 3.44 0 015.12-3.19c.71.34 1.39.77 2.11 1.11a10.9 10.9 0 006.43 1.07h1.09a3.74 3.74 0 012.46.78 3.52 3.52 0 01.91 4.25zm0-15.26a2.749 2.749 0 01-1.87 1.83 3.777 3.777 0 01-.48.14l-.52.1-.45.08c-.55.093-1.104.156-1.66.19h-1.05a19.438 19.438 0 01-8.53-2.18 17.402 17.402 0 01-2.23-1.41 3 3 0 01-1.22-1.62 2.73 2.73 0 01-.11-1.15 3.45 3.45 0 015.12-3.19c.71.34 1.39.77 2.11 1.12a10.819 10.819 0 006.43 1.06h1.09a3.79 3.79 0 012.46.78 3.52 3.52 0 01.91 4.25zm0-13.5a2.73 2.73 0 01-1.87 1.83c-.156.06-.317.11-.48.15l-.52.09-.45.08c-.55.093-1.104.156-1.66.19h-1.05a19.29 19.29 0 01-8.53-2.17 18.665 18.665 0 01-2.23-1.42 3 3 0 01-1.22-1.62 2.68 2.68 0 01-.11-1.14 3.45 3.45 0 015.12-3.2c.71.35 1.39.77 2.11 1.12a10.819 10.819 0 006.43 1.06h1.09a3.79 3.79 0 012.46.78 3.52 3.52 0 01.91 4.25zm24.64 26.26a3.45 3.45 0 01-5.12 3.2c-.72-.35-1.4-.77-2.12-1.12a10.8 10.8 0 00-6.42-1.06h-1.1a3.7 3.7 0 01-2.45-.79 3.49 3.49 0 01-.89-4.24 2.68 2.68 0 011.9-1.83c.16-.062.323-.112.49-.15l.52-.09.45-.08a13.253 13.253 0 011.65-.19c.093.005.187.005.28 0h.76c2.968.052 5.883.788 8.52 2.15.78.417 1.53.892 2.24 1.42a3 3 0 011.22 1.62c.108.377.132.773.07 1.16zm0-15.26a3.45 3.45 0 01-5.12 3.2c-.72-.35-1.4-.77-2.12-1.12a10.8 10.8 0 00-6.42-1.06h-1.1a3.75 3.75 0 01-2.45-.78 3.49 3.49 0 01-.89-4.24 2.69 2.69 0 011.9-1.84c.16 0 .31-.11.49-.15l.51-.09.45-.08a15.438 15.438 0 011.65-.19h1.04a19.31 19.31 0 018.52 2.16c.783.41 1.532.882 2.24 1.41a3 3 0 011.22 1.62c.111.376.139.772.08 1.16zm0-13.49a3.45 3.45 0 01-5.12 3.19c-.72-.35-1.4-.77-2.12-1.11a10.73 10.73 0 00-6.42-1.07h-1.1a3.69 3.69 0 01-2.45-.78 3.49 3.49 0 01-.89-4.24 2.711 2.711 0 011.9-1.84c.16-.059.324-.106.49-.14.17 0 .34-.06.52-.09l.45-.09a15.442 15.442 0 011.65-.19h1.04c2.968.06 5.882.8 8.52 2.16.783.41 1.532.882 2.24 1.41a3 3 0 011.22 1.62c.108.38.132.78.07 1.17z"/><path fill-rule="evenodd" clip-rule="evenodd" d="M30.148 63.809a30 30 0 1029.91 30.22 29.913 29.913 0 00-29.91-30.22zm-18.27 24.68a3.35 3.35 0 01-.14-.48c0-.17-.06-.35-.09-.52-.03-.17-.06-.3-.08-.45a11.557 11.557 0 01-.19-1.66 2.432 2.432 0 010-.27v-.77a19.38 19.38 0 012.16-8.51c.41-.783.882-1.532 1.41-2.24a3 3 0 011.62-1.22 2.73 2.73 0 011.15-.11 3.44 3.44 0 013.19 5.12c-.34.71-.77 1.39-1.11 2.11a10.76 10.76 0 00-1.07 6.43v1.09a3.72 3.72 0 01-.78 2.46 3.52 3.52 0 01-4.24.89 2.75 2.75 0 01-1.83-1.87zm10.68 13.66v.77a19.263 19.263 0 01-2.15 8.51c-.418.78-.892 1.529-1.42 2.24a3.005 3.005 0 01-1.62 1.22c-.368.113-.756.15-1.14.11a3.451 3.451 0 01-3.2-5.12c.35-.72.77-1.4 1.12-2.11a10.84 10.84 0 001.06-6.43v-1.1a3.7 3.7 0 01.79-2.45 3.49 3.49 0 014.23-.89 2.71 2.71 0 011.83 1.86c0 .16.11.32.15.49.04.17.05.34.09.52.04.18.05.3.08.45.093.546.157 1.097.19 1.65a2.61 2.61 0 00-.01.28zm12.89 2.3a17.193 17.193 0 01-3.58 9.31 3.398 3.398 0 01-4.34.82 3.448 3.448 0 01-1.81-4.15c.227-.633.515-1.243.86-1.82a10.692 10.692 0 00.13-11.41c-1.87-3.28-3.56-6.6-3.82-10.47a19.77 19.77 0 013.18-12.87 3.62 3.62 0 013.39-1.62 3.4 3.4 0 012.95 5.14c-3.14 5.19-3 10.3.16 15.38a18.56 18.56 0 012.88 11.69zm1.2-16a3.35 3.35 0 01-.14-.48c0-.17-.06-.35-.1-.52-.04-.17 0-.3-.08-.45a15.316 15.316 0 01-.19-1.66v-1.04a19.24 19.24 0 012.16-8.51c.41-.783.882-1.532 1.41-2.24a3 3 0 011.62-1.22 2.73 2.73 0 011.15-.11 3.451 3.451 0 013.19 5.12c-.35.71-.77 1.39-1.11 2.11a10.76 10.76 0 00-1.07 6.43v1.09a3.78 3.78 0 01-.78 2.46 3.52 3.52 0 01-4.24.89 2.729 2.729 0 01-1.82-1.83v-.04zm10.67 13.66v.77a19.53 19.53 0 01-2.15 8.51 18.07 18.07 0 01-1.42 2.24 3.006 3.006 0 01-1.62 1.22 2.905 2.905 0 01-1.15.11 3.45 3.45 0 01-3.19-5.12c.35-.72.77-1.4 1.12-2.11a10.842 10.842 0 001.06-6.43v-1.1a3.75 3.75 0 01.78-2.45 3.5 3.5 0 014.24-.89 2.71 2.71 0 011.83 1.86c.05.16.11.32.15.49.04.17.05.34.09.52.04.18.05.3.08.45.093.546.157 1.097.19 1.65 0 .14-.01.22-.01.32v-.04z"/><path d="M94.728 63.279c-16.51-.16-30.28 13.21-30.41 29.53a30.07 30.07 0 1030.41-29.53zm2.61 13.25a2.71 2.71 0 011.86-1.83c.16-.059.324-.105.49-.14l.52-.1.45-.08a14.844 14.844 0 011.65-.19h1.04c2.968.06 5.882.8 8.52 2.16.781.413 1.53.884 2.24 1.41a2.996 2.996 0 011.22 1.62c.115.372.149.764.1 1.15a3.435 3.435 0 01-1.615 3.11 3.442 3.442 0 01-3.505.08c-.71-.34-1.39-.77-2.11-1.12a10.9 10.9 0 00-6.43-1.06h-1.09a3.75 3.75 0 01-2.45-.78 3.49 3.49 0 01-.89-4.23zm-24.64 2.5a3.45 3.45 0 015.12-3.2c.71.35 1.39.77 2.11 1.12a10.82 10.82 0 006.43 1.06h1.09a3.79 3.79 0 012.46.78 3.5 3.5 0 01.88 4.24 2.69 2.69 0 01-1.86 1.83c-.16.05-.32.11-.48.15l-.52.09-.45.08c-.55.092-1.104.156-1.66.19h-1.05a19.311 19.311 0 01-8.51-2.16 18.243 18.243 0 01-2.24-1.41 3 3 0 01-1.22-1.62 2.699 2.699 0 01-.1-1.15zm18.09 30.67a2.686 2.686 0 01-1.86 1.83l-.48.17-.52.08c-.15 0-.31.06-.45.09-.55.092-1.104.156-1.66.19h-1.05a19.308 19.308 0 01-8.51-2.16 18.291 18.291 0 01-2.24-1.41 3 3 0 01-1.22-1.62 2.731 2.731 0 01-.1-1.15 3.449 3.449 0 015.12-3.19c.71.35 1.39.77 2.11 1.11a10.757 10.757 0 006.43 1.07h1.09a3.787 3.787 0 012.46.78 3.496 3.496 0 01.88 4.21zm24.66-2.51a3.448 3.448 0 01-3.358 3.622 3.452 3.452 0 01-1.762-.432c-.71-.35-1.39-.77-2.11-1.12a10.815 10.815 0 00-6.43-1.06h-1.09a3.752 3.752 0 01-2.45-.78 3.49 3.49 0 01-.89-4.24 2.712 2.712 0 011.86-1.83c.16 0 .31-.11.49-.15l.52-.09.45-.08a14.75 14.75 0 011.65-.19h1.04c2.967.056 5.882.792 8.52 2.15.779.42 1.528.894 2.24 1.42a2.997 2.997 0 011.22 1.62c.117.375.151.77.1 1.16zm-.38-13.29a3.418 3.418 0 01-4.44 1.57 25.046 25.046 0 01-2.24-1.15 10.56 10.56 0 00-9.51-.29c-1.54.67-3 1.63-4.46 2.37a20.17 20.17 0 01-18.6-.23c-1.62-.8-3.08-1.82-3-4a3.89 3.89 0 012-3.44c1.26-.7 2.41-.31 3.57.39 4.59 2.72 9.28 2.94 13.9.19 3.86-2.3 7.87-3.79 12.44-3.46a18.237 18.237 0 019.37 3.38 3.56 3.56 0 01.95 4.67h.02zM94.268 60a29.997 29.997 0 0027.793-18.416 30.003 30.003 0 00-6.386-32.723 29.995 29.995 0 00-32.677-6.615 30 30 0 00-18.61 27.664A29.909 29.909 0 0094.268 60zm9.84-49c1.29-2.19 3.22-2.92 5.19-2 2.18 1 2.8 2.93 1.53 5a14.262 14.262 0 00-2.11 8.56 14.483 14.483 0 002.43 6.69 18.065 18.065 0 012.06 15.4 24.356 24.356 0 01-2.71 5.37 3.28 3.28 0 01-4 1.16 3.81 3.81 0 01-2.51-3.62c.4-.86.73-1.76 1.21-2.58a10.83 10.83 0 00-.12-11.73 22.442 22.442 0 01-3.68-12.28 20.349 20.349 0 012.71-10.01V11zm-13.13-.7a3.59 3.59 0 013.38-1.62 3.4 3.4 0 013 5.14c-3.14 5.18-3 10.29.16 15.37a18.599 18.599 0 012.87 11.7 17.102 17.102 0 01-3.57 9.31 3.38 3.38 0 01-4.34.81 3.43 3.43 0 01-1.81-4.14 9.55 9.55 0 01.86-1.83 10.67 10.67 0 00.13-11.4c-1.87-3.29-3.56-6.61-3.82-10.47a19.76 19.76 0 013.14-12.91v.04zm-13-.06A3.6 3.6 0 0182.568 9a3.25 3.25 0 011.58 5.08 12.78 12.78 0 00-1.65 10.62 41.353 41.353 0 002.85 6 17.999 17.999 0 01-1.22 19 3.51 3.51 0 01-6.12-.14 5.52 5.52 0 01-.27-2.88 4.29 4.29 0 01.77-1.71 10.73 10.73 0 00.1-11.41c-1.4-2.55-3-5-3.43-8-.24-1.49-.38-3-.5-4 .19-4.41 1.03-8.12 3.33-11.36l-.03.04zm70.52 20.269h3.15a15.5 15.5 0 006.24-1.06 5.996 5.996 0 003.27-3 16.22 16.22 0 00.9-6.3v-3.97a30.334 30.334 0 00-.47-6.26 7.457 7.457 0 00-1.75-3.45 8.246 8.246 0 00-3.88-2.17 27.4 27.4 0 00-7.38-.76h-11.82v45.16h11.74v-18.19zm0-19.24c1.52 0 2.53.23 3 .7.47.47.73 1.46.73 3v3.73a5.801 5.801 0 01-.63 3.3 2.73 2.73 0 01-2.25.8h-.86l.01-11.53zm38.78 37.12a10.771 10.771 0 006.57-8.77c.214-1.887.32-5.1.32-9.64v-7.72a96.533 96.533 0 00-.33-9.77 10.862 10.862 0 00-6.74-8.71 17 17 0 00-6.51-1.19 16.752 16.752 0 00-6.7 1.26 10.77 10.77 0 00-6.56 8.77c-.22 1.89-.32 5.1-.32 9.64v7.72c-.054 3.26.056 6.52.33 9.77a10.818 10.818 0 006.74 8.71 17 17 0 006.51 1.19c2.294.05 4.572-.38 6.69-1.26zm-8.21-7.31a20.173 20.173 0 01-.33-4.85v-21.08c0-2.33.17-3.73.5-4.2a1.571 1.571 0 011.4-.71 1.392 1.392 0 011.44.87 14.16 14.16 0 01.35 4v20.79a21.712 21.712 0 01-.34 5 1.426 1.426 0 01-1.53 1.06 1.388 1.388 0 01-1.49-.88zm46.9 15.401h8.11V39.22h-2.39V3.51h-26v1.37a148.92 148.92 0 01-1.24 19.82 78.567 78.567 0 01-3.11 14.61h-2.4v17.21h8.09V48.7h19l-.06 7.78zm-6-17.26h-6.28a130.24 130.24 0 002.76-26.45v-.33h3.49l.03 26.78zm46.37 9.48V3.54h-11.74v16.15h-3.52V3.54h-11.75V48.7h11.75V29.73h3.52V48.7h11.74zm32.49 0V3.51h-9.82l-6.58 20.39V3.51h-9.82V48.7h10.29l6.11-20.56V48.7h9.82zm23.62-45.19c-1.19 1.14-1.83 3.33-1.9 6.59l-.22 8.81c-.08 2.4-1.22 3.63-3.44 3.68l-.05-19.08h-11.76V48.7h11.77l.05-19.13a3.526 3.526 0 012.656 1.055 3.538 3.538 0 011.004 2.675v8.82c0 3.25.63 5.45 1.9 6.58h10.85c-1.06-1.454-1.58-3.89-1.56-7.31l.05-7.19c.04-4.774-2.6-7.48-7.92-8.12 5.333-.667 7.973-3.334 7.92-8l-.05-7.75c0-3.44.52-5.71 1.56-6.81l-10.86-.01zm31.9 0l-6.58 20.39V3.51h-9.82V48.7h10.29l6.11-20.56V48.7h9.82V3.51h-9.82zm-192.9 72.45a8.278 8.278 0 00-3.88-2.17 27.81 27.81 0 00-7.38-.76h-11.82v45.159h11.75v-18.18h3.15c2.131.081 4.256-.28 6.24-1.06a6.088 6.088 0 003.27-3 16.259 16.259 0 00.9-6.3V85.7a30.404 30.404 0 00-.47-6.26 7.462 7.462 0 00-1.76-3.48zm-7.61 12.22a5.99 5.99 0 01-.62 3.31 2.728 2.728 0 01-2.25.79h-.86V80.76c1.52 0 2.53.23 3 .7.47.47.72 1.47.72 3l.01 3.72zm46.67-11.35a10.676 10.676 0 00-4.65-3.56 17.198 17.198 0 00-6.51-1.18 16.76 16.76 0 00-6.7 1.25 10.81 10.81 0 00-6.57 8.77c-.207 1.893-.313 5.106-.32 9.64v7.73a92.96 92.96 0 00.34 9.759 10.658 10.658 0 002.09 5.16 10.795 10.795 0 004.64 3.56 17.046 17.046 0 006.52 1.18c2.293.05 4.572-.379 6.69-1.26a10.767 10.767 0 006.57-8.77c.213-1.88.32-5.09.32-9.63v-7.73a92.694 92.694 0 00-.34-9.76 10.654 10.654 0 00-2.08-5.16zm-9.32 28.559a21.806 21.806 0 01-.34 5.05 1.425 1.425 0 01-1.53 1.06 1.398 1.398 0 01-1.49-.92 20.376 20.376 0 01-.32-4.85v-21.09c0-2.32.16-3.73.48-4.2a1.62 1.62 0 011.46-.74 1.378 1.378 0 011.44.88c.308 1.31.426 2.657.35 4l-.05 20.81zm46.79-31.299a18.89 18.89 0 00-15.32-.71 11.137 11.137 0 00-4.61 3.56 10.289 10.289 0 00-2 4.7 57.732 57.732 0 00-.33 7.32v13.2a34.234 34.234 0 001.08 9.94 9.102 9.102 0 004.44 5.17 17.238 17.238 0 008.5 1.87c2.943.1 5.851-.669 8.36-2.21a10.173 10.173 0 004.38-5.14c.65-2 1-5.27 1-9.94v-1.76h-11.75v5.68a16.467 16.467 0 01-.4 4.72 2 2 0 01-3.47 0 14.61 14.61 0 01-.39-4.29v-21c-.083-1.498.048-3 .39-4.46a1.726 1.726 0 011.84-1 1.62 1.62 0 011.66.85 14.17 14.17 0 01.37 4.27v7.84h11.72v-4.29a30.286 30.286 0 00-1.06-9.32 9.676 9.676 0 00-4.41-5zm40.33 0a18.91 18.91 0 00-15.33-.71 11.168 11.168 0 00-4.6 3.56 10.289 10.289 0 00-2 4.7 59.657 59.657 0 00-.33 7.32v13.2a34.196 34.196 0 001.08 9.94 9.102 9.102 0 004.44 5.17 17.233 17.233 0 008.51 1.87c2.94.098 5.844-.67 8.35-2.21a10.138 10.138 0 004.38-5.14c.66-2 1-5.27 1-9.94v-1.76h-11.75v5.68a16.464 16.464 0 01-.4 4.72 1.649 1.649 0 01-1.71 1 1.669 1.669 0 01-1.76-1 14.607 14.607 0 01-.39-4.29v-21c-.083-1.498.048-3 .39-4.46a1.726 1.726 0 011.84-1 1.612 1.612 0 011.66.85 14.17 14.17 0 01.37 4.27v7.84h11.75v-4.29a30.287 30.287 0 00-1.06-9.32 9.68 9.68 0 00-4.44-5zm28.23 19.3V73.01h-9.82v45.18h10.29l6.11-20.55v20.55h9.82V73.01h-9.82l-6.58 20.38zm39.61 0V73.01h-9.82v45.18h10.29l6.11-20.55v20.55h9.82V73.01h-9.82l-6.58 20.38z"/><path fill-rule="evenodd" clip-rule="evenodd" d="M30.608.3a30.07 30.07 0 1029.53 30.4C60.298 14.2 46.918.43 30.608.3zm-3.6 48.24a2.749 2.749 0 01-1.87 1.83 3.777 3.777 0 01-.48.14l-.52.1-.45.07a13.4 13.4 0 01-1.66.2h-1.05a19.309 19.309 0 01-8.53-2.18 17.402 17.402 0 01-2.23-1.41 3 3 0 01-1.22-1.62 2.73 2.73 0 01-.11-1.15 3.44 3.44 0 015.12-3.19c.71.34 1.39.77 2.11 1.11a10.9 10.9 0 006.43 1.07h1.09a3.74 3.74 0 012.46.78 3.52 3.52 0 01.91 4.25zm0-15.26a2.749 2.749 0 01-1.87 1.83 3.777 3.777 0 01-.48.14l-.52.1-.45.08c-.55.093-1.104.156-1.66.19h-1.05a19.438 19.438 0 01-8.53-2.18 17.402 17.402 0 01-2.23-1.41 3 3 0 01-1.22-1.62 2.73 2.73 0 01-.11-1.15 3.45 3.45 0 015.12-3.19c.71.34 1.39.77 2.11 1.12a10.819 10.819 0 006.43 1.06h1.09a3.79 3.79 0 012.46.78 3.52 3.52 0 01.91 4.25zm0-13.5a2.73 2.73 0 01-1.87 1.83c-.156.06-.317.11-.48.15l-.52.09-.45.08c-.55.093-1.104.156-1.66.19h-1.05a19.29 19.29 0 01-8.53-2.17 18.665 18.665 0 01-2.23-1.42 3 3 0 01-1.22-1.62 2.68 2.68 0 01-.11-1.14 3.45 3.45 0 015.12-3.2c.71.35 1.39.77 2.11 1.12a10.819 10.819 0 006.43 1.06h1.09a3.79 3.79 0 012.46.78 3.52 3.52 0 01.91 4.25zm24.64 26.26a3.45 3.45 0 01-5.12 3.2c-.72-.35-1.4-.77-2.12-1.12a10.8 10.8 0 00-6.42-1.06h-1.1a3.7 3.7 0 01-2.45-.79 3.49 3.49 0 01-.89-4.24 2.68 2.68 0 011.9-1.83c.16-.062.323-.112.49-.15l.52-.09.45-.08a13.253 13.253 0 011.65-.19c.093.005.187.005.28 0h.76c2.968.052 5.883.788 8.52 2.15.78.417 1.53.892 2.24 1.42a3 3 0 011.22 1.62c.108.377.132.773.07 1.16zm0-15.26a3.45 3.45 0 01-5.12 3.2c-.72-.35-1.4-.77-2.12-1.12a10.8 10.8 0 00-6.42-1.06h-1.1a3.75 3.75 0 01-2.45-.78 3.49 3.49 0 01-.89-4.24 2.69 2.69 0 011.9-1.84c.16 0 .31-.11.49-.15l.51-.09.45-.08a15.438 15.438 0 011.65-.19h1.04a19.31 19.31 0 018.52 2.16c.783.41 1.532.882 2.24 1.41a3 3 0 011.22 1.62c.111.376.139.772.08 1.16zm0-13.49a3.45 3.45 0 01-5.12 3.19c-.72-.35-1.4-.77-2.12-1.11a10.73 10.73 0 00-6.42-1.07h-1.1a3.69 3.69 0 01-2.45-.78 3.49 3.49 0 01-.89-4.24 2.711 2.711 0 011.9-1.84c.16-.059.324-.106.49-.14.17 0 .34-.06.52-.09l.45-.09a15.442 15.442 0 011.65-.19h1.04c2.968.06 5.882.8 8.52 2.16.783.41 1.532.882 2.24 1.41a3 3 0 011.22 1.62c.108.38.132.78.07 1.17z"/><path fill-rule="evenodd" clip-rule="evenodd" d="M30.148 63.809a30 30 0 1029.91 30.22 29.913 29.913 0 00-29.91-30.22zm-18.27 24.68a3.35 3.35 0 01-.14-.48c0-.17-.06-.35-.09-.52-.03-.17-.06-.3-.08-.45a11.557 11.557 0 01-.19-1.66 2.432 2.432 0 010-.27v-.77a19.38 19.38 0 012.16-8.51c.41-.783.882-1.532 1.41-2.24a3 3 0 011.62-1.22 2.73 2.73 0 011.15-.11 3.44 3.44 0 013.19 5.12c-.34.71-.77 1.39-1.11 2.11a10.76 10.76 0 00-1.07 6.43v1.09a3.72 3.72 0 01-.78 2.46 3.52 3.52 0 01-4.24.89 2.75 2.75 0 01-1.83-1.87zm10.68 13.66v.77a19.263 19.263 0 01-2.15 8.51c-.418.78-.892 1.529-1.42 2.24a3.005 3.005 0 01-1.62 1.22c-.368.113-.756.15-1.14.11a3.451 3.451 0 01-3.2-5.12c.35-.72.77-1.4 1.12-2.11a10.84 10.84 0 001.06-6.43v-1.1a3.7 3.7 0 01.79-2.45 3.49 3.49 0 014.23-.89 2.71 2.71 0 011.83 1.86c0 .16.11.32.15.49.04.17.05.34.09.52.04.18.05.3.08.45.093.546.157 1.097.19 1.65a2.61 2.61 0 00-.01.28zm12.89 2.3a17.193 17.193 0 01-3.58 9.31 3.398 3.398 0 01-4.34.82 3.448 3.448 0 01-1.81-4.15c.227-.633.515-1.243.86-1.82a10.692 10.692 0 00.13-11.41c-1.87-3.28-3.56-6.6-3.82-10.47a19.77 19.77 0 013.18-12.87 3.62 3.62 0 013.39-1.62 3.4 3.4 0 012.95 5.14c-3.14 5.19-3 10.3.16 15.38a18.56 18.56 0 012.88 11.69zm1.2-16a3.35 3.35 0 01-.14-.48c0-.17-.06-.35-.1-.52-.04-.17 0-.3-.08-.45a15.316 15.316 0 01-.19-1.66v-1.04a19.24 19.24 0 012.16-8.51c.41-.783.882-1.532 1.41-2.24a3 3 0 011.62-1.22 2.73 2.73 0 011.15-.11 3.451 3.451 0 013.19 5.12c-.35.71-.77 1.39-1.11 2.11a10.76 10.76 0 00-1.07 6.43v1.09a3.78 3.78 0 01-.78 2.46 3.52 3.52 0 01-4.24.89 2.729 2.729 0 01-1.82-1.83v-.04zm10.67 13.66v.77a19.53 19.53 0 01-2.15 8.51 18.07 18.07 0 01-1.42 2.24 3.006 3.006 0 01-1.62 1.22 2.905 2.905 0 01-1.15.11 3.45 3.45 0 01-3.19-5.12c.35-.72.77-1.4 1.12-2.11a10.842 10.842 0 001.06-6.43v-1.1a3.75 3.75 0 01.78-2.45 3.5 3.5 0 014.24-.89 2.71 2.71 0 011.83 1.86c.05.16.11.32.15.49.04.17.05.34.09.52.04.18.05.3.08.45.093.546.157 1.097.19 1.65 0 .14-.01.22-.01.32v-.04z"/><path d="M94.728 63.279c-16.51-.16-30.28 13.21-30.41 29.53a30.07 30.07 0 1030.41-29.53zm2.61 13.25a2.71 2.71 0 011.86-1.83c.16-.059.324-.105.49-.14l.52-.1.45-.08a14.844 14.844 0 011.65-.19h1.04c2.968.06 5.882.8 8.52 2.16.781.413 1.53.884 2.24 1.41a2.996 2.996 0 011.22 1.62c.115.372.149.764.1 1.15a3.435 3.435 0 01-1.615 3.11 3.442 3.442 0 01-3.505.08c-.71-.34-1.39-.77-2.11-1.12a10.9 10.9 0 00-6.43-1.06h-1.09a3.75 3.75 0 01-2.45-.78 3.49 3.49 0 01-.89-4.23zm-24.64 2.5a3.45 3.45 0 015.12-3.2c.71.35 1.39.77 2.11 1.12a10.82 10.82 0 006.43 1.06h1.09a3.79 3.79 0 012.46.78 3.5 3.5 0 01.88 4.24 2.69 2.69 0 01-1.86 1.83c-.16.05-.32.11-.48.15l-.52.09-.45.08c-.55.092-1.104.156-1.66.19h-1.05a19.311 19.311 0 01-8.51-2.16 18.243 18.243 0 01-2.24-1.41 3 3 0 01-1.22-1.62 2.699 2.699 0 01-.1-1.15zm18.09 30.67a2.686 2.686 0 01-1.86 1.83l-.48.17-.52.08c-.15 0-.31.06-.45.09-.55.092-1.104.156-1.66.19h-1.05a19.308 19.308 0 01-8.51-2.16 18.291 18.291 0 01-2.24-1.41 3 3 0 01-1.22-1.62 2.731 2.731 0 01-.1-1.15 3.449 3.449 0 015.12-3.19c.71.35 1.39.77 2.11 1.11a10.757 10.757 0 006.43 1.07h1.09a3.787 3.787 0 012.46.78 3.496 3.496 0 01.88 4.21zm24.66-2.51a3.448 3.448 0 01-3.358 3.622 3.452 3.452 0 01-1.762-.432c-.71-.35-1.39-.77-2.11-1.12a10.815 10.815 0 00-6.43-1.06h-1.09a3.752 3.752 0 01-2.45-.78 3.49 3.49 0 01-.89-4.24 2.712 2.712 0 011.86-1.83c.16 0 .31-.11.49-.15l.52-.09.45-.08a14.75 14.75 0 011.65-.19h1.04c2.967.056 5.882.792 8.52 2.15.779.42 1.528.894 2.24 1.42a2.997 2.997 0 011.22 1.62c.117.375.151.77.1 1.16zm-.38-13.29a3.418 3.418 0 01-4.44 1.57 25.046 25.046 0 01-2.24-1.15 10.56 10.56 0 00-9.51-.29c-1.54.67-3 1.63-4.46 2.37a20.17 20.17 0 01-18.6-.23c-1.62-.8-3.08-1.82-3-4a3.89 3.89 0 012-3.44c1.26-.7 2.41-.31 3.57.39 4.59 2.72 9.28 2.94 13.9.19 3.86-2.3 7.87-3.79 12.44-3.46a18.237 18.237 0 019.37 3.38 3.56 3.56 0 01.95 4.67h.02zM94.268 60a29.997 29.997 0 0027.793-18.416 30.003 30.003 0 00-6.386-32.723 29.995 29.995 0 00-32.677-6.615 30 30 0 00-18.61 27.664A29.909 29.909 0 0094.268 60zm9.84-49c1.29-2.19 3.22-2.92 5.19-2 2.18 1 2.8 2.93 1.53 5a14.262 14.262 0 00-2.11 8.56 14.483 14.483 0 002.43 6.69 18.065 18.065 0 012.06 15.4 24.356 24.356 0 01-2.71 5.37 3.28 3.28 0 01-4 1.16 3.81 3.81 0 01-2.51-3.62c.4-.86.73-1.76 1.21-2.58a10.83 10.83 0 00-.12-11.73 22.442 22.442 0 01-3.68-12.28 20.349 20.349 0 012.71-10.01V11zm-13.13-.7a3.59 3.59 0 013.38-1.62 3.4 3.4 0 013 5.14c-3.14 5.18-3 10.29.16 15.37a18.599 18.599 0 012.87 11.7 17.102 17.102 0 01-3.57 9.31 3.38 3.38 0 01-4.34.81 3.43 3.43 0 01-1.81-4.14 9.55 9.55 0 01.86-1.83 10.67 10.67 0 00.13-11.4c-1.87-3.29-3.56-6.61-3.82-10.47a19.76 19.76 0 013.14-12.91v.04zm-13-.06A3.6 3.6 0 0182.568 9a3.25 3.25 0 011.58 5.08 12.78 12.78 0 00-1.65 10.62 41.353 41.353 0 002.85 6 17.999 17.999 0 01-1.22 19 3.51 3.51 0 01-6.12-.14 5.52 5.52 0 01-.27-2.88 4.29 4.29 0 01.77-1.71 10.73 10.73 0 00.1-11.41c-1.4-2.55-3-5-3.43-8-.24-1.49-.38-3-.5-4 .19-4.41 1.03-8.12 3.33-11.36l-.03.04z"/></g><defs><clipPath id="clip0"><path fill="#fff" d="M0 0h364.168v123.809H0z"/></clipPath></defs></svg>