<svg viewBox="0 0 30 30" xmlns="http://www.w3.org/2000/svg" xmlns:xlink="http://www.w3.org/1999/xlink"><style>:root&gt;svg{display:none}:root&gt;svg:target{display:block}</style><svg fill="none" viewBox="0 0 30 30" id="icon-facebook" xmlns="http://www.w3.org/2000/svg"><path d="M16.68 26.25v-9.9H20l.5-3.85h-3.82v-2.47c0-1.1.3-1.87 1.9-1.87h2V4.7a29.33 29.33 0 00-3-.15c-3 0-5 1.8-5 5.1v2.85H9.25v3.85h3.34v9.9h4.1z" fill="#fff"/></svg><svg fill="#fff" viewBox="0 0 30 30" id="icon-instagram" xmlns="http://www.w3.org/2000/svg"><path d="M18.56 7.78a5 5 0 011.64.3 2.94 2.94 0 011.67 1.67 5 5 0 01.3 1.64l.05 3.56-.05 3.55a5 5 0 01-.3 1.64 2.94 2.94 0 01-1.67 1.67 5 5 0 01-1.64.3h-7.1a5 5 0 01-1.63-.2 2.94 2.94 0 01-1.67-1.67 4.71 4.71 0 01-.3-1.64l-.06-3.55.06-3.56a4.71 4.71 0 01.3-1.64 2.94 2.94 0 011.67-1.67 5 5 0 011.64-.3l7.1-.1zm-7.18-1.5a6.93 6.93 0 00-2.14.41 4.48 4.48 0 00-1.56 1 4.36 4.36 0 00-1 1.56 6.33 6.33 0 00-.41 2.14v7.25a6.33 6.33 0 00.41 2.14 4.36 4.36 0 001 1.56 4.48 4.48 0 001.56 1 6.65 6.65 0 002.14.41h7.26a6.59 6.59 0 002.14-.41 4.55 4.55 0 002.58-2.58 6.87 6.87 0 00.41-2.14v-7.25a6.87 6.87 0 00-.41-2.14 4.55 4.55 0 00-2.58-2.58 6.87 6.87 0 00-2.14-.41l-7.26.04zm3.62 4.2a4.53 4.53 0 00-3.216 7.729 4.53 4.53 0 007.737-3.2 4.53 4.53 0 00-4.52-4.53zm0 7.46a2.94 2.94 0 01-2.075-5.022A2.94 2.94 0 0117.94 15 2.93 2.93 0 0115 17.91v.02zm5.76-7.64a1.06 1.06 0 01-1.786.831A1.06 1.06 0 0119.7 9.29a1.05 1.05 0 011.06 1z"/></svg><svg fill="none" viewBox="0 0 30 30" id="icon-knr" xmlns="http://www.w3.org/2000/svg"><path d="M30 5H0v20h30V5z" fill="#de2910"/><path d="M5 7l1.763 5.427-4.617-3.354h5.706l-4.617 3.354L5 7zm5.4-.92l-.167 1.895-.98-1.63 1.75.744-1.854.427 1.25-1.435zm2.328 2.224l-.9 1.68-.27-1.883 1.324 1.365L11 9.14l1.708-.838zm.222 3.353l-1.498 1.172.523-1.83.652 1.787-1.578-1.062 1.9-.068zm-2.587 1.407l-.088 1.9-1.045-1.6 1.78.67-1.834.503 1.188-1.485z" fill="#ffde00"/></svg><svg fill="none" viewBox="0 0 30 30" id="icon-rus" xmlns="http://www.w3.org/2000/svg"><path d="M30 5H0v10h30V5z" fill="#fff"/><path d="M30 15H0v10h30V15z" fill="#d52b1e"/><path d="M30 11.666H0v6.667h30v-6.667z" fill="#0039a6"/></svg><svg fill="none" viewBox="0 0 30 30" id="icon-search" xmlns="http://www.w3.org/2000/svg"><path d="M18.6 18.78L27 28.5m-4.5-17.24a9.25 9.25 0 00-5.706-8.554A9.25 9.25 0 006.709 4.709a9.25 9.25 0 00-2.003 10.085A9.25 9.25 0 0013.26 20.5a9.25 9.25 0 009.24-9.24z" stroke="#005a98" stroke-width="4" stroke-miterlimit="10"/></svg><svg fill="none" viewBox="0 0 30 30" id="icon-usa" xmlns="http://www.w3.org/2000/svg"><g clip-path="url(#fA)"><path d="M30 5H0v20h30V5z" fill="#fff"/><path d="M30 5H0v1.538h30V5zm0 3.076H0v1.538h30V8.076zm0 3.078H0v1.54h30v-1.54zm0 3.076H0v1.538h30V14.23zm0 3.08H0v1.54h30V17.3zm0 3.075H0v1.538h30v-1.538zm0 3.075H0V25h30v-1.54z" fill="#bf0a30"/><path d="M15.2 5H0v10.77h15.2V5z" fill="#002868"/><g fill="#fff"><use xlink:href="#fB"/><path d="M3.822 5.45l-.138.425h-.45l.363.265-.138.425.363-.265.36.265-.138-.425.363-.265h-.45l-.135-.425z"/><use xlink:href="#fC"/><path d="M8.862 5.45l-.138.425h-.45l.363.265-.138.425.363-.265.36.265-.138-.425.363-.265h-.45l-.135-.425z"/><use xlink:href="#fD"/><path d="M13.677 6.14l-.14.425.363-.265.36.265-.14-.425.363-.265h-.45l-.135-.425-.14.425h-.45l.363.265z"/><use xlink:href="#fE"/><path d="M5.08 6.532l-.138.425h-.446l.36.265-.138.425.363-.265.363.265-.138-.425.36-.265H5.22l-.138-.425zm2.52 0l-.138.425h-.446l.36.265-.138.425.363-.265.363.265-.138-.425.36-.265H7.74l-.14-.425zm2.52 0l-.138.425h-.446l.36.265-.138.425.363-.265.363.265-.138-.425.36-.265h-.446l-.138-.425zm2.52 0l-.14.425h-.446l.36.265-.138.425.363-.265.363.265-.138-.425.36-.265h-.446l-.138-.425zM1.302 7.612l-.138.425h-.45l.363.265-.138.425.363-.265.36.265-.138-.425.363-.265h-.45l-.135-.425zm2.52 0l-.138.425h-.45l.363.265-.138.425.363-.265.36.265-.138-.425.363-.265h-.45l-.135-.425zm2.516 0l-.135.425h-.45l.363.265-.138.425.36-.265.363.265-.138-.425.363-.265h-.45l-.138-.425zm2.524 0l-.138.425h-.45l.363.265-.138.425.363-.265.36.265-.138-.425.363-.265h-.45l-.135-.425zm2.516 0l-.135.425h-.45l.363.265-.14.425.363-.265.36.265-.14-.425.363-.265h-.45l-.14-.425z"/><use xlink:href="#fF"/><path d="M2.56 8.7l-.138.425h-.446l.36.265-.138.425.363-.265.363.265-.138-.425.36-.265H2.7L2.56 8.7zm2.52 0l-.138.425h-.446l.36.265-.138.425.363-.265.363.265-.138-.425.36-.265H5.22L5.08 8.7zm2.52 0l-.138.425h-.446l.36.265-.138.425.363-.265.363.265-.138-.425.36-.265H7.74L7.6 8.7zm2.52 0l-.138.425h-.446l.36.265-.138.425.363-.265.363.265-.138-.425.36-.265h-.446l-.14-.425zm2.52 0l-.14.425h-.446l.36.265-.138.425.363-.265.363.265-.138-.425.36-.265h-.446L12.64 8.7zM1.302 9.77l-.138.425h-.45l.363.265-.138.425.363-.265.36.265-.138-.425.363-.265h-.45l-.135-.425zm2.52 0l-.138.425h-.45l.363.265-.138.425.363-.265.36.265-.138-.425.363-.265h-.45l-.135-.425zm2.516 0l-.135.425h-.45l.363.265-.138.425.36-.265.363.265-.138-.425.363-.265h-.45l-.138-.425zm2.524 0l-.138.425h-.45l.363.265-.138.425.363-.265.36.265-.138-.425.363-.265h-.45l-.135-.425zm2.516 0l-.135.425h-.45l.363.265-.14.425.363-.265.36.265-.14-.425.363-.265h-.45l-.14-.425zm2.524 0l-.14.425h-.45l.363.265-.14.425.363-.265.36.265-.14-.425.363-.265h-.45l-.135-.425zM2.56 10.85l-.138.425h-.446l.363.262-.138.425.363-.262.363.262-.138-.425.363-.262H2.7l-.138-.425z"/><use xlink:href="#fG"/><path d="M7.6 10.85l-.138.425h-.446l.363.262-.138.425.363-.262.363.262-.138-.425.363-.262h-.446L7.6 10.85zm2.52 0l-.138.425h-.446l.363.262-.138.425.363-.262.363.262-.138-.425.363-.262h-.446l-.145-.425zm2.52 0l-.14.425h-.446l.363.262-.138.425.363-.262.363.262-.138-.425.363-.262h-.446l-.145-.425zM1.302 11.93l-.138.425h-.45l.363.265-.138.425.363-.265.36.265-.138-.425.363-.265h-.45l-.135-.425zm2.52 0l-.138.425h-.45l.363.265-.138.425.363-.265.36.265-.138-.425.363-.265h-.45l-.135-.425zm2.516 0l-.135.425h-.45l.363.265-.138.425.36-.265.363.265-.138-.425.363-.265h-.45l-.138-.425zm2.524 0l-.138.425h-.45l.363.265-.138.425.363-.265.36.265-.138-.425.363-.265h-.45l-.135-.425zm2.516 0l-.135.425h-.45l.363.265-.14.425.363-.265.36.265-.14-.425.363-.265h-.45l-.14-.425zm2.524 0l-.14.425h-.45l.363.265-.14.425.363-.265.36.265-.14-.425.363-.265h-.45l-.135-.425z"/><use xlink:href="#fH"/><path d="M5.218 13.437l-.138-.425-.138.425h-.446l.36.265-.138.425.363-.265.363.265-.138-.425.36-.265H5.22zm2.52 0l-.138-.425-.138.425h-.446l.36.265-.138.425.363-.265.363.265-.138-.425.36-.265H7.74zm2.52 0l-.138-.425-.138.425h-.446l.36.265-.138.425.363-.265.363.265-.138-.425.36-.265h-.446zm2.52 0l-.138-.425-.14.425h-.446l.36.265-.138.425.363-.265.363.265-.138-.425.36-.265h-.446z"/><use xlink:href="#fI"/><path d="M3.957 14.515l-.135-.425-.138.425h-.45l.363.265-.138.425.363-.265.36.265-.138-.425.363-.265h-.45zm2.52 0L6.34 14.1l-.135.425h-.45l.363.265-.138.425.36-.265.363.265-.138-.425.363-.265h-.45zm2.52 0l-.135-.425-.138.425h-.45l.363.265-.138.425.363-.265.36.265-.138-.425.363-.265h-.45zm2.52 0l-.14-.425-.135.425h-.45l.363.265-.14.425.363-.265.36.265-.14-.425.363-.265h-.45zm2.52 0l-.135-.425-.14.425h-.45l.363.265-.14.425.363-.265.36.265-.14-.425.363-.265h-.45z"/></g></g><defs><path id="fB" d="M1.302 5.45l-.138.425h-.45l.363.265-.138.425.363-.265.36.265-.138-.425.363-.265h-.45l-.135-.425z"/><path id="fC" d="M6.338 5.45l-.135.425h-.45l.363.265-.138.425.36-.265.363.265-.138-.425.363-.265h-.45l-.138-.425z"/><path id="fD" d="M11.378 5.45l-.135.425h-.45l.363.265-.14.425.363-.265.36.265-.14-.425.363-.265h-.45l-.14-.425z"/><path id="fE" d="M2.56 6.532l-.138.425h-.446l.36.265-.138.425.363-.265.363.265-.138-.425.36-.265H2.7l-.138-.425z"/><path id="fF" d="M13.902 7.612l-.14.425h-.45l.363.265-.14.425.363-.265.36.265-.14-.425.363-.265h-.45l-.135-.425z"/><path id="fG" d="M5.08 10.85l-.138.425h-.446l.363.262-.138.425.363-.262.363.262-.138-.425.363-.262h-.446l-.145-.425z"/><path id="fH" d="M2.698 13.437l-.138-.425-.138.425h-.446l.36.265-.138.425.363-.265.363.265-.138-.425.36-.265H2.7z"/><path id="fI" d="M1.437 14.515l-.135-.425-.138.425h-.45l.363.265-.138.425.363-.265.36.265-.138-.425.363-.265h-.45z"/><clipPath id="fA"><path fill="#fff" d="M0 0h30v30H0z"/></clipPath></defs></svg><svg fill="none" viewBox="0 0 30 30" id="icon-vk" xmlns="http://www.w3.org/2000/svg"><path fill-rule="evenodd" d="M14.76 21.81h1.35a1.2 1.2 0 00.62-.27 1 1 0 00.19-.6s0-1.8.8-2.08 1.9 1.76 3 2.53a2.15 2.15 0 001.51.46h3s1.6-.1.84-1.34a10.45 10.45 0 00-2.25-2.6c-1.9-1.77-1.65-1.48.64-4.53 1.4-1.85 2-3 1.77-3.47s-1.2-.34-1.2-.34h-3.4a.8.8 0 00-.44.08.88.88 0 00-.3.37c-.354.913-.775 1.8-1.26 2.65-1.52 2.58-2.12 2.7-2.37 2.55-.58-.37-.43-1.5-.43-2.3 0-2.5.37-3.54-.74-3.8a5.77 5.77 0 00-1.59-.16 7.53 7.53 0 00-2.83.29c-.38.2-.68.62-.5.64a1.58 1.58 0 011 .5 3.41 3.41 0 01.33 1.55s.2 2.93-.47 3.3c-.46.25-1.1-.26-2.44-2.6a19.366 19.366 0 01-1.2-2.52 1.07 1.07 0 00-.28-.38 1.42 1.42 0 00-.53-.21H4.36a1.15 1.15 0 00-.67.23c-.16.2 0 .57 0 .57s2.53 5.93 5.4 8.92a7.77 7.77 0 005.62 2.56h.05z" fill="#fff"/></svg><svg fill="none" viewBox="0 0 30 30" id="icon-youtube" xmlns="http://www.w3.org/2000/svg"><path d="M24.27 10.65a2.39 2.39 0 00-2-1.86 96.8 96.8 0 00-14.18 0 2.39 2.39 0 00-2 1.86 20.32 20.32 0 00-.34 4.48 20.23 20.23 0 00.33 4.47 2.4 2.4 0 002.05 1.86 96.57 96.57 0 0014.17 0 2.39 2.39 0 002-1.86c.275-1.473.386-2.972.33-4.47a20.32 20.32 0 00-.36-4.48zm-11.12 7.06v-5.25l5 2.62-5 2.63z" fill="#fff"/></svg></svg>