<svg width="100" height="101" viewBox="0 0 100 101" fill="none" xmlns="http://www.w3.org/2000/svg">
<g clip-path="url(#clip0)">
<path fill-rule="evenodd" clip-rule="evenodd" d="M68.303 0.00195312C68.838 0.177953 69.3981 0.299156 69.9041 0.535156C72.0921 1.55816 73.266 3.9411 72.767 6.2771C72.263 8.6461 70.216 10.3551 67.801 10.4221C67.432 10.4321 67.063 10.4221 66.621 10.4221C66.621 10.6721 66.621 10.861 66.621 11.051C66.621 18.334 66.617 25.6171 66.634 32.9011C66.635 33.2121 66.7631 33.565 66.9401 33.823C76.1981 47.313 84.498 61.3681 91.701 76.0591C93.747 80.2311 95.572 84.512 97.546 88.719C98.001 89.69 97.875 90.6292 97.682 91.5762C96.662 96.5602 92.4831 99.978 87.3781 99.98C68.6361 99.99 49.893 99.9861 31.151 99.9861C30.999 99.9861 30.845 99.9861 30.642 99.9861C31.216 99.2071 31.777 98.5041 32.274 97.7571C34.391 94.5751 35.373 91.0582 35.371 87.2432C35.364 73.6692 35.369 60.0972 35.381 46.5242C35.381 46.2602 35.465 45.958 35.61 45.739C38.212 41.755 40.832 37.7821 43.432 33.7981C43.595 33.5481 43.7051 33.2142 43.7061 32.9192C43.7211 25.6362 43.718 18.3511 43.718 11.0671C43.718 10.8761 43.718 10.6861 43.718 10.4221C42.842 10.4221 42.029 10.4362 41.219 10.4202C39.059 10.3772 37.168 9.04097 36.422 7.04297C35.291 4.01797 37.123 0.744004 40.304 0.104004C40.402 0.0840039 40.495 0.036 40.59 0C49.827 0.002 59.065 0.00195312 68.303 0.00195312ZM37.749 54.1602C38.087 54.1602 38.327 54.1602 38.568 54.1602C47.254 54.1602 55.939 54.1641 64.625 54.1501C65.036 54.1501 65.253 54.2692 65.449 54.6382C67.535 58.5542 69.642 62.4582 71.743 66.3672C75.499 73.3552 79.249 80.346 83.01 87.332C83.943 89.062 85.797 89.6681 87.38 88.7891C88.96 87.9121 89.43 86.0762 88.512 84.3672C87.227 81.9742 85.944 79.582 84.658 77.189C80.635 69.701 76.609 62.2102 72.587 54.7222C72.504 54.5682 72.3451 54.2981 72.3881 54.2571C72.7141 53.9481 72.398 53.7411 72.286 53.5361C69.114 47.6651 65.929 41.8 62.765 35.925C62.582 35.585 62.481 35.157 62.481 34.771C62.464 26.919 62.4671 19.068 62.4661 11.218C62.4661 10.976 62.4661 10.7321 62.4661 10.4741C57.5771 10.4741 52.758 10.4741 47.891 10.4741C47.891 10.7081 47.891 10.9 47.891 11.093C47.892 19.015 47.8961 26.9371 47.8831 34.8591C47.8831 35.1951 47.795 35.568 47.637 35.863C44.926 40.894 42.197 45.9162 39.474 50.9412C38.911 51.9812 38.357 53.0262 37.749 54.1602Z" fill="#44C8F5"/>
<path fill-rule="evenodd" clip-rule="evenodd" d="M2.00195 21.7482C2.05395 21.4532 2.09398 21.1542 2.15698 20.8632C2.72198 18.2752 4.78101 16.6682 7.56201 16.6642C13.921 16.6602 20.281 16.6621 26.64 16.6681C27.99 16.6681 29.343 16.6352 30.687 16.7292C33.139 16.9052 35.119 18.9073 35.359 21.3583C35.603 23.8233 34.018 26.1802 31.656 26.8642C31.506 26.9092 31.3551 26.9562 31.2161 26.9972C31.2161 35.0342 31.2161 43.0422 31.2161 51.0522C31.2161 63.0772 31.219 75.1033 31.215 87.1283C31.214 92.0713 29.113 95.8843 24.847 98.3603C17.334 102.721 7.599 97.9522 6.37 89.3622C6.25 88.5222 6.21106 87.6653 6.21106 86.8153C6.20206 73.0303 6.20701 59.2473 6.20801 45.4633C6.20801 39.5123 6.204 33.5612 6.203 27.6112C6.203 27.4182 6.203 27.2262 6.203 27.1562C5.397 26.6952 4.57601 26.3403 3.89001 25.8083C2.80801 24.9683 2.24106 23.7903 2.09106 22.4213C2.07406 22.2653 2.031 22.1121 2 21.9601C2.002 21.8911 2.00195 21.8192 2.00195 21.7482ZM12.4611 49.9323C12.4611 50.1883 12.4611 50.3643 12.4611 50.5373C12.4611 57.8913 12.46 65.2443 12.459 72.5983C12.459 75.7953 12.445 78.9933 12.465 82.1903C12.478 84.4153 14.4931 85.9133 16.5391 85.2533C17.9311 84.8063 18.719 83.6182 18.719 81.9562C18.721 71.5302 18.7209 61.1022 18.7209 50.6772C18.7209 50.4502 18.7209 50.2242 18.7209 49.9132C21.5129 49.9132 24.251 49.9132 27.007 49.9132C27.02 49.7272 27.033 49.6242 27.033 49.5202C27.032 42.2192 27.0261 34.9203 27.0391 27.6203C27.0401 27.1533 26.874 27.0712 26.454 27.0732C21.266 27.0852 16.081 27.0792 10.894 27.0812C10.706 27.0812 10.516 27.0972 10.323 27.1042C10.323 34.7352 10.323 42.3073 10.323 49.9323C11.034 49.9323 11.7031 49.9323 12.4611 49.9323Z" fill="#44C8F5"/>
</g>
<defs>
<clipPath id="clip0">
<rect width="100" height="100.003" fill="white"/>
</clipPath>
</defs>
</svg>
