<svg width="100" height="100" viewBox="0 0 100 100" fill="none" xmlns="http://www.w3.org/2000/svg">
<path fill-rule="evenodd" clip-rule="evenodd" d="M50.837 0.000976562C51.915 0.252977 53.033 0.39917 54.066 0.77417C59.208 2.64117 62.405 6.29407 63.291 11.6741C64.183 17.0981 62.346 21.6562 57.977 25.0242C56.5 26.1652 54.739 26.936 53.1 27.864C43.44 33.325 33.778 38.7822 24.116 44.2412C23.975 44.3192 23.829 44.3892 23.652 44.4812C22.162 42.5652 20.684 40.6631 19.171 38.7131C19.373 38.5761 19.545 38.457 19.721 38.342C22.315 36.653 23.527 33.772 22.916 30.74C22.291 27.64 20.05 25.3451 17.009 24.8511C13.987 24.3611 11.514 25.4411 9.71899 27.8821C7.88499 30.3761 7.86898 33.0851 9.34998 35.7261C10.13 37.1191 11.18 38.3671 12.17 39.6301C21.578 51.6381 30.986 63.6462 40.429 75.6282C42.214 77.8922 43.475 80.3471 43.881 83.2141C43.95 83.7021 43.991 84.1931 44.053 84.7551C44.222 84.6651 44.362 84.6032 44.491 84.5232C53.629 78.7532 62.771 72.9921 71.897 67.2051C74.203 65.7441 75.512 63.6661 75.416 60.8591C75.364 59.3451 74.762 58.0272 73.815 56.8572C73.209 56.1072 72.599 55.3592 71.935 54.5432C72.479 54.4342 72.934 54.338 73.39 54.25C75.287 53.875 77.081 53.2091 78.786 52.3071C79.162 52.1101 79.369 52.1252 79.637 52.4832C81.987 55.6142 83.173 59.0982 82.639 63.0142C82.051 67.3252 79.915 70.7521 76.226 73.0901C63.236 81.3201 50.224 89.5142 37.212 97.7112C28.138 103.428 16.684 97.7812 14.894 88.0452C13.849 82.3562 16.339 76.244 21.177 73.104C21.222 73.075 21.275 73.0572 21.385 73.0022C22.859 74.8952 24.337 76.7911 25.844 78.7251C25.669 78.8441 25.528 78.9481 25.38 79.0391C22.643 80.7601 21.39 83.8321 22.151 86.9631C22.948 90.2421 25.413 92.4321 28.699 92.6641C31.841 92.8851 34.286 91.6191 35.797 88.8511C37.301 86.0931 37.124 83.3261 35.206 80.8181C31.995 76.6191 28.71 72.4781 25.445 68.3201C18.568 59.5561 11.692 50.7952 4.79901 42.0432C2.90501 39.6412 1.60101 36.9901 1.14801 33.9451C1.10801 33.6791 1.049 33.4181 1 33.1541C1 32.2751 1 31.396 1 30.519C1.033 30.437 1.08501 30.3572 1.09601 30.2732C1.75701 25.1442 4.437 21.4181 9 19.0681C19.676 13.5721 30.371 8.113 41.062 2.646C42.654 1.833 44.193 0.890131 45.963 0.484131C46.743 0.304131 47.53 0.16 48.315 0C49.153 0.001 49.994 0.000976562 50.837 0.000976562ZM30.369 32.4761C30.614 32.3471 30.758 32.2731 30.9 32.1931C33.302 30.8341 35.704 29.474 38.105 28.113C43.003 25.338 47.9 22.5601 52.797 19.7871C54.146 19.0231 55.171 17.965 55.761 16.519C56.804 13.958 56.089 10.8351 54.044 8.96411C52.004 7.09711 49.032 6.73909 46.432 8.06909C39.028 11.8541 31.628 15.645 24.227 19.436C24.039 19.532 23.855 19.6352 23.622 19.7622C28.043 22.8622 30.312 27.0381 30.369 32.4761Z" fill="#44C8F5"/>
<path fill-rule="evenodd" clip-rule="evenodd" d="M99.798 9.00317C99.651 9.58317 99.504 10.1651 99.358 10.7451C98.398 14.5561 97.058 18.2141 95.068 21.6221C94.594 22.4331 93.97 22.9971 93.131 23.3931C91.319 24.2481 89.428 24.8442 87.465 25.2312C87.378 25.2492 87.291 25.2701 87.201 25.3381C89.006 25.9061 90.868 25.9632 92.807 25.9082C92.729 26.1092 92.688 26.2651 92.612 26.4001C91.153 29.0171 89.696 31.636 88.215 34.24C88.083 34.474 87.818 34.6682 87.57 34.7952C85.298 35.9632 82.862 36.5742 80.341 36.8872C79.95 36.9362 79.56 36.9791 79.164 37.0781C81.159 37.9781 83.235 38.3711 85.453 38.1411C85.435 38.2051 85.433 38.2782 85.398 38.3252C82.983 41.5112 80.283 44.399 76.805 46.458C74.763 47.665 72.581 48.4582 70.188 48.5652C69.733 48.5862 69.267 48.6021 68.822 48.5281C68.288 48.4401 67.982 48.6262 67.717 49.0752C65.874 52.1902 64 55.2861 62.173 58.4111C61.875 58.9191 61.545 59.2311 60.972 59.3931C59.464 59.8231 57.974 60.313 56.312 60.832C61.167 51.498 66.59 42.709 73.33 34.771C73.293 34.726 73.256 34.681 73.22 34.634C71.946 35.63 70.647 36.5971 69.405 37.6321C68.126 38.6951 66.884 39.8061 65.66 40.9331C64.45 42.0481 63.284 43.208 62.04 44.406C61.944 44.213 61.852 44.049 61.777 43.875C59.909 39.557 60.325 35.3541 62.44 31.2461C63.76 28.6821 65.566 26.484 67.608 24.469C67.655 24.424 67.718 24.395 67.836 24.321C67.827 26.456 68.401 28.3561 69.537 30.0771C69.599 30.0751 69.661 30.0731 69.721 30.0691C69.721 29.2231 69.677 28.374 69.73 27.53C69.861 25.436 70.334 23.413 71.155 21.479C71.253 21.25 71.387 21.01 71.572 20.854C74.181 18.657 76.944 16.6841 79.962 15.0791C80.07 15.0201 80.188 14.979 80.376 14.895C80.077 16.715 80.216 18.4321 80.928 20.2561C81.058 19.7111 81.146 19.3182 81.245 18.9302C81.694 17.1902 82.232 15.4792 83.203 13.9512C83.466 13.5392 83.849 13.144 84.267 12.894C87.813 10.773 91.651 9.46809 95.753 8.99609C97.092 8.84209 98.449 8.8502 99.799 8.7832C99.798 8.8572 99.798 8.93117 99.798 9.00317Z" fill="#44C8F5"/>
<path fill-rule="evenodd" clip-rule="evenodd" d="M53.117 40.7246C54.276 42.2206 55.413 43.6915 56.585 45.2065C49.243 49.5095 41.945 53.7866 34.602 58.0896C33.503 56.5836 32.419 55.0956 31.275 53.5266C38.566 49.2516 45.824 44.9976 53.117 40.7246Z" fill="#44C8F5"/>
<path fill-rule="evenodd" clip-rule="evenodd" d="M41.548 67.2578C40.444 65.7398 39.369 64.2659 38.243 62.7209C43.223 59.8029 48.164 56.9067 53.246 53.9277C53.116 54.2207 53.056 54.3807 52.978 54.5317C51.572 57.2837 50.167 60.0338 48.749 62.7778C48.638 62.9948 48.475 63.2269 48.273 63.3479C46.136 64.6189 43.988 65.8688 41.842 67.1248C41.766 67.1698 41.679 67.1988 41.548 67.2578Z" fill="#44C8F5"/>
</svg>
