<svg width="36" height="37" viewBox="0 0 36 37" fill="none" xmlns="http://www.w3.org/2000/svg">
<g clip-path="url(#clip0)">
<path d="M20.5 20.8392L28.5 12.8392C28.5013 12.3945 28.4148 11.9539 28.2456 11.5427C28.0763 11.1314 27.8275 10.7577 27.5135 10.4427C27.1996 10.1278 26.8265 9.87794 26.4158 9.70746C26.005 9.53697 25.5647 9.44922 25.12 9.44922H10.72C9.8209 9.44922 8.95864 9.80638 8.32289 10.4421C7.68715 11.0779 7.32999 11.9401 7.32999 12.8392L15.33 20.8392C16.0212 21.5142 16.9489 21.892 17.915 21.892C18.8811 21.892 19.8088 21.5142 20.5 20.8392V20.8392Z" fill="#27AAE1"/>
<path d="M17.93 23.0304C17.3056 23.034 16.6868 22.913 16.1098 22.6743C15.5328 22.4356 15.0093 22.0841 14.57 21.6404L7.32999 14.4004V24.0304C7.32998 24.4751 7.41774 24.9154 7.58823 25.3262C7.75871 25.7369 8.00858 26.11 8.3235 26.424C8.63842 26.7379 9.01221 26.9867 9.42345 27.156C9.83468 27.3252 10.2753 27.4117 10.72 27.4104H25.14C26.0329 27.4051 26.8875 27.0467 27.5171 26.4134C28.1466 25.7801 28.5 24.9234 28.5 24.0304V14.4004L21.27 21.6404C20.8324 22.0808 20.312 22.4303 19.7388 22.6689C19.1656 22.9074 18.5508 23.0303 17.93 23.0304Z" fill="#27AAE1"/>
<path d="M34.86 18.4007C34.86 15.0523 33.8671 11.779 32.0068 8.99491C30.1465 6.21079 27.5024 4.04082 24.4088 2.75943C21.3153 1.47804 17.9112 1.14277 14.6271 1.79602C11.343 2.44926 8.32639 4.06169 5.95869 6.42939C3.59099 8.7971 1.97856 11.8137 1.32531 15.0978C0.672065 18.3819 1.00734 21.786 2.28873 24.8795C3.57012 27.9731 5.74008 30.6172 8.5242 32.4775C11.3083 34.3378 14.5816 35.3307 17.93 35.3307C20.1533 35.3307 22.3548 34.8928 24.4088 34.042C26.4629 33.1912 28.3292 31.9441 29.9013 30.372C31.4734 28.7999 32.7205 26.9336 33.5713 24.8795C34.4221 22.8255 34.86 20.624 34.86 18.4007Z" stroke="#27AAE1"/>
</g>
<defs>
<clipPath id="clip0">
<rect width="36" height="36" fill="white" transform="translate(0 0.470703)"/>
</clipPath>
</defs>
</svg>
