<svg width="100" height="101" viewBox="0 0 100 101" fill="none" xmlns="http://www.w3.org/2000/svg">
<g clip-path="url(#clip0)">
<path fill-rule="evenodd" clip-rule="evenodd" d="M19.064 0C30.721 0 42.378 0 54.036 0C54.55 0.094 55.069 0.166006 55.578 0.281006C62.168 1.76901 66.232 5.85301 67.67 12.406C69.304 19.849 70.774 27.328 72.278 34.801C72.602 36.414 73.114 37.994 73.095 39.676C73.058 42.891 73.085 46.106 73.084 49.321C73.083 49.524 73.065 49.7252 73.055 49.9622C72.832 49.9722 72.649 49.9871 72.465 49.9871C69.514 49.9891 66.563 49.9771 63.611 49.9951C62.843 50.0011 62.06 50.0201 61.312 50.1711C56.877 51.0661 53.825 53.692 52.1 57.823C50.575 61.477 49.238 65.21 47.69 68.854C46.655 71.292 46.144 73.7861 46.149 76.4111C46.154 78.9111 46.15 81.4111 46.15 83.9111C46.15 84.1301 46.15 84.3492 46.15 84.6162C37.147 84.6162 28.224 84.6162 19.254 84.6162C19.242 84.8662 19.227 85.069 19.226 85.27C19.223 86.286 19.227 87.3012 19.224 88.3152C19.215 90.8332 17.783 92.2822 15.277 92.2922C12.796 92.3022 10.314 92.3021 7.83301 92.2961C5.32001 92.2921 3.86499 90.853 3.84399 88.353C3.83199 86.923 3.83001 85.4942 3.85001 84.0662C3.85501 83.6912 3.748 83.464 3.422 83.248C1.862 82.213 0.808997 80.7872 0.283997 78.9822C0.174997 78.6072 0.094 78.222 0 77.843C0 64.644 0 51.4451 0 38.2451C0.151 37.6451 0.323005 37.052 0.449005 36.448C1.08101 33.401 1.703 30.3522 2.328 27.3032C3.355 22.2872 4.40998 17.2781 5.39798 12.2561C6.53498 6.4751 9.96499 2.72714 15.46 0.817139C16.615 0.414139 17.859 0.266 19.064 0ZM36.833 38.4651V38.4612C44.746 38.4612 52.659 38.4592 60.573 38.4612C63.484 38.4612 65.168 36.3592 64.577 33.4902C63.578 28.6362 62.591 23.7811 61.61 18.9241C61.117 16.4851 59.791 15.3792 57.297 15.3792C43.519 15.3772 29.74 15.3772 15.963 15.3772C13.683 15.3792 12.272 16.5741 11.839 18.8091C10.998 23.1571 10.131 27.5001 9.289 31.8501C9.109 32.7881 8.83499 33.7432 8.87299 34.6802C8.96299 36.9052 10.733 38.4631 12.978 38.4651C20.93 38.4651 28.882 38.4651 36.833 38.4651ZM36.554 11.5222C39.71 11.5222 42.867 11.5381 46.023 11.5081C46.629 11.5021 47.271 11.4082 47.832 11.1902C49.445 10.5592 50.275 8.79022 49.934 6.89722C49.605 5.07322 48.244 3.87006 46.348 3.86206C39.809 3.83906 33.271 3.83507 26.733 3.87207C26.088 3.87607 25.385 4.09918 24.812 4.40918C23.333 5.20618 22.743 7.0551 23.248 8.9541C23.657 10.4891 25.002 11.5051 26.748 11.5171C30.016 11.5371 33.286 11.5242 36.554 11.5222ZM13.447 65.3911C10.352 65.4141 7.67699 68.0941 7.68399 71.1621C7.69099 74.2661 10.441 76.9491 13.585 76.9241C16.597 76.8991 19.235 74.16 19.212 71.082C19.19 68.018 16.506 65.3671 13.447 65.3911Z" fill="#44C8F5"/>
<path fill-rule="evenodd" clip-rule="evenodd" d="M88.448 92.3152C79.447 92.3152 70.538 92.3152 61.565 92.3152C61.552 92.5512 61.533 92.7701 61.531 92.9871C61.521 94.1711 61.569 95.3581 61.496 96.5401C61.37 98.5931 59.959 99.9231 57.891 99.9761C56.501 100.009 55.108 100.011 53.717 99.9803C51.453 99.9293 50.011 98.4431 49.993 96.1771C49.984 95.0481 50 93.9213 49.975 92.7923C49.971 92.6163 49.804 92.4481 49.733 92.2671C49.681 92.1381 49.633 91.9943 49.633 91.8553C49.632 86.4023 49.615 80.9511 49.654 75.4981C49.667 73.6841 50.095 71.9261 50.783 70.2381C52.32 66.4671 53.861 62.6952 55.391 58.9202C56.652 55.8092 59.458 53.8543 62.833 53.8443C69.714 53.8213 76.596 53.8282 83.477 53.8362C84.961 53.8382 86.456 53.7771 87.926 53.9341C90.746 54.2331 92.862 55.7231 93.951 58.3301C95.796 62.7461 97.504 67.2211 99.222 71.6871C99.767 73.1071 99.908 74.6051 99.645 76.1251C99.597 76.4001 99.617 76.6882 99.617 76.9712C99.616 80.5432 99.614 84.1163 99.622 87.6883C99.623 87.9873 99.462 88.3681 99.922 88.5401C99.986 88.5631 99.983 88.8152 99.983 88.9622C99.983 91.3492 99.997 93.7371 99.972 96.1241C99.947 98.5441 98.552 99.9421 96.147 99.9791C94.831 99.9991 93.514 100.002 92.199 99.9752C89.909 99.9302 88.461 98.4362 88.448 96.1412C88.442 94.8832 88.448 93.6272 88.448 92.3152ZM74.981 73.0762V73.0821C80.64 73.0821 86.299 73.0552 91.958 73.1072C92.997 73.1172 93.873 71.9392 93.454 70.9332C92.197 67.9192 91.026 64.8673 89.925 61.7923C89.458 60.4893 87.938 59.5632 86.719 59.5792C82.566 59.6362 78.41 59.6001 74.255 59.6021C70.477 59.6021 66.698 59.6003 62.919 59.6163C61.578 59.6223 60.69 60.2683 60.209 61.5113C59.011 64.6113 57.813 67.7101 56.616 70.8101C56.098 72.1521 56.732 73.0762 58.175 73.0762C63.776 73.0762 69.38 73.0762 74.981 73.0762ZM96.127 84.5921C96.121 82.2791 94.615 80.7682 92.326 80.7762C89.966 80.7842 88.438 82.3131 88.45 84.6551C88.462 86.9481 90.021 88.4622 92.36 88.4502C94.645 88.4362 96.133 86.9141 96.127 84.5921ZM61.524 84.6041C61.516 82.2721 60 80.7683 57.664 80.7723C55.353 80.7763 53.817 82.3311 53.836 84.6431C53.855 86.9321 55.385 88.4522 57.676 88.4542C59.997 88.4552 61.533 86.9201 61.524 84.6041Z" fill="#44C8F5"/>
</g>
<defs>
<clipPath id="clip0">
<rect width="100" height="100.002" fill="white"/>
</clipPath>
</defs>
</svg>
