<svg width="36" height="36" viewBox="0 0 36 36" fill="none" xmlns="http://www.w3.org/2000/svg">
<path d="M34.86 17.93C34.86 14.5816 33.8671 11.3083 32.0068 8.5242C30.1465 5.74008 27.5024 3.57012 24.4088 2.28873C21.3153 1.00734 17.9112 0.672065 14.6271 1.32531C11.343 1.97856 8.32639 3.59099 5.95869 5.95869C3.59099 8.32639 1.97856 11.343 1.32531 14.6271C0.672065 17.9112 1.00734 21.3153 2.28873 24.4088C3.57012 27.5024 5.74008 30.1465 8.5242 32.0068C11.3083 33.8671 14.5816 34.86 17.93 34.86C22.4201 34.86 26.7263 33.0763 29.9013 29.9013C33.0763 26.7263 34.86 22.4201 34.86 17.93Z" stroke="#27AAE1"/>
<path fill-rule="evenodd" clip-rule="evenodd" d="M22.8434 7.65914C24.1645 8.93159 24.9411 10.6666 25.01 12.4996C25.01 16.4296 21.85 31.8196 17.93 31.8196C14.01 31.8196 10.84 16.4196 10.84 12.4996C10.9089 10.6666 11.6855 8.93159 13.0066 7.65914C14.3278 6.38668 16.0907 5.67578 17.925 5.67578C19.7593 5.67578 21.5222 6.38668 22.8434 7.65914ZM20.6846 10.511C21.0487 11.0585 21.242 11.7018 21.24 12.3593C21.2374 13.2363 20.8878 14.0767 20.2676 14.6969C19.6474 15.3171 18.807 15.6666 17.93 15.6693C17.2725 15.6713 16.6292 15.478 16.0817 15.1139C15.5342 14.7499 15.1072 14.2315 14.8546 13.6244C14.6021 13.0174 14.5355 12.349 14.6633 11.704C14.7911 11.0591 15.1075 10.4666 15.5724 10.0017C16.0373 9.53679 16.6298 9.22039 17.2748 9.09261C17.9197 8.96482 18.5881 9.03141 19.1951 9.28393C19.8022 9.53645 20.3206 9.96354 20.6846 10.511Z" fill="#27AAE1"/>
</svg>
