<svg width="36" height="37" viewBox="0 0 36 37" fill="none" xmlns="http://www.w3.org/2000/svg">
<path d="M34.86 18.5006C34.862 15.1517 33.8707 11.8775 32.0116 9.09203C30.1526 6.30659 27.5091 4.13507 24.4158 2.85215C21.3224 1.56922 17.918 1.23252 14.6333 1.88464C11.3485 2.53676 8.33093 4.14839 5.96223 6.5157C3.59352 8.883 1.9801 11.8996 1.32605 15.184C0.671986 18.4684 1.00667 21.8729 2.28777 24.9671C3.56887 28.0612 5.73882 30.7059 8.52316 32.5666C11.3075 34.4274 14.5811 35.4206 17.93 35.4206C22.4184 35.4206 26.7231 33.6382 29.8978 30.4654C33.0725 27.2926 34.8574 22.9889 34.86 18.5006V18.5006Z" stroke="#27AAE1"/>
<path fill-rule="evenodd" clip-rule="evenodd" d="M12.61 6.88961H12.87C13.2676 7.0033 13.6181 7.24167 13.87 7.56961C14.2921 8.10119 14.6294 8.69488 14.87 9.32961C15.1372 9.96829 15.3122 10.6417 15.39 11.3296C15.405 11.5126 15.405 11.6966 15.39 11.8796C15.3701 12.0705 15.2769 12.2462 15.13 12.3696C14.8143 12.7011 14.446 12.9781 14.04 13.1896C13.7 13.3896 13.34 13.5696 13.04 13.7596C12.9296 13.8238 12.8228 13.8939 12.72 13.9696C12.511 14.1085 12.3474 14.3058 12.2496 14.5369C12.1518 14.7681 12.1241 15.0229 12.17 15.2696C12.2055 15.754 12.3169 16.2298 12.5 16.6796C13.5394 19.1054 14.9385 21.3607 16.65 23.3696C17.3616 24.2215 18.1897 24.9689 19.11 25.5896C19.44 25.8096 19.5 25.7996 19.79 25.5296C20.3268 25.0096 20.9245 24.5563 21.57 24.1796C22.0989 23.874 22.7196 23.7676 23.32 23.8796C23.5556 23.9356 23.7814 24.0266 23.99 24.1496C24.3707 24.338 24.7105 24.5997 24.99 24.9196C25.39 25.3496 25.78 25.7996 26.16 26.2596C26.4477 26.5966 26.6501 26.9979 26.75 27.4296V27.7296C26.6949 28.0446 26.5489 28.3365 26.33 28.5696C25.6104 29.3501 24.6734 29.8969 23.64 30.1396C23.3826 30.195 23.1221 30.235 22.86 30.2596H22.02L21.4 30.1796C20.676 30.0394 19.9757 29.797 19.32 29.4596C17.7152 28.6754 16.2626 27.6122 15.03 26.3196C13.0952 24.3659 11.518 22.0881 10.37 19.5896C9.41098 17.6357 8.82753 15.519 8.64999 13.3496V12.8296V12.1596C8.64999 12.0996 8.64999 12.0396 8.64999 11.9796C8.66574 11.4756 8.75675 10.9767 8.91999 10.4996C9.1906 9.73018 9.59704 9.01553 10.12 8.38961C10.6186 7.64675 11.3616 7.1019 12.22 6.84961L12.61 6.88961Z" fill="#27AAE1"/>
</svg>
