<svg xmlns="http://www.w3.org/2000/svg" xmlns:xlink="http://www.w3.org/1999/xlink" width="30" height="30" fill="none" xmlns:v="https://vecta.io/nano"><g clip-path="url(#A)"><path d="M30 5H0V25H30V5Z" fill="#fff"/><g fill="#bf0a30"><path d="M30 5H0v1.538h30V5zm0 3.076H0v1.538h30V8.076zm0 3.078H0v1.54h30v-1.54zm0 3.076H0v1.538h30V14.23zm0 3.08H0v1.54h30V17.3zm0 3.075H0v1.538h30v-1.538zm0 3.075H0V25h30v-1.54z"/></g><path d="M15.2 5H0v10.77h15.2V5z" fill="#002868"/><g fill="#fff"><use xlink:href="#B"/><path d="M3.822 5.45l-.138.425h-.45l.363.265-.138.425.363-.265.36.265-.138-.425.363-.265h-.45l-.135-.425z"/><use xlink:href="#C"/><path d="M8.862 5.45l-.138.425h-.45l.363.265-.138.425.363-.265.36.265-.138-.425.363-.265h-.45l-.135-.425z"/><use xlink:href="#D"/><path d="M13.677 6.14l-.14.425.363-.265.36.265-.14-.425.363-.265h-.45l-.135-.425-.14.425h-.45l.363.265z"/><use xlink:href="#E"/><path d="M5.08 6.532l-.138.425h-.446l.36.265-.138.425.363-.265.363.265-.138-.425.36-.265H5.22l-.138-.425zm2.52 0l-.138.425h-.446l.36.265-.138.425.363-.265.363.265-.138-.425.36-.265H7.74l-.14-.425zm2.52 0l-.138.425h-.446l.36.265-.138.425.363-.265.363.265-.138-.425.36-.265h-.446l-.138-.425zm2.52 0l-.14.425h-.446l.36.265-.138.425.363-.265.363.265-.138-.425.36-.265h-.446l-.138-.425zM1.302 7.612l-.138.425h-.45l.363.265-.138.425.363-.265.36.265-.138-.425.363-.265h-.45l-.135-.425zm2.52 0l-.138.425h-.45l.363.265-.138.425.363-.265.36.265-.138-.425.363-.265h-.45l-.135-.425zm2.516 0l-.135.425h-.45l.363.265-.138.425.36-.265.363.265-.138-.425.363-.265h-.45l-.138-.425zm2.524 0l-.138.425h-.45l.363.265-.138.425.363-.265.36.265-.138-.425.363-.265h-.45l-.135-.425zm2.516 0l-.135.425h-.45l.363.265-.14.425.363-.265.36.265-.14-.425.363-.265h-.45l-.14-.425z"/><use xlink:href="#F"/><path d="M2.56 8.7l-.138.425h-.446l.36.265-.138.425.363-.265.363.265-.138-.425.36-.265H2.7L2.56 8.7zm2.52 0l-.138.425h-.446l.36.265-.138.425.363-.265.363.265-.138-.425.36-.265H5.22L5.08 8.7zm2.52 0l-.138.425h-.446l.36.265-.138.425.363-.265.363.265-.138-.425.36-.265H7.74L7.6 8.7zm2.52 0l-.138.425h-.446l.36.265-.138.425.363-.265.363.265-.138-.425.36-.265h-.446l-.14-.425zm2.52 0l-.14.425h-.446l.36.265-.138.425.363-.265.363.265-.138-.425.36-.265h-.446L12.64 8.7zM1.302 9.77l-.138.425h-.45l.363.265-.138.425.363-.265.36.265-.138-.425.363-.265h-.45l-.135-.425zm2.52 0l-.138.425h-.45l.363.265-.138.425.363-.265.36.265-.138-.425.363-.265h-.45l-.135-.425zm2.516 0l-.135.425h-.45l.363.265-.138.425.36-.265.363.265-.138-.425.363-.265h-.45l-.138-.425zm2.524 0l-.138.425h-.45l.363.265-.138.425.363-.265.36.265-.138-.425.363-.265h-.45l-.135-.425zm2.516 0l-.135.425h-.45l.363.265-.14.425.363-.265.36.265-.14-.425.363-.265h-.45l-.14-.425zm2.524 0l-.14.425h-.45l.363.265-.14.425.363-.265.36.265-.14-.425.363-.265h-.45l-.135-.425zM2.56 10.85l-.138.425h-.446l.363.262-.138.425.363-.262.363.262-.138-.425.363-.262H2.7l-.138-.425z"/><use xlink:href="#G"/><path d="M7.6 10.85l-.138.425h-.446l.363.262-.138.425.363-.262.363.262-.138-.425.363-.262h-.446L7.6 10.85zm2.52 0l-.138.425h-.446l.363.262-.138.425.363-.262.363.262-.138-.425.363-.262h-.446l-.145-.425zm2.52 0l-.14.425h-.446l.363.262-.138.425.363-.262.363.262-.138-.425.363-.262h-.446l-.145-.425zM1.302 11.93l-.138.425h-.45l.363.265-.138.425.363-.265.36.265-.138-.425.363-.265h-.45l-.135-.425zm2.52 0l-.138.425h-.45l.363.265-.138.425.363-.265.36.265-.138-.425.363-.265h-.45l-.135-.425zm2.516 0l-.135.425h-.45l.363.265-.138.425.36-.265.363.265-.138-.425.363-.265h-.45l-.138-.425zm2.524 0l-.138.425h-.45l.363.265-.138.425.363-.265.36.265-.138-.425.363-.265h-.45l-.135-.425zm2.516 0l-.135.425h-.45l.363.265-.14.425.363-.265.36.265-.14-.425.363-.265h-.45l-.14-.425zm2.524 0l-.14.425h-.45l.363.265-.14.425.363-.265.36.265-.14-.425.363-.265h-.45l-.135-.425z"/><use xlink:href="#H"/><path d="M5.218 13.437l-.138-.425-.138.425h-.446l.36.265-.138.425.363-.265.363.265-.138-.425.36-.265H5.22zm2.52 0l-.138-.425-.138.425h-.446l.36.265-.138.425.363-.265.363.265-.138-.425.36-.265H7.74zm2.52 0l-.138-.425-.138.425h-.446l.36.265-.138.425.363-.265.363.265-.138-.425.36-.265h-.446zm2.52 0l-.138-.425-.14.425h-.446l.36.265-.138.425.363-.265.363.265-.138-.425.36-.265h-.446z"/><use xlink:href="#I"/><path d="M3.957 14.515l-.135-.425-.138.425h-.45l.363.265-.138.425.363-.265.36.265-.138-.425.363-.265h-.45zm2.52 0L6.34 14.1l-.135.425h-.45l.363.265-.138.425.36-.265.363.265-.138-.425.363-.265h-.45zm2.52 0l-.135-.425-.138.425h-.45l.363.265-.138.425.363-.265.36.265-.138-.425.363-.265h-.45zm2.52 0l-.14-.425-.135.425h-.45l.363.265-.14.425.363-.265.36.265-.14-.425.363-.265h-.45zm2.52 0l-.135-.425-.14.425h-.45l.363.265-.14.425.363-.265.36.265-.14-.425.363-.265h-.45z"/></g></g><defs><clipPath id="A"><path fill="#fff" d="M0 0h30v30H0z"/></clipPath><path id="B" d="M1.302 5.45l-.138.425h-.45l.363.265-.138.425.363-.265.36.265-.138-.425.363-.265h-.45l-.135-.425z"/><path id="C" d="M6.338 5.45l-.135.425h-.45l.363.265-.138.425.36-.265.363.265-.138-.425.363-.265h-.45l-.138-.425z"/><path id="D" d="M11.378 5.45l-.135.425h-.45l.363.265-.14.425.363-.265.36.265-.14-.425.363-.265h-.45l-.14-.425z"/><path id="E" d="M2.56 6.532l-.138.425h-.446l.36.265-.138.425.363-.265.363.265-.138-.425.36-.265h-.446l-.138-.425z"/><path id="F" d="M13.902 7.612l-.14.425h-.45l.363.265-.14.425.363-.265.36.265-.14-.425.363-.265h-.45l-.135-.425z"/><path id="G" d="M5.08 10.85l-.138.425h-.446l.363.262-.138.425.363-.262.363.262-.138-.425.363-.262h-.446l-.145-.425z"/><path id="H" d="M2.698 13.437l-.138-.425-.138.425h-.446l.36.265-.138.425.363-.265.363.265-.138-.425.36-.265h-.446z"/><path id="I" d="M1.437 14.515l-.135-.425-.138.425h-.45l.363.265-.138.425.363-.265.36.265-.138-.425.363-.265h-.45z"/></defs></svg>