<svg width="365" height="124" viewBox="0 0 365 124" fill="none" xmlns="http://www.w3.org/2000/svg">
<g clip-path="url(#clip0)">
<path d="M148.498 30.5085H151.648C153.779 30.5881 155.903 30.2273 157.888 29.4485C159.322 28.9032 160.492 27.8297 161.158 26.4485C161.871 24.4284 162.177 22.2873 162.058 20.1485V16.1785C162.118 14.0812 161.961 11.9833 161.588 9.91852C161.318 8.63465 160.715 7.44464 159.838 6.46852C158.768 5.40379 157.426 4.6532 155.958 4.29852C153.544 3.71177 151.061 3.4561 148.578 3.53852H136.758V48.6985H148.498V30.5085ZM148.498 11.2685C150.018 11.2685 151.028 11.4985 151.498 11.9685C151.968 12.4385 152.228 13.4285 152.228 14.9685V18.6985C152.348 19.8366 152.129 20.9846 151.598 21.9985C151.308 22.2936 150.955 22.519 150.565 22.6576C150.175 22.7962 149.759 22.8444 149.348 22.7985H148.488L148.498 11.2685Z" fill="white"/>
<path d="M187.278 48.389C189.058 47.6488 190.606 46.4446 191.762 44.902C192.918 43.3594 193.638 41.5349 193.848 39.619C194.062 37.7323 194.168 34.519 194.168 29.979V22.259C194.223 18.9988 194.113 15.738 193.838 12.489C193.593 10.5681 192.839 8.74766 191.654 7.21622C190.469 5.68478 188.896 4.49805 187.098 3.77898C185.027 2.95969 182.815 2.55536 180.588 2.58898C178.292 2.54523 176.012 2.97412 173.888 3.84898C172.11 4.59056 170.564 5.79538 169.41 7.33788C168.256 8.88038 167.537 10.7041 167.328 12.619C167.108 14.509 167.008 17.719 167.008 22.259V29.979C166.954 33.2391 167.064 36.4999 167.338 39.749C167.579 41.6712 168.331 43.4935 169.517 45.0257C170.703 46.5578 172.278 47.7435 174.078 48.459C176.149 49.2783 178.361 49.6826 180.588 49.649C182.882 49.6986 185.16 49.2694 187.278 48.389V48.389ZM179.068 41.079C178.763 39.4816 178.652 37.853 178.738 36.229V15.149C178.738 12.819 178.908 11.419 179.238 10.949C179.389 10.7182 179.597 10.5311 179.843 10.4065C180.089 10.2818 180.363 10.2241 180.638 10.239C180.94 10.2067 181.245 10.2743 181.505 10.4314C181.765 10.5885 181.966 10.8265 182.078 11.109C182.384 12.419 182.502 13.7658 182.428 15.109V35.899C182.508 37.5732 182.394 39.251 182.088 40.899C182.002 41.2292 181.8 41.5176 181.519 41.712C181.239 41.9064 180.898 41.994 180.558 41.959C180.247 42.0023 179.93 41.9389 179.66 41.7791C179.389 41.6193 179.18 41.3725 179.068 41.079V41.079Z" fill="white"/>
<path d="M225.968 56.4798H234.078V39.2198H231.688V3.50977H205.688V4.87976C205.716 11.5067 205.302 18.128 204.448 24.6998C203.878 29.6575 202.836 34.5496 201.338 39.3098H198.938V56.5198H207.028V48.6998H226.028L225.968 56.4798ZM219.968 39.2198H213.688C215.508 30.5203 216.433 21.6575 216.448 12.7698V12.4398H219.938L219.968 39.2198Z" fill="white"/>
<path d="M266.338 48.6991V3.53906H254.598V19.6891H251.078V3.53906H239.328V48.6991H251.078V29.7291H254.598V48.6991H266.338Z" fill="white"/>
<path d="M298.828 48.6998V3.50977H289.008L282.428 23.8998V3.50977H272.608V48.6998H282.898L289.008 28.1398V48.6998H298.828Z" fill="white"/>
<path d="M322.448 3.50977C321.258 4.64977 320.618 6.83977 320.548 10.0998L320.328 18.9098C320.248 21.3098 319.108 22.5398 316.888 22.5898L316.838 3.50977H305.078V48.6998H316.848L316.898 29.5698C317.39 29.5508 317.88 29.6349 318.337 29.8166C318.795 29.9983 319.209 30.2736 319.554 30.6248C319.898 30.976 320.166 31.3954 320.339 31.8561C320.512 32.3168 320.586 32.8085 320.558 33.2998V42.1198C320.558 45.3698 321.188 47.5698 322.458 48.6998H333.308C332.248 47.2464 331.728 44.8098 331.748 41.3898L331.798 34.1998C331.838 29.4264 329.198 26.7198 323.878 26.0798C329.211 25.4131 331.851 22.7464 331.798 18.0798L331.748 10.3298C331.748 6.88976 332.268 4.61976 333.308 3.51976L322.448 3.50977Z" fill="white"/>
<path d="M354.348 3.50977L347.768 23.8998V3.50977H337.948V48.6998H348.238L354.348 28.1398V48.6998H364.168V3.50977H354.348Z" fill="white"/>
<path d="M161.448 75.9591C160.377 74.8956 159.035 74.1452 157.568 73.7891C155.153 73.2073 152.671 72.9517 150.188 73.0291H138.368V118.189H150.118V100.009H153.268C155.399 100.09 157.524 99.729 159.508 98.9491C160.937 98.396 162.104 97.3248 162.778 95.9491C163.49 93.9288 163.796 91.7879 163.678 89.6491V85.6991C163.738 83.6018 163.58 81.504 163.208 79.4391C162.94 78.1436 162.333 76.9426 161.448 75.9591ZM153.838 88.1791C153.952 89.319 153.737 90.4676 153.218 91.4891C152.927 91.7824 152.574 92.006 152.184 92.1428C151.794 92.2796 151.379 92.3262 150.968 92.2791H150.108V80.7591C151.628 80.7591 152.638 80.9891 153.108 81.4591C153.578 81.9291 153.828 82.9291 153.828 84.4591L153.838 88.1791Z" fill="white"/>
<path d="M200.508 76.8294C199.32 75.2326 197.71 73.9996 195.858 73.2694C193.785 72.4585 191.574 72.0577 189.348 72.0894C187.053 72.0428 184.772 72.4682 182.648 73.3394C180.871 74.0831 179.325 75.2883 178.17 76.8302C177.014 78.3721 176.292 80.1947 176.078 82.1094C175.871 84.0027 175.765 87.2161 175.758 91.7494V99.4794C175.7 102.736 175.814 105.994 176.098 109.239C176.325 111.114 177.047 112.895 178.188 114.399C179.378 115.99 180.983 117.222 182.828 117.959C184.903 118.775 187.119 119.176 189.348 119.139C191.641 119.189 193.92 118.76 196.038 117.879C197.818 117.139 199.366 115.935 200.522 114.392C201.677 112.85 202.398 111.025 202.608 109.109C202.821 107.229 202.928 104.019 202.928 99.4794V91.7494C202.986 88.4924 202.873 85.2345 202.588 81.9894C202.364 80.1155 201.646 78.3347 200.508 76.8294ZM191.188 105.389C191.271 107.08 191.157 108.775 190.848 110.439C190.762 110.77 190.56 111.058 190.279 111.252C189.999 111.447 189.658 111.534 189.318 111.499C189.002 111.538 188.682 111.468 188.412 111.301C188.141 111.134 187.935 110.879 187.828 110.579C187.528 108.981 187.421 107.353 187.508 105.729V84.6394C187.508 82.3194 187.668 80.9094 187.988 80.4394C188.144 80.1975 188.361 80.0015 188.618 79.8714C188.874 79.7414 189.161 79.682 189.448 79.6994C189.752 79.6661 190.058 79.7344 190.318 79.8936C190.579 80.0529 190.779 80.2941 190.888 80.5794C191.196 81.889 191.314 83.2362 191.238 84.5794L191.188 105.389Z" fill="white"/>
<path d="M237.978 74.0898C235.616 72.9068 233.032 72.2324 230.394 72.1101C227.755 71.9878 225.119 72.4203 222.658 73.3798C220.833 74.1362 219.242 75.365 218.048 76.9398C216.997 78.3133 216.309 79.9298 216.048 81.6398C215.783 84.0703 215.673 86.5153 215.718 88.9598V102.16C215.59 105.508 215.953 108.857 216.798 112.1C217.553 114.333 219.144 116.187 221.238 117.27C223.865 118.61 226.791 119.254 229.738 119.14C232.681 119.24 235.589 118.471 238.098 116.93C240.101 115.765 241.646 113.952 242.478 111.79C243.128 109.79 243.478 106.52 243.478 101.85V100.09H231.728V105.77C231.823 107.354 231.688 108.944 231.328 110.49C231.153 110.795 230.9 111.049 230.596 111.225C230.291 111.402 229.945 111.495 229.593 111.495C229.241 111.495 228.895 111.402 228.591 111.225C228.286 111.049 228.033 110.795 227.858 110.49C227.517 109.087 227.385 107.641 227.468 106.2V85.1998C227.385 83.7021 227.516 82.2003 227.858 80.7398C228.013 80.3949 228.277 80.1104 228.61 79.9298C228.942 79.7492 229.324 79.6824 229.698 79.7398C230.029 79.6932 230.366 79.7498 230.663 79.902C230.96 80.0541 231.203 80.2943 231.358 80.5898C231.697 81.9862 231.822 83.4259 231.728 84.8598V92.6998H243.448V88.4098C243.581 85.2669 243.223 82.1225 242.388 79.0898C241.557 76.9535 239.994 75.1817 237.978 74.0898Z" fill="white"/>
<path d="M278.308 74.0901C275.944 72.9069 273.359 72.2324 270.718 72.1101C268.078 71.9878 265.441 72.4204 262.978 73.3801C261.157 74.1397 259.57 75.368 258.378 76.9401C257.327 78.3136 256.639 79.9301 256.378 81.6401C256.118 84.071 256.008 86.5157 256.048 88.9601V102.16C255.919 105.508 256.283 108.858 257.128 112.1C257.883 114.333 259.474 116.187 261.568 117.27C264.198 118.612 267.128 119.256 270.078 119.14C273.018 119.238 275.922 118.47 278.428 116.93C280.432 115.768 281.978 113.954 282.808 111.79C283.468 109.79 283.808 106.52 283.808 101.85V100.09H272.058V105.77C272.153 107.355 272.018 108.944 271.658 110.49C271.52 110.819 271.278 111.095 270.97 111.275C270.661 111.456 270.303 111.531 269.948 111.49C269.586 111.539 269.217 111.468 268.899 111.287C268.581 111.107 268.331 110.826 268.188 110.49C267.847 109.087 267.715 107.642 267.798 106.2V85.2001C267.715 83.7025 267.846 82.2006 268.188 80.7401C268.343 80.3952 268.607 80.1107 268.94 79.9301C269.272 79.7495 269.654 79.6827 270.028 79.7401C270.359 79.692 270.696 79.748 270.994 79.9003C271.291 80.0526 271.534 80.2937 271.688 80.5901C272.027 81.9865 272.152 83.4263 272.058 84.8601V92.7001H283.808V88.4101C283.941 85.2673 283.583 82.1229 282.748 79.0901C281.909 76.949 280.335 75.1765 278.308 74.0901V74.0901Z" fill="white"/>
<path d="M306.538 93.3898V73.0098H296.718V118.19H307.008L313.118 97.6398V118.19H322.938V73.0098H313.118L306.538 93.3898Z" fill="white"/>
<path d="M346.148 93.3898V73.0098H336.328V118.19H346.618L352.728 97.6398V118.19H362.548V73.0098H352.728L346.148 93.3898Z" fill="white"/>
<path fill-rule="evenodd" clip-rule="evenodd" d="M30.6081 0.299739C24.6532 0.193151 18.8006 1.85739 13.7927 5.08142C8.78486 8.30544 4.8472 12.944 2.47909 18.4089C0.110973 23.8738 -0.580908 29.9189 0.491173 35.7776C1.56325 41.6362 4.351 47.0446 8.50091 51.3168C12.6508 55.5889 17.9759 58.5325 23.801 59.7742C29.6261 61.0159 35.6887 60.4998 41.2201 58.2913C46.7514 56.0828 51.5024 52.2814 54.8704 47.3692C58.2384 42.4571 60.0718 36.6553 60.1381 30.6997C60.2981 14.1997 46.9181 0.429739 30.6081 0.299739ZM27.0081 48.5397C26.873 48.9761 26.6312 49.3719 26.3047 49.6914C25.9782 50.0109 25.5773 50.244 25.1381 50.3697C24.9814 50.4269 24.821 50.4737 24.6581 50.5097L24.1381 50.6097L23.6881 50.6797C23.1395 50.7809 22.5851 50.8476 22.0281 50.8797H21.7481C21.4881 50.8797 21.2481 50.8797 20.9781 50.8797C18.0049 50.8196 15.0857 50.0736 12.4481 48.6997C11.6702 48.2868 10.9247 47.8155 10.2181 47.2897C9.63574 46.9077 9.20441 46.335 8.99813 45.6697C8.87985 45.2986 8.84236 44.9065 8.88815 44.5197C8.85389 43.904 8.98576 43.2904 9.26998 42.7431C9.55421 42.1959 9.98035 41.7351 10.5037 41.409C11.0271 41.0829 11.6286 40.9034 12.2451 40.8895C12.8616 40.8756 13.4705 41.0276 14.0081 41.3297C14.7181 41.6697 15.3982 42.0997 16.1182 42.4397C18.1022 43.4439 20.3458 43.8173 22.5481 43.5097H23.6381C24.5247 43.4696 25.3967 43.7461 26.0981 44.2897C26.7037 44.794 27.1224 45.487 27.2874 46.2575C27.4524 47.0281 27.3541 47.8317 27.0081 48.5397V48.5397ZM27.0081 33.2797C26.873 33.7161 26.6312 34.1119 26.3047 34.4314C25.9782 34.7509 25.5773 34.984 25.1381 35.1097C24.9814 35.1669 24.821 35.2137 24.6581 35.2497L24.1381 35.3497L23.6881 35.4297C23.1386 35.5226 22.5845 35.5861 22.0281 35.6197H21.7481C21.4881 35.6197 21.2481 35.6197 20.9781 35.6197C18.0055 35.555 15.0873 34.8092 12.4481 33.4397C11.6702 33.0268 10.9247 32.5555 10.2181 32.0297C9.63574 31.6477 9.20441 31.075 8.99813 30.4097C8.87985 30.0386 8.84236 29.6465 8.88815 29.2597C8.85719 28.6451 8.9912 28.0334 9.27627 27.488C9.56134 26.9427 9.98708 26.4835 10.5094 26.158C11.0317 25.8326 11.6315 25.6528 12.2467 25.6373C12.8619 25.6218 13.4701 25.7711 14.0081 26.0697C14.7181 26.4097 15.3982 26.8397 16.1182 27.1897C18.1016 28.1955 20.3468 28.5656 22.5481 28.2497H23.6381C24.5241 28.214 25.3946 28.49 26.0981 29.0297C26.7037 29.5341 27.1224 30.227 27.2874 30.9975C27.4524 31.7681 27.3541 32.5717 27.0081 33.2797V33.2797ZM27.0081 19.7797C26.8746 20.217 26.6334 20.6136 26.3067 20.9334C25.9799 21.2531 25.5781 21.4857 25.1381 21.6097C24.9816 21.6702 24.8213 21.7203 24.6581 21.7597L24.1381 21.8497L23.6881 21.9297C23.1386 22.0226 22.5845 22.0861 22.0281 22.1197H21.7481C21.4881 22.1197 21.2481 22.1197 20.9781 22.1197C18.0056 22.0634 15.0863 21.3208 12.4481 19.9497C11.6722 19.5297 10.927 19.0552 10.2181 18.5297C9.63574 18.1477 9.20441 17.575 8.99813 16.9097C8.87975 16.5421 8.84224 16.1532 8.88815 15.7697C8.8553 15.1543 8.98791 14.5413 9.27221 13.9945C9.55651 13.4476 9.98212 12.987 10.5048 12.6603C11.0274 12.3337 11.628 12.153 12.2441 12.1371C12.8602 12.1211 13.4693 12.2705 14.0081 12.5697C14.7181 12.9197 15.3982 13.3397 16.1182 13.6897C18.1016 14.6955 20.3468 15.0656 22.5481 14.7497C22.9081 14.7497 23.2781 14.7497 23.6381 14.7497C24.5241 14.714 25.3946 14.99 26.0981 15.5297C26.7037 16.0341 27.1224 16.727 27.2874 17.4975C27.4524 18.2681 27.3541 19.0717 27.0081 19.7797V19.7797ZM51.6482 46.0397C51.681 46.6552 51.5484 47.2682 51.2641 47.815C50.9798 48.3618 50.5542 48.8225 50.0315 49.1492C49.5089 49.4758 48.9083 49.6565 48.2922 49.6724C47.6761 49.6884 47.0669 49.539 46.5281 49.2397C45.8081 48.8897 45.1281 48.4697 44.4081 48.1197C42.428 47.1148 40.1862 46.7447 37.9882 47.0597C37.6182 47.0597 37.2581 47.0597 36.8881 47.0597C36.0032 47.0981 35.1339 46.8178 34.4381 46.2697C33.8338 45.7666 33.4171 45.0741 33.2556 44.3046C33.094 43.535 33.1971 42.7334 33.5481 42.0297C33.6801 41.5868 33.9245 41.1854 34.2574 40.8648C34.5903 40.5441 35.0005 40.315 35.4481 40.1997C35.6076 40.1379 35.7714 40.0877 35.9381 40.0497L36.4582 39.9597L36.9081 39.8797C37.4536 39.7819 38.0047 39.7185 38.5581 39.6897C38.6514 39.6947 38.7449 39.6947 38.8382 39.6897H39.5981C42.5657 39.7418 45.4813 40.4775 48.1182 41.8397C48.8987 42.2573 49.6474 42.732 50.3581 43.2597C50.9405 43.6417 51.3719 44.2145 51.5781 44.8797C51.686 45.2566 51.7099 45.6526 51.6482 46.0397V46.0397ZM51.6482 30.7797C51.681 31.3952 51.5484 32.0082 51.2641 32.555C50.9798 33.1018 50.5542 33.5625 50.0315 33.8892C49.5089 34.2158 48.9083 34.3965 48.2922 34.4124C47.6761 34.4284 47.0669 34.2789 46.5281 33.9797C45.8081 33.6297 45.1281 33.2097 44.4081 32.8597C42.428 31.8548 40.1862 31.4847 37.9882 31.7997C37.6182 31.7997 37.2581 31.7997 36.8881 31.7997C36.0051 31.8366 35.1374 31.5603 34.4381 31.0197C33.8338 30.5166 33.4171 29.8241 33.2556 29.0546C33.094 28.285 33.1971 27.4834 33.5481 26.7797C33.6795 26.3354 33.9235 25.9325 34.2564 25.6101C34.5893 25.2877 34.9998 25.0568 35.4481 24.9397C35.6081 24.9397 35.7581 24.8297 35.9381 24.7897L36.4481 24.6997L36.8982 24.6197C37.4443 24.5268 37.9951 24.4634 38.5481 24.4297H38.8281C39.0881 24.4297 39.3382 24.4297 39.5882 24.4297C42.5564 24.4852 45.472 25.2244 48.1081 26.5897C48.8907 27.0002 49.6396 27.4717 50.3481 27.9997C50.9305 28.3818 51.3619 28.9545 51.5681 29.6197C51.6794 29.9959 51.7067 30.3919 51.6482 30.7797ZM51.6482 17.2897C51.6791 17.9043 51.5451 18.5161 51.26 19.0614C50.975 19.6068 50.5492 20.066 50.0269 20.3915C49.5046 20.7169 48.9047 20.8967 48.2895 20.9122C47.6743 20.9277 47.0662 20.7784 46.5281 20.4797C45.8081 20.1297 45.1281 19.7097 44.4081 19.3697C42.4305 18.357 40.1873 17.9831 37.9882 18.2997C37.6182 18.2997 37.2581 18.2997 36.8881 18.2997C36.0044 18.3419 35.1349 18.0651 34.4381 17.5197C33.8338 17.0166 33.4171 16.3241 33.2556 15.5546C33.094 14.785 33.1971 13.9834 33.5481 13.2797C33.6813 12.8363 33.9258 12.4343 34.2584 12.1122C34.591 11.7901 35.0006 11.5586 35.4481 11.4397C35.6079 11.3812 35.7716 11.3344 35.9381 11.2997C36.1081 11.2997 36.2782 11.2397 36.4582 11.2097L36.9081 11.1197C37.4543 11.0268 38.0051 10.9634 38.5581 10.9297H38.8382C39.0982 10.9297 39.3481 10.9297 39.5981 10.9297C42.5657 10.9902 45.4802 11.7291 48.1182 13.0897C48.9007 13.5002 49.6496 13.9717 50.3581 14.4997C50.9405 14.8818 51.3719 15.4545 51.5781 16.1197C51.6859 16.5001 51.7098 16.8993 51.6482 17.2897V17.2897Z" fill="white"/>
<path fill-rule="evenodd" clip-rule="evenodd" d="M30.1482 63.8087C24.2203 63.7911 18.4201 65.53 13.4797 68.806C8.53935 72.082 4.68021 76.7482 2.38948 82.2155C0.0987439 87.6829 -0.520907 93.7064 0.608748 99.5256C1.7384 105.345 4.56671 110.699 8.73668 114.912C12.9066 119.125 18.2313 122.009 24.0386 123.198C29.8459 124.388 35.8754 123.83 41.3661 121.596C46.8568 119.362 51.5625 115.551 54.8893 110.645C58.216 105.738 60.0147 99.9564 60.0582 94.0287C60.0991 90.0749 59.3557 86.1521 57.871 82.4874C56.3862 78.8227 54.1896 75.4888 51.4081 72.6785C48.6266 69.8682 45.3155 67.6372 41.6663 66.1148C38.0171 64.5923 34.1022 63.8085 30.1482 63.8087V63.8087ZM11.8782 88.4887C11.8196 88.3324 11.7729 88.172 11.7382 88.0087C11.7382 87.8387 11.6782 87.6587 11.6482 87.4887C11.6182 87.3187 11.5882 87.1887 11.5682 87.0387C11.4649 86.4907 11.4014 85.9359 11.3782 85.3787C11.3732 85.2888 11.3732 85.1987 11.3782 85.1087C11.3782 84.8487 11.3782 84.5987 11.3782 84.3387C11.4377 81.3742 12.1766 78.4628 13.5382 75.8287C13.9487 75.0462 14.4201 74.2972 14.9482 73.5887C15.3302 73.0063 15.9029 72.575 16.5682 72.3687C16.9393 72.2504 17.3314 72.2129 17.7182 72.2587C18.3339 72.2245 18.9475 72.3563 19.4948 72.6406C20.042 72.9248 20.5029 73.3509 20.829 73.8743C21.1551 74.3977 21.3345 74.9992 21.3484 75.6157C21.3623 76.2322 21.2103 76.8411 20.9082 77.3787C20.5682 78.0887 20.1382 78.7687 19.7982 79.4887C18.7852 81.4699 18.4114 83.7163 18.7282 85.9187C18.7282 86.2887 18.7282 86.6487 18.7282 87.0087C18.77 87.8955 18.4934 88.7681 17.9482 89.4687C17.4419 90.0686 16.7496 90.482 15.9813 90.6433C15.2131 90.8046 14.413 90.7044 13.7082 90.3587C13.2718 90.2235 12.876 89.9818 12.5565 89.6553C12.237 89.3288 12.0039 88.9279 11.8782 88.4887ZM22.5581 102.149C22.5581 102.409 22.5581 102.659 22.5581 102.919C22.506 105.883 21.7703 108.795 20.4082 111.429C19.9905 112.209 19.5159 112.958 18.9882 113.669C18.6062 114.251 18.0334 114.682 17.3682 114.889C16.9995 115.002 16.6117 115.039 16.2282 114.999C15.6127 115.032 14.9997 114.899 14.4529 114.615C13.9061 114.33 13.4454 113.905 13.1187 113.382C12.7921 112.859 12.6114 112.259 12.5955 111.643C12.5795 111.027 12.7289 110.418 13.0282 109.879C13.3782 109.159 13.7982 108.479 14.1482 107.769C15.1527 105.785 15.5227 103.54 15.2082 101.339C15.2082 100.979 15.2082 100.609 15.2082 100.239C15.1698 99.3538 15.4501 98.4845 15.9982 97.7887C16.5007 97.1867 17.1914 96.7715 17.9588 96.61C18.7262 96.4485 19.5256 96.5503 20.2282 96.8987C20.6651 97.0297 21.0619 97.2688 21.3818 97.594C21.7017 97.9191 21.9343 98.3197 22.0581 98.7587C22.0581 98.9187 22.1682 99.0787 22.2082 99.2487C22.2482 99.4187 22.2582 99.5887 22.2982 99.7687C22.3382 99.9487 22.3482 100.069 22.3782 100.219C22.471 100.765 22.5345 101.316 22.5682 101.869C22.5598 101.962 22.5565 102.055 22.5581 102.149ZM35.4482 104.449C35.2012 107.838 33.9554 111.077 31.8682 113.759C31.3609 114.39 30.645 114.819 29.8494 114.969C29.0538 115.12 28.2307 114.981 27.5282 114.579C26.7768 114.222 26.1798 113.605 25.8472 112.842C25.5146 112.08 25.4687 111.222 25.7182 110.429C25.9455 109.796 26.2335 109.186 26.5782 108.609C27.6754 106.913 28.2699 104.942 28.2929 102.923C28.3159 100.903 27.7664 98.9187 26.7082 97.1987C24.8382 93.9187 23.1482 90.5987 22.8882 86.7287C22.4353 82.2006 23.5585 77.6549 26.0682 73.8587C26.4309 73.3044 26.9388 72.8601 27.5365 72.5745C28.1343 72.2888 28.799 72.1727 29.4582 72.2387C30.0614 72.2336 30.6551 72.389 31.1784 72.6891C31.7017 72.9891 32.1358 73.423 32.4361 73.9462C32.7363 74.4694 32.892 75.063 32.8871 75.6662C32.8822 76.2694 32.7169 76.8605 32.4082 77.3787C29.2682 82.5687 29.4082 87.6787 32.5682 92.7587C34.8005 96.2271 35.8138 100.34 35.4482 104.449V104.449ZM36.6482 88.4487C36.5897 88.2924 36.5428 88.132 36.5082 87.9687C36.5082 87.7987 36.4482 87.6187 36.4082 87.4487C36.3682 87.2787 36.4082 87.1487 36.3282 86.9987C36.2347 86.4493 36.1713 85.8951 36.1382 85.3387C36.1382 85.2487 36.1382 85.1587 36.1382 85.0687C36.1382 84.8087 36.1382 84.5587 36.1382 84.2987C36.1927 81.3335 36.9319 78.421 38.2982 75.7887C38.7087 75.0062 39.1801 74.2572 39.7082 73.5487C40.0902 72.9663 40.6629 72.535 41.3282 72.3287C41.6993 72.2104 42.0914 72.1729 42.4782 72.2187C43.0928 72.1878 43.7045 72.3218 44.2499 72.6068C44.7952 72.8919 45.2545 73.3177 45.5799 73.84C45.9053 74.3623 46.0851 74.9621 46.1006 75.5773C46.1161 76.1925 45.9668 76.8007 45.6682 77.3387C45.3182 78.0487 44.8982 78.7287 44.5582 79.4487C43.5452 81.4299 43.1714 83.6763 43.4882 85.8787C43.4882 86.2487 43.4882 86.6087 43.4882 86.9687C43.5248 87.8548 43.2487 88.7256 42.7082 89.4287C42.2019 90.0286 41.5096 90.442 40.7413 90.6033C39.9731 90.7646 39.1729 90.6644 38.4682 90.3187C38.0374 90.1875 37.6458 89.9517 37.3283 89.6324C37.0107 89.3131 36.7771 88.9202 36.6482 88.4887V88.4487ZM47.3182 102.109C47.3182 102.369 47.3182 102.619 47.3182 102.879C47.2565 105.842 46.5213 108.752 45.1682 111.389C44.7506 112.169 44.2759 112.918 43.7482 113.629C43.3661 114.211 42.7934 114.642 42.1282 114.849C41.7561 114.962 41.365 115 40.9782 114.959C40.3636 114.99 39.7518 114.856 39.2065 114.571C38.6611 114.286 38.2019 113.86 37.8764 113.337C37.551 112.815 37.3713 112.215 37.3557 111.6C37.3402 110.985 37.4895 110.377 37.7882 109.839C38.1382 109.119 38.5582 108.439 38.9082 107.729C39.9126 105.745 40.2827 103.5 39.9682 101.299C39.9682 100.939 39.9682 100.569 39.9682 100.199C39.9313 99.3157 40.2076 98.448 40.7482 97.7487C41.2524 97.1459 41.9448 96.7303 42.7139 96.5688C43.483 96.4074 44.2841 96.5095 44.9882 96.8587C45.4251 96.9897 45.8219 97.2288 46.1418 97.554C46.4617 97.8791 46.6943 98.2797 46.8182 98.7187C46.8682 98.8787 46.9282 99.0387 46.9682 99.2087C47.0082 99.3787 47.0182 99.5487 47.0582 99.7287C47.0982 99.9087 47.1082 100.029 47.1382 100.179C47.2311 100.725 47.2945 101.276 47.3282 101.829C47.3282 101.969 47.3182 102.049 47.3182 102.149V102.109Z" fill="white"/>
<path d="M94.7282 63.2788C78.2182 63.1188 64.4482 76.4888 64.3182 92.8088C64.2116 98.7633 65.8756 104.615 69.0992 109.623C72.3228 114.631 76.9608 118.568 82.4252 120.937C87.8895 123.305 93.934 123.998 99.7924 122.926C105.651 121.855 111.059 119.068 115.332 114.919C119.604 110.77 122.549 105.446 123.791 99.6218C125.034 93.7975 124.519 87.7352 122.312 82.2037C120.106 76.6722 116.306 71.9206 111.395 68.5514C106.484 65.1821 100.683 63.3471 94.7282 63.2788ZM97.3382 76.5288C97.4692 76.0919 97.7083 75.6951 98.0334 75.3752C98.3586 75.0553 98.7592 74.8226 99.1982 74.6988C99.3579 74.6403 99.5216 74.5935 99.6882 74.5588L100.208 74.4588L100.658 74.3788C101.204 74.2847 101.755 74.2213 102.308 74.1888H102.588C102.848 74.1888 103.098 74.1888 103.348 74.1888C106.316 74.2492 109.23 74.9881 111.868 76.3488C112.649 76.7616 113.398 77.2329 114.108 77.7588C114.691 78.1408 115.122 78.7135 115.328 79.3788C115.443 79.7506 115.477 80.1427 115.428 80.5288C115.462 81.1445 115.331 81.7581 115.046 82.3054C114.762 82.8526 114.336 83.3134 113.813 83.6395C113.289 83.9656 112.688 84.1451 112.071 84.159C111.455 84.1729 110.846 84.0209 110.308 83.7188C109.598 83.3788 108.918 82.9488 108.198 82.5988C106.213 81.598 103.969 81.2281 101.768 81.5388H100.678C99.7951 81.5756 98.9274 81.2994 98.2282 80.7588C97.6261 80.2562 97.2109 79.5656 97.0495 78.7981C96.888 78.0307 96.9897 77.2313 97.3382 76.5288V76.5288ZM72.6982 79.0288C72.6653 78.4133 72.7979 77.8003 73.0822 77.2535C73.3665 76.7067 73.7921 76.246 74.3148 75.9193C74.8374 75.5927 75.438 75.412 76.0541 75.3961C76.6702 75.3801 77.2794 75.5296 77.8182 75.8288C78.5282 76.1788 79.2082 76.5988 79.9282 76.9488C81.9117 77.9545 84.1568 78.3246 86.3582 78.0088C86.7182 78.0088 87.0782 78.0088 87.4482 78.0088C88.3342 77.973 89.2047 78.249 89.9082 78.7888C90.5093 79.2943 90.923 79.9873 91.0826 80.7563C91.2422 81.5254 91.1385 82.3258 90.7882 83.0288C90.6589 83.4666 90.4203 83.8642 90.0949 84.1844C89.7695 84.5045 89.368 84.7366 88.9282 84.8588C88.7682 84.9088 88.6082 84.9688 88.4482 85.0088L87.9282 85.0988L87.4782 85.1788C86.9285 85.2711 86.3744 85.3345 85.8182 85.3688H85.5382C85.2782 85.3688 85.0282 85.3688 84.7682 85.3688C81.8033 85.3118 78.8914 84.5726 76.2582 83.2088C75.4783 82.7936 74.7297 82.3224 74.0182 81.7988C73.4358 81.4168 73.0045 80.844 72.7982 80.1788C72.6823 79.8071 72.6482 79.4148 72.6982 79.0288V79.0288ZM90.7882 109.699C90.6589 110.137 90.4203 110.534 90.0949 110.854C89.7695 111.175 89.368 111.407 88.9282 111.529L88.4482 111.699L87.9282 111.779C87.7782 111.779 87.6182 111.839 87.4782 111.869C86.9285 111.961 86.3744 112.025 85.8182 112.059H85.5382C85.2782 112.059 85.0282 112.059 84.7682 112.059C81.8033 112.002 78.8914 111.263 76.2582 109.899C75.4783 109.484 74.7297 109.012 74.0182 108.489C73.4358 108.107 73.0045 107.534 72.7982 106.869C72.6833 106.497 72.6492 106.105 72.6982 105.719C72.6672 105.104 72.8012 104.492 73.0863 103.947C73.3714 103.402 73.7971 102.942 74.3194 102.617C74.8417 102.292 75.4416 102.112 76.0568 102.096C76.672 102.081 77.2801 102.23 77.8182 102.529C78.5282 102.879 79.2082 103.299 79.9282 103.639C81.9091 104.652 84.1558 105.026 86.3582 104.709C86.7182 104.709 87.0782 104.709 87.4482 104.709C88.3342 104.673 89.2047 104.949 89.9082 105.489C90.5025 105.992 90.9117 106.68 91.0711 107.443C91.2305 108.205 91.131 108.999 90.7882 109.699V109.699ZM115.448 107.189C115.479 107.803 115.345 108.415 115.06 108.96C114.775 109.506 114.349 109.965 113.827 110.29C113.305 110.616 112.705 110.796 112.09 110.811C111.474 110.827 110.866 110.677 110.328 110.379C109.618 110.029 108.938 109.609 108.218 109.259C106.235 108.253 103.99 107.883 101.788 108.199C101.428 108.199 101.068 108.199 100.698 108.199C99.8151 108.236 98.9474 107.959 98.2482 107.419C97.6438 106.916 97.2271 106.223 97.0656 105.454C96.9041 104.684 97.0072 103.882 97.3582 103.179C97.4892 102.742 97.7283 102.345 98.0534 102.025C98.3786 101.705 98.7792 101.473 99.2182 101.349C99.3782 101.349 99.5282 101.239 99.7082 101.199L100.228 101.109L100.678 101.029C101.224 100.935 101.775 100.871 102.328 100.839H102.608C102.868 100.839 103.118 100.839 103.368 100.839C106.335 100.895 109.25 101.631 111.888 102.989C112.667 103.409 113.416 103.883 114.128 104.409C114.711 104.791 115.142 105.364 115.348 106.029C115.465 106.404 115.499 106.799 115.448 107.189V107.189ZM115.068 93.8988C114.67 94.6795 113.988 95.2776 113.161 95.5697C112.335 95.8619 111.428 95.8257 110.628 95.4688C109.863 95.1234 109.115 94.7396 108.388 94.3188C106.936 93.5297 105.319 93.0924 103.668 93.042C102.016 92.9917 100.375 93.3296 98.8782 94.0288C97.3382 94.6988 95.8782 95.6588 94.4182 96.3988C91.527 97.8561 88.3275 98.596 85.0901 98.5559C81.8526 98.5159 78.6724 97.6971 75.8182 96.1688C74.1982 95.3688 72.7382 94.3488 72.8182 92.1688C72.811 91.4684 72.993 90.7791 73.345 90.1737C73.697 89.5682 74.206 89.069 74.8182 88.7288C76.0782 88.0288 77.2282 88.4188 78.3882 89.1188C82.9782 91.8388 87.6682 92.0588 92.2882 89.3088C96.1482 87.0088 100.158 85.5188 104.728 85.8488C108.105 86.0842 111.349 87.2546 114.098 89.2288C114.806 89.7521 115.294 90.5189 115.47 91.3813C115.645 92.2438 115.495 93.1406 115.048 93.8988H115.068Z" fill="white"/>
<path d="M94.2681 59.9998C100.203 60.0235 106.011 58.2865 110.958 55.0084C115.906 51.7304 119.769 47.0587 122.061 41.5843C124.353 36.1099 124.969 30.0788 123.833 24.254C122.696 18.4292 119.857 13.0724 115.675 8.86122C111.494 4.65008 106.157 1.77385 100.34 0.596394C94.5233 -0.581066 88.488 -0.00684643 82.9977 2.24641C77.5074 4.49966 72.8088 8.33071 69.4962 13.2549C66.1836 18.1791 64.406 23.9751 64.3881 29.9098C64.3644 33.8502 65.1195 37.7565 66.6102 41.4042C68.1008 45.0519 70.2975 48.3691 73.0741 51.1652C75.8507 53.9613 79.1524 56.1811 82.7895 57.6973C86.4267 59.2134 90.3276 59.9959 94.2681 59.9998V59.9998ZM104.108 10.9998C105.398 8.80978 107.328 8.07978 109.298 8.99978C111.478 9.99978 112.098 11.9298 110.828 13.9998C109.238 16.5586 108.5 19.5552 108.718 22.5598C108.959 24.9572 109.794 27.2567 111.148 29.2498C112.616 31.5016 113.562 34.0527 113.919 36.7169C114.275 39.3811 114.032 42.0913 113.208 44.6498C112.53 46.5447 111.62 48.3484 110.498 50.0198C110.069 50.6464 109.435 51.1045 108.706 51.3161C107.976 51.5276 107.196 51.4795 106.498 51.1798C105.756 50.9106 105.117 50.4177 104.667 49.7693C104.217 49.1208 103.98 48.3488 103.988 47.5598C104.388 46.6998 104.718 45.7998 105.198 44.9798C106.307 43.2196 106.885 41.1773 106.864 39.0971C106.843 37.017 106.223 34.9869 105.078 33.2498C102.683 29.6014 101.405 25.3339 101.398 20.9698C101.422 17.4551 102.355 14.0064 104.108 10.9598V10.9998ZM90.9781 10.2998C91.3376 9.74459 91.8435 9.29951 92.4399 9.01365C93.0363 8.72778 93.7002 8.61224 94.3581 8.67978C94.9655 8.66556 95.5657 8.81438 96.0961 9.11075C96.6265 9.40712 97.0678 9.84022 97.3741 10.365C97.6804 10.8897 97.8404 11.487 97.8376 12.0945C97.8348 12.7021 97.6692 13.2979 97.3581 13.8198C94.2181 18.9998 94.3581 24.1098 97.5181 29.1898C99.7462 32.6634 100.756 36.7794 100.388 40.8898C100.149 44.2788 98.9066 47.52 96.8181 50.1998C96.3119 50.8326 95.5953 51.2626 94.7986 51.4113C94.002 51.5599 93.1785 51.4175 92.4781 51.0098C91.7261 50.6561 91.128 50.0414 90.7951 49.2799C90.4622 48.5185 90.4171 47.662 90.6681 46.8698C90.8892 46.2311 91.1775 45.6176 91.5281 45.0398C92.6256 43.3463 93.2203 41.3764 93.2433 39.3586C93.2663 37.3408 92.7167 35.3578 91.6581 33.6398C89.7881 30.3498 88.0981 27.0298 87.8381 23.1698C87.3633 18.633 88.4727 14.0717 90.9781 10.2598V10.2998ZM77.9781 10.2398C78.4618 9.51055 79.1945 8.98246 80.0393 8.75424C80.8841 8.52602 81.783 8.61331 82.5681 8.99978C83.065 9.15922 83.5161 9.43595 83.8834 9.80658C84.2508 10.1772 84.5235 10.6309 84.6784 11.1291C84.8334 11.6274 84.8661 12.1557 84.7738 12.6692C84.6815 13.1828 84.4669 13.6666 84.1481 14.0798C83.1184 15.624 82.4374 17.3739 82.1525 19.2079C81.8675 21.0419 81.9855 22.916 82.4981 24.6998C83.2857 26.773 84.2387 28.7794 85.3481 30.6998C86.9413 33.6642 87.6715 37.0158 87.4558 40.3743C87.2402 43.7327 86.0873 46.9635 84.1281 49.6998C83.8106 50.2362 83.3561 50.6785 82.8111 50.981C82.2661 51.2836 81.6503 51.4355 81.0271 51.4213C80.4039 51.407 79.7958 51.2271 79.2652 50.8999C78.7346 50.5727 78.3007 50.1102 78.0081 49.5598C77.6637 48.6408 77.5705 47.6467 77.7381 46.6798C77.8659 46.0601 78.1288 45.4762 78.5081 44.9698C79.5962 43.2698 80.1828 41.2975 80.2005 39.2792C80.2182 37.2609 79.6663 35.2785 78.6081 33.5598C77.2081 31.0098 75.6081 28.5598 75.1781 25.5598C74.9381 24.0698 74.7981 22.5598 74.6781 21.5598C74.8681 17.1498 75.7081 13.4398 78.0081 10.1998L77.9781 10.2398Z" fill="white"/>
<path d="M148.498 30.5085H151.648C153.779 30.5881 155.903 30.2273 157.888 29.4485C159.322 28.9032 160.492 27.8297 161.158 26.4485C161.871 24.4284 162.177 22.2873 162.058 20.1485V16.1785C162.118 14.0812 161.961 11.9833 161.588 9.91852C161.318 8.63465 160.715 7.44464 159.838 6.46852C158.768 5.40379 157.426 4.6532 155.958 4.29852C153.544 3.71177 151.061 3.4561 148.578 3.53852H136.758V48.6985H148.498V30.5085ZM148.498 11.2685C150.018 11.2685 151.028 11.4985 151.498 11.9685C151.968 12.4385 152.228 13.4285 152.228 14.9685V18.6985C152.348 19.8366 152.129 20.9846 151.598 21.9985C151.308 22.2936 150.955 22.519 150.565 22.6576C150.175 22.7962 149.759 22.8444 149.348 22.7985H148.488L148.498 11.2685Z" fill="white"/>
<path d="M187.278 48.389C189.058 47.6488 190.606 46.4446 191.762 44.902C192.918 43.3594 193.638 41.5349 193.848 39.619C194.062 37.7323 194.168 34.519 194.168 29.979V22.259C194.223 18.9988 194.113 15.738 193.838 12.489C193.593 10.5681 192.839 8.74766 191.654 7.21622C190.469 5.68478 188.896 4.49805 187.098 3.77898C185.027 2.95969 182.815 2.55536 180.588 2.58898C178.292 2.54523 176.012 2.97412 173.888 3.84898C172.11 4.59056 170.564 5.79538 169.41 7.33788C168.256 8.88038 167.537 10.7041 167.328 12.619C167.108 14.509 167.008 17.719 167.008 22.259V29.979C166.954 33.2391 167.064 36.4999 167.338 39.749C167.579 41.6712 168.331 43.4935 169.517 45.0257C170.703 46.5578 172.278 47.7435 174.078 48.459C176.149 49.2783 178.361 49.6826 180.588 49.649C182.882 49.6986 185.16 49.2694 187.278 48.389V48.389ZM179.068 41.079C178.763 39.4816 178.652 37.853 178.738 36.229V15.149C178.738 12.819 178.908 11.419 179.238 10.949C179.389 10.7182 179.597 10.5311 179.843 10.4065C180.089 10.2818 180.363 10.2241 180.638 10.239C180.94 10.2067 181.245 10.2743 181.505 10.4314C181.765 10.5885 181.966 10.8265 182.078 11.109C182.384 12.419 182.502 13.7658 182.428 15.109V35.899C182.508 37.5732 182.394 39.251 182.088 40.899C182.002 41.2292 181.8 41.5176 181.519 41.712C181.239 41.9064 180.898 41.994 180.558 41.959C180.247 42.0023 179.93 41.9389 179.66 41.7791C179.389 41.6193 179.18 41.3725 179.068 41.079V41.079Z" fill="white"/>
<path d="M225.968 56.4798H234.078V39.2198H231.688V3.50977H205.688V4.87976C205.716 11.5067 205.302 18.128 204.448 24.6998C203.878 29.6575 202.836 34.5496 201.338 39.3098H198.938V56.5198H207.028V48.6998H226.028L225.968 56.4798ZM219.968 39.2198H213.688C215.508 30.5203 216.433 21.6575 216.448 12.7698V12.4398H219.938L219.968 39.2198Z" fill="white"/>
<path d="M266.338 48.6991V3.53906H254.598V19.6891H251.078V3.53906H239.328V48.6991H251.078V29.7291H254.598V48.6991H266.338Z" fill="white"/>
<path d="M298.828 48.6998V3.50977H289.008L282.428 23.8998V3.50977H272.608V48.6998H282.898L289.008 28.1398V48.6998H298.828Z" fill="white"/>
<path d="M322.448 3.50977C321.258 4.64977 320.618 6.83977 320.548 10.0998L320.328 18.9098C320.248 21.3098 319.108 22.5398 316.888 22.5898L316.838 3.50977H305.078V48.6998H316.848L316.898 29.5698C317.39 29.5508 317.88 29.6349 318.337 29.8166C318.795 29.9983 319.209 30.2736 319.554 30.6248C319.898 30.976 320.166 31.3954 320.339 31.8561C320.512 32.3168 320.586 32.8085 320.558 33.2998V42.1198C320.558 45.3698 321.188 47.5698 322.458 48.6998H333.308C332.248 47.2464 331.728 44.8098 331.748 41.3898L331.798 34.1998C331.838 29.4264 329.198 26.7198 323.878 26.0798C329.211 25.4131 331.851 22.7464 331.798 18.0798L331.748 10.3298C331.748 6.88976 332.268 4.61976 333.308 3.51976L322.448 3.50977Z" fill="white"/>
<path d="M354.348 3.50977L347.768 23.8998V3.50977H337.948V48.6998H348.238L354.348 28.1398V48.6998H364.168V3.50977H354.348Z" fill="white"/>
<path d="M161.448 75.9591C160.377 74.8956 159.035 74.1452 157.568 73.7891C155.153 73.2073 152.671 72.9517 150.188 73.0291H138.368V118.189H150.118V100.009H153.268C155.399 100.09 157.524 99.729 159.508 98.9491C160.937 98.396 162.104 97.3248 162.778 95.9491C163.49 93.9288 163.796 91.7879 163.678 89.6491V85.6991C163.738 83.6018 163.58 81.504 163.208 79.4391C162.94 78.1436 162.333 76.9426 161.448 75.9591ZM153.838 88.1791C153.952 89.319 153.737 90.4676 153.218 91.4891C152.927 91.7824 152.574 92.006 152.184 92.1428C151.794 92.2796 151.379 92.3262 150.968 92.2791H150.108V80.7591C151.628 80.7591 152.638 80.9891 153.108 81.4591C153.578 81.9291 153.828 82.9291 153.828 84.4591L153.838 88.1791Z" fill="white"/>
<path d="M200.508 76.8294C199.32 75.2326 197.71 73.9996 195.858 73.2694C193.785 72.4585 191.574 72.0577 189.348 72.0894C187.053 72.0428 184.772 72.4682 182.648 73.3394C180.871 74.0831 179.325 75.2883 178.17 76.8302C177.014 78.3721 176.292 80.1947 176.078 82.1094C175.871 84.0027 175.765 87.2161 175.758 91.7494V99.4794C175.7 102.736 175.814 105.994 176.098 109.239C176.325 111.114 177.047 112.895 178.188 114.399C179.378 115.99 180.983 117.222 182.828 117.959C184.903 118.775 187.119 119.176 189.348 119.139C191.641 119.189 193.92 118.76 196.038 117.879C197.818 117.139 199.366 115.935 200.522 114.392C201.677 112.85 202.398 111.025 202.608 109.109C202.821 107.229 202.928 104.019 202.928 99.4794V91.7494C202.986 88.4924 202.873 85.2345 202.588 81.9894C202.364 80.1155 201.646 78.3347 200.508 76.8294ZM191.188 105.389C191.271 107.08 191.157 108.775 190.848 110.439C190.762 110.77 190.56 111.058 190.279 111.252C189.999 111.447 189.658 111.534 189.318 111.499C189.002 111.538 188.682 111.468 188.412 111.301C188.141 111.134 187.935 110.879 187.828 110.579C187.528 108.981 187.421 107.353 187.508 105.729V84.6394C187.508 82.3194 187.668 80.9094 187.988 80.4394C188.144 80.1975 188.361 80.0015 188.618 79.8714C188.874 79.7414 189.161 79.682 189.448 79.6994C189.752 79.6661 190.058 79.7344 190.318 79.8936C190.579 80.0529 190.779 80.2941 190.888 80.5794C191.196 81.889 191.314 83.2362 191.238 84.5794L191.188 105.389Z" fill="white"/>
<path d="M237.978 74.0898C235.616 72.9068 233.032 72.2324 230.394 72.1101C227.755 71.9878 225.119 72.4203 222.658 73.3798C220.833 74.1362 219.242 75.365 218.048 76.9398C216.997 78.3133 216.309 79.9298 216.048 81.6398C215.783 84.0703 215.673 86.5153 215.718 88.9598V102.16C215.59 105.508 215.953 108.857 216.798 112.1C217.553 114.333 219.144 116.187 221.238 117.27C223.865 118.61 226.791 119.254 229.738 119.14C232.681 119.24 235.589 118.471 238.098 116.93C240.101 115.765 241.646 113.952 242.478 111.79C243.128 109.79 243.478 106.52 243.478 101.85V100.09H231.728V105.77C231.823 107.354 231.688 108.944 231.328 110.49C231.153 110.795 230.9 111.049 230.596 111.225C230.291 111.402 229.945 111.495 229.593 111.495C229.241 111.495 228.895 111.402 228.591 111.225C228.286 111.049 228.033 110.795 227.858 110.49C227.517 109.087 227.385 107.641 227.468 106.2V85.1998C227.385 83.7021 227.516 82.2003 227.858 80.7398C228.013 80.3949 228.277 80.1104 228.61 79.9298C228.942 79.7492 229.324 79.6824 229.698 79.7398C230.029 79.6932 230.366 79.7498 230.663 79.902C230.96 80.0541 231.203 80.2943 231.358 80.5898C231.697 81.9862 231.822 83.4259 231.728 84.8598V92.6998H243.448V88.4098C243.581 85.2669 243.223 82.1225 242.388 79.0898C241.557 76.9535 239.994 75.1817 237.978 74.0898Z" fill="white"/>
<path d="M278.308 74.0901C275.944 72.9069 273.359 72.2324 270.718 72.1101C268.078 71.9878 265.441 72.4204 262.978 73.3801C261.157 74.1397 259.57 75.368 258.378 76.9401C257.327 78.3136 256.639 79.9301 256.378 81.6401C256.118 84.071 256.008 86.5157 256.048 88.9601V102.16C255.919 105.508 256.283 108.858 257.128 112.1C257.883 114.333 259.474 116.187 261.568 117.27C264.198 118.612 267.128 119.256 270.078 119.14C273.018 119.238 275.922 118.47 278.428 116.93C280.432 115.768 281.978 113.954 282.808 111.79C283.468 109.79 283.808 106.52 283.808 101.85V100.09H272.058V105.77C272.153 107.355 272.018 108.944 271.658 110.49C271.52 110.819 271.278 111.095 270.97 111.275C270.661 111.456 270.303 111.531 269.948 111.49C269.586 111.539 269.217 111.468 268.899 111.287C268.581 111.107 268.331 110.826 268.188 110.49C267.847 109.087 267.715 107.642 267.798 106.2V85.2001C267.715 83.7025 267.846 82.2006 268.188 80.7401C268.343 80.3952 268.607 80.1107 268.94 79.9301C269.272 79.7495 269.654 79.6827 270.028 79.7401C270.359 79.692 270.696 79.748 270.994 79.9003C271.291 80.0526 271.534 80.2937 271.688 80.5901C272.027 81.9865 272.152 83.4263 272.058 84.8601V92.7001H283.808V88.4101C283.941 85.2673 283.583 82.1229 282.748 79.0901C281.909 76.949 280.335 75.1765 278.308 74.0901V74.0901Z" fill="white"/>
<path d="M306.538 93.3898V73.0098H296.718V118.19H307.008L313.118 97.6398V118.19H322.938V73.0098H313.118L306.538 93.3898Z" fill="white"/>
<path d="M346.148 93.3898V73.0098H336.328V118.19H346.618L352.728 97.6398V118.19H362.548V73.0098H352.728L346.148 93.3898Z" fill="white"/>
<path fill-rule="evenodd" clip-rule="evenodd" d="M30.6081 0.299739C24.6532 0.193151 18.8006 1.85739 13.7927 5.08142C8.78486 8.30544 4.8472 12.944 2.47909 18.4089C0.110973 23.8738 -0.580908 29.9189 0.491173 35.7776C1.56325 41.6362 4.351 47.0446 8.50091 51.3168C12.6508 55.5889 17.9759 58.5325 23.801 59.7742C29.6261 61.0159 35.6887 60.4998 41.2201 58.2913C46.7514 56.0828 51.5024 52.2814 54.8704 47.3692C58.2384 42.4571 60.0718 36.6553 60.1381 30.6997C60.2981 14.1997 46.9181 0.429739 30.6081 0.299739ZM27.0081 48.5397C26.873 48.9761 26.6312 49.3719 26.3047 49.6914C25.9782 50.0109 25.5773 50.244 25.1381 50.3697C24.9814 50.4269 24.821 50.4737 24.6581 50.5097L24.1381 50.6097L23.6881 50.6797C23.1395 50.7809 22.5851 50.8476 22.0281 50.8797H21.7481C21.4881 50.8797 21.2481 50.8797 20.9781 50.8797C18.0049 50.8196 15.0857 50.0736 12.4481 48.6997C11.6702 48.2868 10.9247 47.8155 10.2181 47.2897C9.63574 46.9077 9.20441 46.335 8.99813 45.6697C8.87985 45.2986 8.84236 44.9065 8.88815 44.5197C8.85389 43.904 8.98576 43.2904 9.26998 42.7431C9.55421 42.1959 9.98035 41.7351 10.5037 41.409C11.0271 41.0829 11.6286 40.9034 12.2451 40.8895C12.8616 40.8756 13.4705 41.0276 14.0081 41.3297C14.7181 41.6697 15.3982 42.0997 16.1182 42.4397C18.1022 43.4439 20.3458 43.8173 22.5481 43.5097H23.6381C24.5247 43.4696 25.3967 43.7461 26.0981 44.2897C26.7037 44.794 27.1224 45.487 27.2874 46.2575C27.4524 47.0281 27.3541 47.8317 27.0081 48.5397V48.5397ZM27.0081 33.2797C26.873 33.7161 26.6312 34.1119 26.3047 34.4314C25.9782 34.7509 25.5773 34.984 25.1381 35.1097C24.9814 35.1669 24.821 35.2137 24.6581 35.2497L24.1381 35.3497L23.6881 35.4297C23.1386 35.5226 22.5845 35.5861 22.0281 35.6197H21.7481C21.4881 35.6197 21.2481 35.6197 20.9781 35.6197C18.0055 35.555 15.0873 34.8092 12.4481 33.4397C11.6702 33.0268 10.9247 32.5555 10.2181 32.0297C9.63574 31.6477 9.20441 31.075 8.99813 30.4097C8.87985 30.0386 8.84236 29.6465 8.88815 29.2597C8.85719 28.6451 8.9912 28.0334 9.27627 27.488C9.56134 26.9427 9.98708 26.4835 10.5094 26.158C11.0317 25.8326 11.6315 25.6528 12.2467 25.6373C12.8619 25.6218 13.4701 25.7711 14.0081 26.0697C14.7181 26.4097 15.3982 26.8397 16.1182 27.1897C18.1016 28.1955 20.3468 28.5656 22.5481 28.2497H23.6381C24.5241 28.214 25.3946 28.49 26.0981 29.0297C26.7037 29.5341 27.1224 30.227 27.2874 30.9975C27.4524 31.7681 27.3541 32.5717 27.0081 33.2797V33.2797ZM27.0081 19.7797C26.8746 20.217 26.6334 20.6136 26.3067 20.9334C25.9799 21.2531 25.5781 21.4857 25.1381 21.6097C24.9816 21.6702 24.8213 21.7203 24.6581 21.7597L24.1381 21.8497L23.6881 21.9297C23.1386 22.0226 22.5845 22.0861 22.0281 22.1197H21.7481C21.4881 22.1197 21.2481 22.1197 20.9781 22.1197C18.0056 22.0634 15.0863 21.3208 12.4481 19.9497C11.6722 19.5297 10.927 19.0552 10.2181 18.5297C9.63574 18.1477 9.20441 17.575 8.99813 16.9097C8.87975 16.5421 8.84224 16.1532 8.88815 15.7697C8.8553 15.1543 8.98791 14.5413 9.27221 13.9945C9.55651 13.4476 9.98212 12.987 10.5048 12.6603C11.0274 12.3337 11.628 12.153 12.2441 12.1371C12.8602 12.1211 13.4693 12.2705 14.0081 12.5697C14.7181 12.9197 15.3982 13.3397 16.1182 13.6897C18.1016 14.6955 20.3468 15.0656 22.5481 14.7497C22.9081 14.7497 23.2781 14.7497 23.6381 14.7497C24.5241 14.714 25.3946 14.99 26.0981 15.5297C26.7037 16.0341 27.1224 16.727 27.2874 17.4975C27.4524 18.2681 27.3541 19.0717 27.0081 19.7797V19.7797ZM51.6482 46.0397C51.681 46.6552 51.5484 47.2682 51.2641 47.815C50.9798 48.3618 50.5542 48.8225 50.0315 49.1492C49.5089 49.4758 48.9083 49.6565 48.2922 49.6724C47.6761 49.6884 47.0669 49.539 46.5281 49.2397C45.8081 48.8897 45.1281 48.4697 44.4081 48.1197C42.428 47.1148 40.1862 46.7447 37.9882 47.0597C37.6182 47.0597 37.2581 47.0597 36.8881 47.0597C36.0032 47.0981 35.1339 46.8178 34.4381 46.2697C33.8338 45.7666 33.4171 45.0741 33.2556 44.3046C33.094 43.535 33.1971 42.7334 33.5481 42.0297C33.6801 41.5868 33.9245 41.1854 34.2574 40.8648C34.5903 40.5441 35.0005 40.315 35.4481 40.1997C35.6076 40.1379 35.7714 40.0877 35.9381 40.0497L36.4582 39.9597L36.9081 39.8797C37.4536 39.7819 38.0047 39.7185 38.5581 39.6897C38.6514 39.6947 38.7449 39.6947 38.8382 39.6897H39.5981C42.5657 39.7418 45.4813 40.4775 48.1182 41.8397C48.8987 42.2573 49.6474 42.732 50.3581 43.2597C50.9405 43.6417 51.3719 44.2145 51.5781 44.8797C51.686 45.2566 51.7099 45.6526 51.6482 46.0397V46.0397ZM51.6482 30.7797C51.681 31.3952 51.5484 32.0082 51.2641 32.555C50.9798 33.1018 50.5542 33.5625 50.0315 33.8892C49.5089 34.2158 48.9083 34.3965 48.2922 34.4124C47.6761 34.4284 47.0669 34.2789 46.5281 33.9797C45.8081 33.6297 45.1281 33.2097 44.4081 32.8597C42.428 31.8548 40.1862 31.4847 37.9882 31.7997C37.6182 31.7997 37.2581 31.7997 36.8881 31.7997C36.0051 31.8366 35.1374 31.5603 34.4381 31.0197C33.8338 30.5166 33.4171 29.8241 33.2556 29.0546C33.094 28.285 33.1971 27.4834 33.5481 26.7797C33.6795 26.3354 33.9235 25.9325 34.2564 25.6101C34.5893 25.2877 34.9998 25.0568 35.4481 24.9397C35.6081 24.9397 35.7581 24.8297 35.9381 24.7897L36.4481 24.6997L36.8982 24.6197C37.4443 24.5268 37.9951 24.4634 38.5481 24.4297H38.8281C39.0881 24.4297 39.3382 24.4297 39.5882 24.4297C42.5564 24.4852 45.472 25.2244 48.1081 26.5897C48.8907 27.0002 49.6396 27.4717 50.3481 27.9997C50.9305 28.3818 51.3619 28.9545 51.5681 29.6197C51.6794 29.9959 51.7067 30.3919 51.6482 30.7797ZM51.6482 17.2897C51.6791 17.9043 51.5451 18.5161 51.26 19.0614C50.975 19.6068 50.5492 20.066 50.0269 20.3915C49.5046 20.7169 48.9047 20.8967 48.2895 20.9122C47.6743 20.9277 47.0662 20.7784 46.5281 20.4797C45.8081 20.1297 45.1281 19.7097 44.4081 19.3697C42.4305 18.357 40.1873 17.9831 37.9882 18.2997C37.6182 18.2997 37.2581 18.2997 36.8881 18.2997C36.0044 18.3419 35.1349 18.0651 34.4381 17.5197C33.8338 17.0166 33.4171 16.3241 33.2556 15.5546C33.094 14.785 33.1971 13.9834 33.5481 13.2797C33.6813 12.8363 33.9258 12.4343 34.2584 12.1122C34.591 11.7901 35.0006 11.5586 35.4481 11.4397C35.6079 11.3812 35.7716 11.3344 35.9381 11.2997C36.1081 11.2997 36.2782 11.2397 36.4582 11.2097L36.9081 11.1197C37.4543 11.0268 38.0051 10.9634 38.5581 10.9297H38.8382C39.0982 10.9297 39.3481 10.9297 39.5981 10.9297C42.5657 10.9902 45.4802 11.7291 48.1182 13.0897C48.9007 13.5002 49.6496 13.9717 50.3581 14.4997C50.9405 14.8818 51.3719 15.4545 51.5781 16.1197C51.6859 16.5001 51.7098 16.8993 51.6482 17.2897V17.2897Z" fill="white"/>
<path fill-rule="evenodd" clip-rule="evenodd" d="M30.1482 63.8087C24.2203 63.7911 18.4201 65.53 13.4797 68.806C8.53935 72.082 4.68021 76.7482 2.38948 82.2155C0.0987439 87.6829 -0.520907 93.7064 0.608748 99.5256C1.7384 105.345 4.56671 110.699 8.73668 114.912C12.9066 119.125 18.2313 122.009 24.0386 123.198C29.8459 124.388 35.8754 123.83 41.3661 121.596C46.8568 119.362 51.5625 115.551 54.8893 110.645C58.216 105.738 60.0147 99.9564 60.0582 94.0287C60.0991 90.0749 59.3557 86.1521 57.871 82.4874C56.3862 78.8227 54.1896 75.4888 51.4081 72.6785C48.6266 69.8682 45.3155 67.6372 41.6663 66.1148C38.0171 64.5923 34.1022 63.8085 30.1482 63.8087V63.8087ZM11.8782 88.4887C11.8196 88.3324 11.7729 88.172 11.7382 88.0087C11.7382 87.8387 11.6782 87.6587 11.6482 87.4887C11.6182 87.3187 11.5882 87.1887 11.5682 87.0387C11.4649 86.4907 11.4014 85.9359 11.3782 85.3787C11.3732 85.2888 11.3732 85.1987 11.3782 85.1087C11.3782 84.8487 11.3782 84.5987 11.3782 84.3387C11.4377 81.3742 12.1766 78.4628 13.5382 75.8287C13.9487 75.0462 14.4201 74.2972 14.9482 73.5887C15.3302 73.0063 15.9029 72.575 16.5682 72.3687C16.9393 72.2504 17.3314 72.2129 17.7182 72.2587C18.3339 72.2245 18.9475 72.3563 19.4948 72.6406C20.042 72.9248 20.5029 73.3509 20.829 73.8743C21.1551 74.3977 21.3345 74.9992 21.3484 75.6157C21.3623 76.2322 21.2103 76.8411 20.9082 77.3787C20.5682 78.0887 20.1382 78.7687 19.7982 79.4887C18.7852 81.4699 18.4114 83.7163 18.7282 85.9187C18.7282 86.2887 18.7282 86.6487 18.7282 87.0087C18.77 87.8955 18.4934 88.7681 17.9482 89.4687C17.4419 90.0686 16.7496 90.482 15.9813 90.6433C15.2131 90.8046 14.413 90.7044 13.7082 90.3587C13.2718 90.2235 12.876 89.9818 12.5565 89.6553C12.237 89.3288 12.0039 88.9279 11.8782 88.4887ZM22.5581 102.149C22.5581 102.409 22.5581 102.659 22.5581 102.919C22.506 105.883 21.7703 108.795 20.4082 111.429C19.9905 112.209 19.5159 112.958 18.9882 113.669C18.6062 114.251 18.0334 114.682 17.3682 114.889C16.9995 115.002 16.6117 115.039 16.2282 114.999C15.6127 115.032 14.9997 114.899 14.4529 114.615C13.9061 114.33 13.4454 113.905 13.1187 113.382C12.7921 112.859 12.6114 112.259 12.5955 111.643C12.5795 111.027 12.7289 110.418 13.0282 109.879C13.3782 109.159 13.7982 108.479 14.1482 107.769C15.1527 105.785 15.5227 103.54 15.2082 101.339C15.2082 100.979 15.2082 100.609 15.2082 100.239C15.1698 99.3538 15.4501 98.4845 15.9982 97.7887C16.5007 97.1867 17.1914 96.7715 17.9588 96.61C18.7262 96.4485 19.5256 96.5503 20.2282 96.8987C20.6651 97.0297 21.0619 97.2688 21.3818 97.594C21.7017 97.9191 21.9343 98.3197 22.0581 98.7587C22.0581 98.9187 22.1682 99.0787 22.2082 99.2487C22.2482 99.4187 22.2582 99.5887 22.2982 99.7687C22.3382 99.9487 22.3482 100.069 22.3782 100.219C22.471 100.765 22.5345 101.316 22.5682 101.869C22.5598 101.962 22.5565 102.055 22.5581 102.149ZM35.4482 104.449C35.2012 107.838 33.9554 111.077 31.8682 113.759C31.3609 114.39 30.645 114.819 29.8494 114.969C29.0538 115.12 28.2307 114.981 27.5282 114.579C26.7768 114.222 26.1798 113.605 25.8472 112.842C25.5146 112.08 25.4687 111.222 25.7182 110.429C25.9455 109.796 26.2335 109.186 26.5782 108.609C27.6754 106.913 28.2699 104.942 28.2929 102.923C28.3159 100.903 27.7664 98.9187 26.7082 97.1987C24.8382 93.9187 23.1482 90.5987 22.8882 86.7287C22.4353 82.2006 23.5585 77.6549 26.0682 73.8587C26.4309 73.3044 26.9388 72.8601 27.5365 72.5745C28.1343 72.2888 28.799 72.1727 29.4582 72.2387C30.0614 72.2336 30.6551 72.389 31.1784 72.6891C31.7017 72.9891 32.1358 73.423 32.4361 73.9462C32.7363 74.4694 32.892 75.063 32.8871 75.6662C32.8822 76.2694 32.7169 76.8605 32.4082 77.3787C29.2682 82.5687 29.4082 87.6787 32.5682 92.7587C34.8005 96.2271 35.8138 100.34 35.4482 104.449V104.449ZM36.6482 88.4487C36.5897 88.2924 36.5428 88.132 36.5082 87.9687C36.5082 87.7987 36.4482 87.6187 36.4082 87.4487C36.3682 87.2787 36.4082 87.1487 36.3282 86.9987C36.2347 86.4493 36.1713 85.8951 36.1382 85.3387C36.1382 85.2487 36.1382 85.1587 36.1382 85.0687C36.1382 84.8087 36.1382 84.5587 36.1382 84.2987C36.1927 81.3335 36.9319 78.421 38.2982 75.7887C38.7087 75.0062 39.1801 74.2572 39.7082 73.5487C40.0902 72.9663 40.6629 72.535 41.3282 72.3287C41.6993 72.2104 42.0914 72.1729 42.4782 72.2187C43.0928 72.1878 43.7045 72.3218 44.2499 72.6068C44.7952 72.8919 45.2545 73.3177 45.5799 73.84C45.9053 74.3623 46.0851 74.9621 46.1006 75.5773C46.1161 76.1925 45.9668 76.8007 45.6682 77.3387C45.3182 78.0487 44.8982 78.7287 44.5582 79.4487C43.5452 81.4299 43.1714 83.6763 43.4882 85.8787C43.4882 86.2487 43.4882 86.6087 43.4882 86.9687C43.5248 87.8548 43.2487 88.7256 42.7082 89.4287C42.2019 90.0286 41.5096 90.442 40.7413 90.6033C39.9731 90.7646 39.1729 90.6644 38.4682 90.3187C38.0374 90.1875 37.6458 89.9517 37.3283 89.6324C37.0107 89.3131 36.7771 88.9202 36.6482 88.4887V88.4487ZM47.3182 102.109C47.3182 102.369 47.3182 102.619 47.3182 102.879C47.2565 105.842 46.5213 108.752 45.1682 111.389C44.7506 112.169 44.2759 112.918 43.7482 113.629C43.3661 114.211 42.7934 114.642 42.1282 114.849C41.7561 114.962 41.365 115 40.9782 114.959C40.3636 114.99 39.7518 114.856 39.2065 114.571C38.6611 114.286 38.2019 113.86 37.8764 113.337C37.551 112.815 37.3713 112.215 37.3557 111.6C37.3402 110.985 37.4895 110.377 37.7882 109.839C38.1382 109.119 38.5582 108.439 38.9082 107.729C39.9126 105.745 40.2827 103.5 39.9682 101.299C39.9682 100.939 39.9682 100.569 39.9682 100.199C39.9313 99.3157 40.2076 98.448 40.7482 97.7487C41.2524 97.1459 41.9448 96.7303 42.7139 96.5688C43.483 96.4074 44.2841 96.5095 44.9882 96.8587C45.4251 96.9897 45.8219 97.2288 46.1418 97.554C46.4617 97.8791 46.6943 98.2797 46.8182 98.7187C46.8682 98.8787 46.9282 99.0387 46.9682 99.2087C47.0082 99.3787 47.0182 99.5487 47.0582 99.7287C47.0982 99.9087 47.1082 100.029 47.1382 100.179C47.2311 100.725 47.2945 101.276 47.3282 101.829C47.3282 101.969 47.3182 102.049 47.3182 102.149V102.109Z" fill="white"/>
<path d="M94.7282 63.2788C78.2182 63.1188 64.4482 76.4888 64.3182 92.8088C64.2116 98.7633 65.8756 104.615 69.0992 109.623C72.3228 114.631 76.9608 118.568 82.4252 120.937C87.8895 123.305 93.934 123.998 99.7924 122.926C105.651 121.855 111.059 119.068 115.332 114.919C119.604 110.77 122.549 105.446 123.791 99.6218C125.034 93.7975 124.519 87.7352 122.312 82.2037C120.106 76.6722 116.306 71.9206 111.395 68.5514C106.484 65.1821 100.683 63.3471 94.7282 63.2788ZM97.3382 76.5288C97.4692 76.0919 97.7083 75.6951 98.0334 75.3752C98.3586 75.0553 98.7592 74.8226 99.1982 74.6988C99.3579 74.6403 99.5216 74.5935 99.6882 74.5588L100.208 74.4588L100.658 74.3788C101.204 74.2847 101.755 74.2213 102.308 74.1888H102.588C102.848 74.1888 103.098 74.1888 103.348 74.1888C106.316 74.2492 109.23 74.9881 111.868 76.3488C112.649 76.7616 113.398 77.2329 114.108 77.7588C114.691 78.1408 115.122 78.7135 115.328 79.3788C115.443 79.7506 115.477 80.1427 115.428 80.5288C115.462 81.1445 115.331 81.7581 115.046 82.3054C114.762 82.8526 114.336 83.3134 113.813 83.6395C113.289 83.9656 112.688 84.1451 112.071 84.159C111.455 84.1729 110.846 84.0209 110.308 83.7188C109.598 83.3788 108.918 82.9488 108.198 82.5988C106.213 81.598 103.969 81.2281 101.768 81.5388H100.678C99.7951 81.5756 98.9274 81.2994 98.2282 80.7588C97.6261 80.2562 97.2109 79.5656 97.0495 78.7981C96.888 78.0307 96.9897 77.2313 97.3382 76.5288V76.5288ZM72.6982 79.0288C72.6653 78.4133 72.7979 77.8003 73.0822 77.2535C73.3665 76.7067 73.7921 76.246 74.3148 75.9193C74.8374 75.5927 75.438 75.412 76.0541 75.3961C76.6702 75.3801 77.2794 75.5296 77.8182 75.8288C78.5282 76.1788 79.2082 76.5988 79.9282 76.9488C81.9117 77.9545 84.1568 78.3246 86.3582 78.0088C86.7182 78.0088 87.0782 78.0088 87.4482 78.0088C88.3342 77.973 89.2047 78.249 89.9082 78.7888C90.5093 79.2943 90.923 79.9873 91.0826 80.7563C91.2422 81.5254 91.1385 82.3258 90.7882 83.0288C90.6589 83.4666 90.4203 83.8642 90.0949 84.1844C89.7695 84.5045 89.368 84.7366 88.9282 84.8588C88.7682 84.9088 88.6082 84.9688 88.4482 85.0088L87.9282 85.0988L87.4782 85.1788C86.9285 85.2711 86.3744 85.3345 85.8182 85.3688H85.5382C85.2782 85.3688 85.0282 85.3688 84.7682 85.3688C81.8033 85.3118 78.8914 84.5726 76.2582 83.2088C75.4783 82.7936 74.7297 82.3224 74.0182 81.7988C73.4358 81.4168 73.0045 80.844 72.7982 80.1788C72.6823 79.8071 72.6482 79.4148 72.6982 79.0288V79.0288ZM90.7882 109.699C90.6589 110.137 90.4203 110.534 90.0949 110.854C89.7695 111.175 89.368 111.407 88.9282 111.529L88.4482 111.699L87.9282 111.779C87.7782 111.779 87.6182 111.839 87.4782 111.869C86.9285 111.961 86.3744 112.025 85.8182 112.059H85.5382C85.2782 112.059 85.0282 112.059 84.7682 112.059C81.8033 112.002 78.8914 111.263 76.2582 109.899C75.4783 109.484 74.7297 109.012 74.0182 108.489C73.4358 108.107 73.0045 107.534 72.7982 106.869C72.6833 106.497 72.6492 106.105 72.6982 105.719C72.6672 105.104 72.8012 104.492 73.0863 103.947C73.3714 103.402 73.7971 102.942 74.3194 102.617C74.8417 102.292 75.4416 102.112 76.0568 102.096C76.672 102.081 77.2801 102.23 77.8182 102.529C78.5282 102.879 79.2082 103.299 79.9282 103.639C81.9091 104.652 84.1558 105.026 86.3582 104.709C86.7182 104.709 87.0782 104.709 87.4482 104.709C88.3342 104.673 89.2047 104.949 89.9082 105.489C90.5025 105.992 90.9117 106.68 91.0711 107.443C91.2305 108.205 91.131 108.999 90.7882 109.699V109.699ZM115.448 107.189C115.479 107.803 115.345 108.415 115.06 108.96C114.775 109.506 114.349 109.965 113.827 110.29C113.305 110.616 112.705 110.796 112.09 110.811C111.474 110.827 110.866 110.677 110.328 110.379C109.618 110.029 108.938 109.609 108.218 109.259C106.235 108.253 103.99 107.883 101.788 108.199C101.428 108.199 101.068 108.199 100.698 108.199C99.8151 108.236 98.9474 107.959 98.2482 107.419C97.6438 106.916 97.2271 106.223 97.0656 105.454C96.9041 104.684 97.0072 103.882 97.3582 103.179C97.4892 102.742 97.7283 102.345 98.0534 102.025C98.3786 101.705 98.7792 101.473 99.2182 101.349C99.3782 101.349 99.5282 101.239 99.7082 101.199L100.228 101.109L100.678 101.029C101.224 100.935 101.775 100.871 102.328 100.839H102.608C102.868 100.839 103.118 100.839 103.368 100.839C106.335 100.895 109.25 101.631 111.888 102.989C112.667 103.409 113.416 103.883 114.128 104.409C114.711 104.791 115.142 105.364 115.348 106.029C115.465 106.404 115.499 106.799 115.448 107.189V107.189ZM115.068 93.8988C114.67 94.6795 113.988 95.2776 113.161 95.5697C112.335 95.8619 111.428 95.8257 110.628 95.4688C109.863 95.1234 109.115 94.7396 108.388 94.3188C106.936 93.5297 105.319 93.0924 103.668 93.042C102.016 92.9917 100.375 93.3296 98.8782 94.0288C97.3382 94.6988 95.8782 95.6588 94.4182 96.3988C91.527 97.8561 88.3275 98.596 85.0901 98.5559C81.8526 98.5159 78.6724 97.6971 75.8182 96.1688C74.1982 95.3688 72.7382 94.3488 72.8182 92.1688C72.811 91.4684 72.993 90.7791 73.345 90.1737C73.697 89.5682 74.206 89.069 74.8182 88.7288C76.0782 88.0288 77.2282 88.4188 78.3882 89.1188C82.9782 91.8388 87.6682 92.0588 92.2882 89.3088C96.1482 87.0088 100.158 85.5188 104.728 85.8488C108.105 86.0842 111.349 87.2546 114.098 89.2288C114.806 89.7521 115.294 90.5189 115.47 91.3813C115.645 92.2438 115.495 93.1406 115.048 93.8988H115.068Z" fill="white"/>
<path d="M94.2681 59.9998C100.203 60.0235 106.011 58.2865 110.958 55.0084C115.906 51.7304 119.769 47.0587 122.061 41.5843C124.353 36.1099 124.969 30.0788 123.833 24.254C122.696 18.4292 119.857 13.0724 115.675 8.86122C111.494 4.65008 106.157 1.77385 100.34 0.596394C94.5233 -0.581066 88.488 -0.00684643 82.9977 2.24641C77.5074 4.49966 72.8088 8.33071 69.4962 13.2549C66.1836 18.1791 64.406 23.9751 64.3881 29.9098C64.3644 33.8502 65.1195 37.7565 66.6102 41.4042C68.1008 45.0519 70.2975 48.3691 73.0741 51.1652C75.8507 53.9613 79.1524 56.1811 82.7895 57.6973C86.4267 59.2134 90.3276 59.9959 94.2681 59.9998V59.9998ZM104.108 10.9998C105.398 8.80978 107.328 8.07978 109.298 8.99978C111.478 9.99978 112.098 11.9298 110.828 13.9998C109.238 16.5586 108.5 19.5552 108.718 22.5598C108.959 24.9572 109.794 27.2567 111.148 29.2498C112.616 31.5016 113.562 34.0527 113.919 36.7169C114.275 39.3811 114.032 42.0913 113.208 44.6498C112.53 46.5447 111.62 48.3484 110.498 50.0198C110.069 50.6464 109.435 51.1045 108.706 51.3161C107.976 51.5276 107.196 51.4795 106.498 51.1798C105.756 50.9106 105.117 50.4177 104.667 49.7693C104.217 49.1208 103.98 48.3488 103.988 47.5598C104.388 46.6998 104.718 45.7998 105.198 44.9798C106.307 43.2196 106.885 41.1773 106.864 39.0971C106.843 37.017 106.223 34.9869 105.078 33.2498C102.683 29.6014 101.405 25.3339 101.398 20.9698C101.422 17.4551 102.355 14.0064 104.108 10.9598V10.9998ZM90.9781 10.2998C91.3376 9.74459 91.8435 9.29951 92.4399 9.01365C93.0363 8.72778 93.7002 8.61224 94.3581 8.67978C94.9655 8.66556 95.5657 8.81438 96.0961 9.11075C96.6265 9.40712 97.0678 9.84022 97.3741 10.365C97.6804 10.8897 97.8404 11.487 97.8376 12.0945C97.8348 12.7021 97.6692 13.2979 97.3581 13.8198C94.2181 18.9998 94.3581 24.1098 97.5181 29.1898C99.7462 32.6634 100.756 36.7794 100.388 40.8898C100.149 44.2788 98.9066 47.52 96.8181 50.1998C96.3119 50.8326 95.5953 51.2626 94.7986 51.4113C94.002 51.5599 93.1785 51.4175 92.4781 51.0098C91.7261 50.6561 91.128 50.0414 90.7951 49.2799C90.4622 48.5185 90.4171 47.662 90.6681 46.8698C90.8892 46.2311 91.1775 45.6176 91.5281 45.0398C92.6256 43.3463 93.2203 41.3764 93.2433 39.3586C93.2663 37.3408 92.7167 35.3578 91.6581 33.6398C89.7881 30.3498 88.0981 27.0298 87.8381 23.1698C87.3633 18.633 88.4727 14.0717 90.9781 10.2598V10.2998ZM77.9781 10.2398C78.4618 9.51055 79.1945 8.98246 80.0393 8.75424C80.8841 8.52602 81.783 8.61331 82.5681 8.99978C83.065 9.15922 83.5161 9.43595 83.8834 9.80658C84.2508 10.1772 84.5235 10.6309 84.6784 11.1291C84.8334 11.6274 84.8661 12.1557 84.7738 12.6692C84.6815 13.1828 84.4669 13.6666 84.1481 14.0798C83.1184 15.624 82.4374 17.3739 82.1525 19.2079C81.8675 21.0419 81.9855 22.916 82.4981 24.6998C83.2857 26.773 84.2387 28.7794 85.3481 30.6998C86.9413 33.6642 87.6715 37.0158 87.4558 40.3743C87.2402 43.7327 86.0873 46.9635 84.1281 49.6998C83.8106 50.2362 83.3561 50.6785 82.8111 50.981C82.2661 51.2836 81.6503 51.4355 81.0271 51.4213C80.4039 51.407 79.7958 51.2271 79.2652 50.8999C78.7346 50.5727 78.3007 50.1102 78.0081 49.5598C77.6637 48.6408 77.5705 47.6467 77.7381 46.6798C77.8659 46.0601 78.1288 45.4762 78.5081 44.9698C79.5962 43.2698 80.1828 41.2975 80.2005 39.2792C80.2182 37.2609 79.6663 35.2785 78.6081 33.5598C77.2081 31.0098 75.6081 28.5598 75.1781 25.5598C74.9381 24.0698 74.7981 22.5598 74.6781 21.5598C74.8681 17.1498 75.7081 13.4398 78.0081 10.1998L77.9781 10.2398Z" fill="white"/>
</g>
<defs>
<clipPath id="clip0">
<rect width="364.168" height="123.809" fill="white"/>
</clipPath>
</defs>
</svg>
