<svg xmlns="http://www.w3.org/2000/svg" xmlns:xlink="http://www.w3.org/1999/xlink" width="365" height="124" fill="none" xmlns:v="https://vecta.io/nano"><g clip-path="url(#A)"><g fill="#005a98"><use xlink:href="#B"/><use xlink:href="#C"/><use xlink:href="#D"/><use xlink:href="#E"/><path d="M298.828 48.7V3.5h-9.82l-6.58 20.4V3.5h-9.82v45.2h10.3l6.1-20.56V48.7h9.82z"/><use xlink:href="#F"/><path d="M354.348 3.5l-6.58 20.4V3.5h-9.82v45.2h10.3l6.1-20.56V48.7h9.82V3.5h-9.82z"/><use xlink:href="#G"/><use xlink:href="#H"/><use xlink:href="#I"/><use xlink:href="#J"/><use xlink:href="#K"/><path d="M346.148 93.4V73h-9.82v45.18h10.3l6.1-20.55v20.55h9.82V73h-9.82l-6.58 20.38z"/><g fill-rule="evenodd"><use xlink:href="#L"/></g></g><use xlink:href="#M" fill-rule="evenodd" fill="#44c7f4"/><use xlink:href="#N" fill="#00b2b9"/><use xlink:href="#O" fill="#1189ca"/><g fill="#005a98"><use xlink:href="#B"/><use xlink:href="#C"/><use xlink:href="#D"/><use xlink:href="#E"/><path d="M298.828 48.7V3.5h-9.82l-6.58 20.4V3.5h-9.82v45.2h10.3l6.1-20.56V48.7h9.82z"/><use xlink:href="#F"/><path d="M354.348 3.5l-6.58 20.4V3.5h-9.82v45.2h10.3l6.1-20.56V48.7h9.82V3.5h-9.82z"/><use xlink:href="#G"/><use xlink:href="#H"/><use xlink:href="#I"/><use xlink:href="#J"/><use xlink:href="#K"/><path d="M346.148 93.4V73h-9.82v45.18h10.3l6.1-20.55v20.55h9.82V73h-9.82l-6.58 20.38z"/><g fill-rule="evenodd"><use xlink:href="#L"/></g></g><use xlink:href="#M" fill-rule="evenodd" fill="#44c7f4"/><use xlink:href="#N" fill="#00b2b9"/><use xlink:href="#O" fill="#1189ca"/></g><defs><clipPath id="A"><path fill="#fff" d="M0 0h364.168v123.81H0z"/></clipPath><path id="B" d="M148.498 30.51h3.15a15.5 15.5 0 0 0 6.24-1.06c1.434-.545 2.604-1.62 3.27-3a16.22 16.22 0 0 0 .9-6.3v-3.97c.06-2.097-.097-4.195-.47-6.26-.27-1.284-.873-2.474-1.75-3.45-1.07-1.065-2.412-1.815-3.88-2.17a27.4 27.4 0 0 0-7.38-.76h-11.82V48.7h11.74v-18.2zm0-19.24c1.52 0 2.53.23 3 .7s.73 1.46.73 3v3.73a5.8 5.8 0 0 1-.63 3.3 2.73 2.73 0 0 1-2.25.8h-.86l.01-11.53z"/><path id="C" d="M187.278 48.39a10.77 10.77 0 0 0 4.484-3.487c1.156-1.543 1.876-3.367 2.086-5.283.214-1.887.32-5.1.32-9.64v-7.72c.055-3.26-.055-6.52-.33-9.77a10.86 10.86 0 0 0-6.74-8.71 17 17 0 0 0-6.51-1.19 16.75 16.75 0 0 0-6.7 1.26 10.77 10.77 0 0 0-4.478 3.489c-1.154 1.543-1.873 3.366-2.082 5.28-.22 1.9-.32 5.1-.32 9.64v7.72c-.054 3.26.056 6.52.33 9.77a10.82 10.82 0 0 0 2.179 5.277c1.186 1.532 2.76 2.718 4.56 3.433a17 17 0 0 0 6.51 1.19 16.5 16.5 0 0 0 6.69-1.26h0zm-8.2-7.3c-.305-1.597-.416-3.226-.33-4.85V15.15c0-2.33.17-3.73.5-4.2a1.57 1.57 0 0 1 1.4-.71 1.39 1.39 0 0 1 1.44.87 14.16 14.16 0 0 1 .35 4v20.8a21.71 21.71 0 0 1-.34 5c-.086.33-.288.62-.57.813a1.43 1.43 0 0 1-.961.247 1.39 1.39 0 0 1-1.49-.88h0z"/><path id="D" d="M225.968 56.48h8.1V39.22h-2.4V3.5h-26v1.37a148.92 148.92 0 0 1-1.24 19.82c-.57 4.958-1.612 9.85-3.1 14.6h-2.4v17.2h8.1V48.7h19l-.06 7.78zm-6-17.26h-6.28a130.24 130.24 0 0 0 2.76-26.45v-.33h3.5l.03 26.78z"/><path id="E" d="M266.338 48.7V3.54h-11.74v16.15h-3.52V3.54h-11.75V48.7h11.75V29.73h3.52V48.7h11.74z"/><path id="F" d="M322.448 3.5c-1.2 1.14-1.83 3.33-1.9 6.6l-.22 8.8c-.08 2.4-1.22 3.63-3.44 3.68l-.05-19.08h-11.76v45.2h11.77l.05-19.13c.492-.02.982.065 1.44.247a3.53 3.53 0 0 1 1.217.808 3.54 3.54 0 0 1 .785 1.231c.173.46.247.952.22 1.444v8.82c0 3.25.63 5.45 1.9 6.58h10.85c-1.06-1.453-1.58-3.9-1.56-7.3l.05-7.2c.04-4.773-2.6-7.48-7.92-8.12 5.333-.667 7.973-3.333 7.92-8l-.05-7.75c0-3.44.52-5.7 1.56-6.8l-10.86-.01z"/><path id="G" d="M161.448 75.96a8.28 8.28 0 0 0-3.88-2.17 27.81 27.81 0 0 0-7.38-.76h-11.82v45.16h11.75v-18.18h3.15c2.13.08 4.256-.28 6.24-1.06a6.09 6.09 0 0 0 3.27-3 16.26 16.26 0 0 0 .9-6.3V85.7c.06-2.097-.098-4.195-.47-6.26a7.46 7.46 0 0 0-1.76-3.48zm-7.6 12.22a5.99 5.99 0 0 1-.62 3.31 2.73 2.73 0 0 1-2.25.79h-.86V80.76c1.52 0 2.53.23 3 .7s.72 1.47.72 3l.01 3.72z"/><path id="H" d="M200.508 76.83c-1.188-1.597-2.798-2.83-4.65-3.56a17.2 17.2 0 0 0-6.51-1.18 16.76 16.76 0 0 0-6.7 1.25 10.81 10.81 0 0 0-4.478 3.491 10.8 10.8 0 0 0-2.092 5.279c-.207 1.893-.313 5.107-.32 9.64v7.73a92.96 92.96 0 0 0 .34 9.76 10.66 10.66 0 0 0 2.09 5.16c1.2 1.59 2.795 2.823 4.64 3.56 2.075.816 4.29 1.217 6.52 1.18 2.293.05 4.572-.38 6.7-1.26 1.78-.74 3.328-1.944 4.484-3.487a10.77 10.77 0 0 0 2.086-5.283c.213-1.88.32-5.1.32-9.63v-7.73c.058-3.257-.055-6.515-.34-9.76-.224-1.874-.942-3.655-2.08-5.16zm-9.32 28.56c.083 1.69-.03 3.386-.34 5.05a1.42 1.42 0 0 1-.569.813c-.28.195-.62.282-.96.247a1.4 1.4 0 0 1-1.49-.92c-.3-1.598-.407-3.226-.32-4.85v-21.1c0-2.32.16-3.73.48-4.2a1.62 1.62 0 0 1 1.46-.74 1.38 1.38 0 0 1 1.44.88c.308 1.3.426 2.657.35 4l-.05 20.8z"/><path id="I" d="M237.978 74.1a18.89 18.89 0 0 0-15.32-.71c-1.825.756-3.416 1.985-4.6 3.56a10.29 10.29 0 0 0-2 4.7 57.73 57.73 0 0 0-.33 7.32v13.2c-.128 3.348.235 6.697 1.08 9.94a9.1 9.1 0 0 0 4.44 5.17 17.24 17.24 0 0 0 8.5 1.87 15 15 0 0 0 8.36-2.21c2.003-1.165 3.548-2.978 4.38-5.14.65-2 1-5.27 1-9.94v-1.76h-11.75v5.68c.095 1.584-.04 3.174-.4 4.72a2 2 0 0 1-1.735 1.005 1.99 1.99 0 0 1-1.002-.27c-.305-.176-.558-.43-.733-.735a14.61 14.61 0 0 1-.39-4.29v-21a15.74 15.74 0 0 1 .39-4.46c.155-.345.42-.63.752-.8a1.73 1.73 0 0 1 1.088-.19 1.62 1.62 0 0 1 .965.162c.297.152.54.392.695.688a14.17 14.17 0 0 1 .37 4.27v7.84h11.72v-4.3c.133-3.143-.225-6.287-1.06-9.32-.83-2.136-2.394-3.908-4.4-5z"/><path id="J" d="M278.308 74.1a18.91 18.91 0 0 0-15.33-.71 11.17 11.17 0 0 0-4.6 3.56 10.29 10.29 0 0 0-2 4.7c-.26 2.43-.37 4.876-.33 7.32v13.2c-.13 3.348.235 6.698 1.08 9.94a9.1 9.1 0 0 0 4.44 5.17c2.63 1.342 5.56 1.986 8.5 1.87 2.94.098 5.844-.67 8.35-2.2a10.14 10.14 0 0 0 4.38-5.14c.66-2 1-5.27 1-9.94v-1.76h-11.75v5.68c.095 1.585-.04 3.174-.4 4.72a1.65 1.65 0 0 1-.688.785c-.31.18-.667.256-1.022.215a1.67 1.67 0 0 1-1.049-.203c-.318-.18-.568-.46-.71-.797-.34-1.403-.473-2.848-.4-4.3v-21a15.74 15.74 0 0 1 .39-4.46c.155-.345.42-.63.752-.8a1.73 1.73 0 0 1 1.088-.19 1.61 1.61 0 0 1 1.66.85 14.17 14.17 0 0 1 .37 4.27v7.84h11.75v-4.3c.133-3.143-.225-6.287-1.06-9.32a9.68 9.68 0 0 0-4.44-5h0z"/><path id="K" d="M306.538 93.4V73h-9.82v45.18h10.3l6.1-20.55v20.55h9.82V73h-9.82l-6.58 20.38z"/><path id="L" d="M30.608.3A30.07 30.07 0 0 0 2.479 18.409a30.07 30.07 0 0 0 6.022 32.908 30.07 30.07 0 0 0 32.719 6.974A30.07 30.07 0 0 0 60.138 30.7C60.298 14.2 46.918.43 30.608.3zm-3.6 48.24a2.75 2.75 0 0 1-1.87 1.83c-.157.057-.317.104-.48.14l-.52.1-.45.07a13.4 13.4 0 0 1-1.66.2h-1.05a19.31 19.31 0 0 1-8.53-2.18 17.4 17.4 0 0 1-2.23-1.41 3 3 0 0 1-1.22-1.62 2.73 2.73 0 0 1-.11-1.15 3.44 3.44 0 0 1 1.616-3.111 3.44 3.44 0 0 1 3.504-.079c.7.34 1.4.77 2.1 1.1a10.9 10.9 0 0 0 6.43 1.07h1.1a3.74 3.74 0 0 1 2.46.78 3.52 3.52 0 0 1 .91 4.25h0zm0-15.26a2.75 2.75 0 0 1-1.87 1.83c-.157.057-.317.104-.48.14l-.52.1-.45.08a15.6 15.6 0 0 1-1.66.19h-1.05a19.44 19.44 0 0 1-8.53-2.18 17.4 17.4 0 0 1-2.23-1.41 3 3 0 0 1-1.22-1.62 2.73 2.73 0 0 1-.11-1.15 3.45 3.45 0 0 1 1.621-3.102 3.45 3.45 0 0 1 3.499-.088c.7.34 1.4.77 2.1 1.12a10.82 10.82 0 0 0 6.43 1.06h1.1a3.79 3.79 0 0 1 2.46.78 3.52 3.52 0 0 1 .91 4.25h0zm0-13.5a2.73 2.73 0 0 1-1.87 1.83 3.81 3.81 0 0 1-.48.15l-.52.1-.45.08a15.6 15.6 0 0 1-1.66.19h-1.05a19.29 19.29 0 0 1-8.53-2.17c-.776-.42-1.52-.895-2.23-1.42a3 3 0 0 1-1.22-1.62 2.68 2.68 0 0 1-.11-1.14 3.45 3.45 0 0 1 1.617-3.109 3.45 3.45 0 0 1 3.503-.091c.7.35 1.4.77 2.1 1.12a10.82 10.82 0 0 0 6.43 1.06h1.1a3.79 3.79 0 0 1 2.46.78 3.52 3.52 0 0 1 .91 4.25h0zm24.64 26.26a3.45 3.45 0 0 1-1.617 3.109 3.45 3.45 0 0 1-3.503.09c-.72-.35-1.4-.77-2.12-1.12a10.8 10.8 0 0 0-6.42-1.06h-1.1a3.7 3.7 0 0 1-2.45-.79 3.49 3.49 0 0 1-.89-4.24 2.68 2.68 0 0 1 1.9-1.83c.16-.062.323-.112.5-.15l.52-.1.45-.08c.546-.098 1.097-.16 1.65-.2.093.005.187.005.28 0h.76a19.3 19.3 0 0 1 8.52 2.15 18.01 18.01 0 0 1 2.24 1.42 3 3 0 0 1 1.22 1.62 2.68 2.68 0 0 1 .07 1.16h0zm0-15.26a3.45 3.45 0 0 1-1.617 3.11 3.45 3.45 0 0 1-3.503.09c-.72-.35-1.4-.77-2.12-1.12a10.8 10.8 0 0 0-6.42-1.06h-1.1a3.75 3.75 0 0 1-2.45-.78 3.49 3.49 0 0 1-.89-4.24 2.69 2.69 0 0 1 1.9-1.84c.16 0 .3-.1.5-.15l.96-.17a15.44 15.44 0 0 1 1.65-.19h1.04a19.31 19.31 0 0 1 8.52 2.16c.783.4 1.532.882 2.24 1.4a3 3 0 0 1 1.22 1.62 2.68 2.68 0 0 1 .08 1.16zm0-13.5a3.45 3.45 0 0 1-1.621 3.102 3.45 3.45 0 0 1-3.499.088c-.72-.35-1.4-.77-2.12-1.1a10.73 10.73 0 0 0-6.42-1.07h-1.1a3.69 3.69 0 0 1-2.45-.78 3.49 3.49 0 0 1-.89-4.24 2.71 2.71 0 0 1 1.9-1.84c.16-.06.324-.105.5-.14.17 0 .34-.06.52-.1l.45-.1a15.44 15.44 0 0 1 1.65-.19h1.04a19.45 19.45 0 0 1 8.52 2.16 16.84 16.84 0 0 1 2.24 1.41 3 3 0 0 1 1.22 1.62 2.73 2.73 0 0 1 .07 1.17h0z"/><path id="M" d="M30.148 63.81A30 30 0 0 0 2.389 82.216a30 30 0 0 0-1.781 17.31 30 30 0 0 0 8.128 15.386c4.17 4.213 9.495 7.097 15.302 8.286a30 30 0 0 0 30.851-12.553c3.327-4.907 5.125-10.69 5.17-16.616.04-3.954-.703-7.877-2.187-11.54a29.91 29.91 0 0 0-16.205-16.373 29.91 29.91 0 0 0-11.518-2.306h0zm-18.27 24.68a3.35 3.35 0 0 1-.14-.48c0-.17-.06-.35-.1-.52s-.06-.3-.08-.45c-.103-.548-.167-1.103-.2-1.66a2.43 2.43 0 0 1 0-.27v-.77a19.38 19.38 0 0 1 2.16-8.51c.41-.782.882-1.53 1.4-2.24a3 3 0 0 1 1.62-1.22 2.73 2.73 0 0 1 1.15-.11 3.44 3.44 0 0 1 3.111 1.616 3.44 3.44 0 0 1 .079 3.504c-.34.7-.77 1.4-1.1 2.1a10.76 10.76 0 0 0-1.07 6.43v1.1a3.72 3.72 0 0 1-.78 2.46 3.52 3.52 0 0 1-4.24.89 2.75 2.75 0 0 1-1.83-1.87zm10.68 13.66v.77c-.052 2.964-.788 5.876-2.15 8.5a18.08 18.08 0 0 1-1.42 2.24c-.382.582-.955 1.013-1.62 1.22-.37.113-.757.15-1.14.1a3.45 3.45 0 0 1-1.775-.384c-.547-.285-1.008-.7-1.334-1.233a3.45 3.45 0 0 1-.091-3.503c.35-.72.77-1.4 1.12-2.1a10.84 10.84 0 0 0 1.06-6.43v-1.1a3.7 3.7 0 0 1 .79-2.45 3.49 3.49 0 0 1 4.23-.89 2.71 2.71 0 0 1 1.83 1.86c0 .16.1.32.15.5s.05.34.1.52.05.3.08.45a15.46 15.46 0 0 1 .19 1.65 2.61 2.61 0 0 0-.01.28zm12.9 2.3c-.247 3.39-1.493 6.628-3.58 9.3a3.4 3.4 0 0 1-4.34.82 3.45 3.45 0 0 1-1.81-4.15 10.41 10.41 0 0 1 .86-1.82 10.69 10.69 0 0 0 .13-11.41c-1.87-3.28-3.56-6.6-3.82-10.47a19.77 19.77 0 0 1 3.18-12.87 3.62 3.62 0 0 1 3.39-1.62 3.4 3.4 0 0 1 2.978 1.708 3.4 3.4 0 0 1-.028 3.432c-3.14 5.2-3 10.3.16 15.38a18.56 18.56 0 0 1 2.88 11.69h0zm1.2-16a3.35 3.35 0 0 1-.14-.48c0-.17-.06-.35-.1-.52s0-.3-.08-.45c-.094-.55-.157-1.104-.2-1.66V84.3a19.24 19.24 0 0 1 2.16-8.51c.4-.782.882-1.532 1.4-2.24a3 3 0 0 1 1.62-1.22 2.73 2.73 0 0 1 1.15-.11 3.45 3.45 0 0 1 3.102 1.621 3.45 3.45 0 0 1 .088 3.499c-.35.7-.77 1.4-1.1 2.1a10.76 10.76 0 0 0-1.07 6.43v1.1a3.78 3.78 0 0 1-.78 2.46 3.52 3.52 0 0 1-4.24.89 2.73 2.73 0 0 1-1.82-1.83v-.04zm10.67 13.66v.77a19.53 19.53 0 0 1-2.15 8.51 18.07 18.07 0 0 1-1.42 2.24c-.382.582-.955 1.013-1.62 1.22-.372.113-.763.15-1.15.1a3.45 3.45 0 0 1-1.772-.388c-.545-.285-1.005-.71-1.33-1.234a3.45 3.45 0 0 1-.088-3.498c.35-.72.77-1.4 1.12-2.1a10.84 10.84 0 0 0 1.06-6.43v-1.1a3.75 3.75 0 0 1 .78-2.45 3.5 3.5 0 0 1 4.24-.89 2.71 2.71 0 0 1 1.83 1.86c.05.16.1.32.15.5s.05.34.1.52.05.3.08.45c.093.546.156 1.097.2 1.65 0 .14-.01.22-.01.32v-.04z"/><path id="N" d="M94.728 63.28c-16.5-.16-30.28 13.2-30.4 29.53a30.07 30.07 0 0 0 18.107 28.128c5.464 2.368 11.51 3.06 17.367 1.99a30.07 30.07 0 0 0 15.54-8.007c4.272-4.15 7.217-9.473 8.46-15.297a30.07 30.07 0 0 0-1.479-17.418 30.06 30.06 0 0 0-10.917-13.652 30.07 30.07 0 0 0-16.667-5.273zm2.6 13.25a2.71 2.71 0 0 1 1.86-1.83 3.5 3.5 0 0 1 .49-.14l.52-.1.45-.08c.546-.094 1.097-.157 1.65-.2h1.04a19.45 19.45 0 0 1 8.52 2.16 17.51 17.51 0 0 1 2.24 1.41c.583.382 1.014.955 1.22 1.62a2.73 2.73 0 0 1 .1 1.15c.034.616-.097 1.23-.382 1.777a3.44 3.44 0 0 1-2.975 1.854c-.616.014-1.225-.138-1.763-.44-.7-.34-1.4-.77-2.1-1.12a10.9 10.9 0 0 0-6.43-1.06h-1.1a3.75 3.75 0 0 1-2.45-.78 3.49 3.49 0 0 1-.89-4.23h0zm-24.64 2.5a3.45 3.45 0 0 1 1.617-3.109 3.45 3.45 0 0 1 3.503-.091c.7.35 1.4.77 2.1 1.12a10.82 10.82 0 0 0 6.43 1.06h1.1a3.79 3.79 0 0 1 2.46.78 3.5 3.5 0 0 1 .88 4.24 2.69 2.69 0 0 1-1.86 1.83c-.16.05-.32.1-.48.15l-.52.1-.45.08c-.55.092-1.104.156-1.66.2h-1.05a19.31 19.31 0 0 1-8.51-2.16c-.78-.415-1.53-.886-2.24-1.4a3 3 0 0 1-1.22-1.62 2.7 2.7 0 0 1-.1-1.15h0zm18.1 30.67c-.13.438-.368.835-.693 1.155a2.68 2.68 0 0 1-1.167.675l-.48.17-.52.08c-.15 0-.3.06-.45.1-.55.092-1.104.156-1.66.2h-1.05a19.31 19.31 0 0 1-8.51-2.16 18.29 18.29 0 0 1-2.24-1.41 3 3 0 0 1-1.22-1.62 2.73 2.73 0 0 1-.1-1.15 3.45 3.45 0 0 1 1.621-3.102 3.46 3.46 0 0 1 1.737-.521c.615-.015 1.223.134 1.76.433.7.35 1.4.77 2.1 1.1 1.98 1.013 4.228 1.387 6.43 1.07h1.1c.886-.036 1.757.24 2.46.78.594.503 1.004 1.19 1.163 1.954a3.5 3.5 0 0 1-.283 2.256h0zm24.66-2.5a3.45 3.45 0 0 1-.388 1.771c-.285.546-.71 1.005-1.233 1.33a3.44 3.44 0 0 1-1.737.521 3.45 3.45 0 0 1-1.762-.432c-.7-.35-1.4-.77-2.1-1.12-1.983-1.006-4.228-1.376-6.43-1.06h-1.1a3.75 3.75 0 0 1-2.45-.78 3.49 3.49 0 0 1-.89-4.24 2.71 2.71 0 0 1 1.86-1.83c.16 0 .3-.1.5-.15l.52-.1.45-.08a14.75 14.75 0 0 1 1.65-.19h1.04c2.967.056 5.882.792 8.52 2.15a18.72 18.72 0 0 1 2.24 1.42c.583.382 1.014.955 1.22 1.62a2.71 2.71 0 0 1 .1 1.16h0zm-.38-13.3a3.42 3.42 0 0 1-4.44 1.57c-.765-.345-1.513-.73-2.24-1.15a10.56 10.56 0 0 0-9.51-.29c-1.54.67-3 1.63-4.46 2.37a20.17 20.17 0 0 1-18.6-.23c-1.62-.8-3.08-1.82-3-4a3.89 3.89 0 0 1 2-3.44c1.26-.7 2.4-.3 3.57.4 4.6 2.72 9.28 2.94 13.9.2 3.86-2.3 7.87-3.8 12.44-3.46 3.377.235 6.62 1.406 9.37 3.38a3.56 3.56 0 0 1 .95 4.67h.02z"/><path id="O" d="M94.268 60c5.935.024 11.743-1.713 16.7-4.99a30 30 0 0 0 11.103-13.424c2.292-5.474 2.908-11.505 1.772-17.33a30 30 0 0 0-8.158-15.393c-4.18-4.21-9.518-7.087-15.335-8.265a30 30 0 0 0-17.342 1.65 30 30 0 0 0-18.61 27.663 29.91 29.91 0 0 0 8.686 21.255A29.91 29.91 0 0 0 94.268 60h0zm9.84-49c1.3-2.2 3.22-2.92 5.2-2 2.18 1 2.8 2.93 1.53 5-1.6 2.56-2.328 5.555-2.1 8.56.24 2.397 1.076 4.697 2.43 6.7 1.468 2.252 2.414 4.803 2.77 7.467a18.07 18.07 0 0 1-.711 7.933c-.678 1.895-1.588 3.7-2.7 5.37a3.28 3.28 0 0 1-4 1.16 3.81 3.81 0 0 1-1.831-1.41c-.45-.648-.687-1.42-.68-2.21.4-.86.73-1.76 1.2-2.58a10.83 10.83 0 0 0 1.666-5.883c-.02-2.08-.64-4.1-1.786-5.847a22.44 22.44 0 0 1-3.68-12.28 20.35 20.35 0 0 1 2.71-10.01V11zm-13.13-.7a3.59 3.59 0 0 1 3.38-1.62 3.4 3.4 0 0 1 3.016 1.685 3.4 3.4 0 0 1-.016 3.455c-3.14 5.18-3 10.3.16 15.37a18.6 18.6 0 0 1 2.87 11.7 17.1 17.1 0 0 1-3.57 9.31 3.38 3.38 0 0 1-4.34.81 3.43 3.43 0 0 1-1.81-4.14 9.55 9.55 0 0 1 .86-1.83 10.67 10.67 0 0 0 .13-11.4c-1.87-3.3-3.56-6.6-3.82-10.47a19.76 19.76 0 0 1 3.14-12.91v.04zm-13-.06A3.6 3.6 0 0 1 82.568 9a3.25 3.25 0 0 1 2.11 2.129 3.25 3.25 0 0 1-.53 2.951 12.78 12.78 0 0 0-1.65 10.62c.788 2.073 1.74 4.08 2.85 6a18 18 0 0 1-1.22 19 3.51 3.51 0 0 1-3.101 1.721 3.51 3.51 0 0 1-3.019-1.861 5.52 5.52 0 0 1-.27-2.88 4.3 4.3 0 0 1 .77-1.71 10.73 10.73 0 0 0 .1-11.41c-1.4-2.55-3-5-3.43-8-.24-1.5-.38-3-.5-4 .2-4.4 1.03-8.12 3.33-11.36l-.03.04z"/></defs></svg>